<?xml version="1.0" encoding="iso-8859-1"?>
<!-- Uploaded to: SVG Repo, www.svgrepo.com, Generator: SVG Repo Mixer Tools -->
<!-- DOCTYPE removed to avoid element declaration errors -->
<svg fill="#ffd700" version="1.1" id="Capa_1" xmlns="http://www.w3.org/2000/svg" xmlns:xlink="http://www.w3.org/1999/xlink" 
	 width="800px" height="800px" viewBox="0 0 979.101 979.1"
	 xml:space="preserve">
<g>
	<g>
		<path d="M972.05,476.8l-112.5-70.7c-10-6.3-23,0.9-23,12.7v141.5c0,11.8,13,19,23,12.7l112.5-70.7
			C981.45,496.3,981.45,482.701,972.05,476.8z"/>
		<path d="M713.55,456.3c-3.3-36.6-12.2-72.1-26.6-106c-18-42.6-43.8-80.8-76.601-113.6c-32.8-32.8-71.1-58.6-113.6-76.6
			c-44.1-18.7-90.9-28.1-139.2-28.1c-9.899,0-19.5,4-26.5,11L10.95,463c-14.601,14.6-14.601,38.4,0,53l320.1,320.1
			c7,7,16.601,11,26.5,11c48.3,0,95.101-9.5,139.2-28.1c42.6-18,80.8-43.8,113.6-76.6C643.15,709.6,668.95,671.3,686.95,628.8
			c14.399-33.899,23.2-69.5,26.6-106h61v-66.3h-61V456.3z M328.55,251.5l44.101-44.1c5.3,0.3,10.6,0.7,15.899,1.3
			c63.8,6.9,122.8,35.1,168.8,81.1c45.5,45.5,73.5,103.7,80.801,166.7H388.55v-197l-60,60v137h-204.9L328.55,251.5z M557.35,689.3
			c-46,46-105.1,74.2-168.8,81.101c-5.3,0.6-10.5,1-15.899,1.3l-44.101-44.2l-204.9-204.8h204.9v137l60,60v-197H638.15
			C630.85,585.6,602.85,643.8,557.35,689.3z"/>
	</g>
</g>
</svg>