<svg version="1.1" xmlns="http://www.w3.org/2000/svg" style="display: block;" viewBox="0 0 2048 2048" width="1024" height="1024" preserveAspectRatio="none">
<path transform="translate(0,0)" fill="rgb(252,236,203)" d="M 0 0 L 2048 0 L 2048 1378.12 L 2048 1720.04 L 2048 1936.06 L 2048 1952.1 L 2048 2013.51 L 2048 2024.6 L 2048 2043.84 L 2048 2048 L 2017.16 2048 L 1947.97 2048 L 1925.01 2048 L 1912.1 2048 L 1889.84 2048 L 3.16333 2048 L 0 2048 L 0 1575.49 L 0 1557.56 L 0 1513.07 L 0 1009.03 L 0 931.948 L 0 930.641 L 0 0 z"/>
<path transform="translate(0,0)" fill="rgb(50,48,74)" d="M 270.742 1559.71 C 249.741 1461.65 250.301 1371.23 273.374 1273.47 C 305.933 1135.51 390.474 994.482 512.986 919.012 C 612.617 857.637 724.346 838.636 838.531 865.88 C 925.521 886.635 1002.99 936.936 1063.1 1002.39 C 1079.11 1019.82 1094.05 1037.54 1106.47 1057.76 C 1160.67 1036.31 1230.11 1031.51 1287.95 1033.04 C 1303.02 1033.44 1322.2 1038.93 1336.64 1036.5 C 1349.49 1034.33 1364.1 1026.05 1376.39 1021.25 C 1418.65 1004.76 1460.47 986.544 1503.33 971.733 C 1508 963.682 1513.57 956.876 1521.75 952.166 C 1531.93 946.306 1543.57 945.623 1554.72 948.935 C 1576.05 955.269 1593.4 974.622 1603.89 993.49 C 1614.02 1011.71 1623.25 1039.7 1616.68 1060.43 C 1614.67 1066.8 1611.02 1072.08 1605.73 1076.15 C 1593.79 1085.35 1577.32 1091.43 1563.7 1097.99 C 1540.77 1108.96 1517.98 1120.23 1495.34 1131.79 C 1508.8 1146.82 1520.09 1163.03 1531.1 1179.88 C 1603.11 1288.6 1628.53 1421.64 1601.68 1549.25 C 1720.37 1497.47 1835.15 1438.1 1959.54 1400.51 C 1987.61 1392.03 2017.24 1383.14 2046.24 1378.69 L 2048 1378.12 L 2048 1720.04 L 2048 1936.06 L 2048 1952.1 L 2048 2013.51 L 2048 2024.6 L 2048 2043.84 L 2048 2048 L 2017.16 2048 L 1947.97 2048 L 1925.01 2048 L 1912.1 2048 L 1889.84 2048 L 3.16333 2048 L 0 2048 L 0 1575.49 L 0 1557.56 L 0 1513.07 L 2.2165 1513.74 C 7.40776 1519.64 12.5675 1525.56 17.6955 1531.51 C 35.2703 1517.87 51.7626 1507.48 74.2569 1505.1 C 79.1575 1508.12 84.047 1511.47 89.1165 1514.17 C 109.533 1495.24 126.298 1481.78 154.347 1476.74 C 114.666 1501.59 95.7232 1517.74 84.7811 1565.5 C 79.5909 1588.16 78.3023 1610.97 84.7111 1633.46 C 85.9063 1614.29 86.0573 1578.84 97.547 1562.67 C 103.29 1560.33 111.553 1537.85 118.9 1531.92 C 121.174 1530.08 123.056 1529.05 124.294 1526.3 C 124.568 1525.69 124.77 1525.05 125.092 1524.47 C 128.714 1517.89 156.028 1500.04 163.304 1497.76 C 165.549 1497.05 164.207 1497.56 166.374 1496.68 C 167.813 1496.09 169.254 1495.53 170.707 1494.98 L 171.201 1495.67 C 170.138 1496.25 169.16 1496.8 168.229 1497.58 C 155.647 1508.23 124.968 1532.36 123.128 1549.17 C 123.096 1549.46 123.077 1549.76 123.052 1550.05 L 121.782 1551.44 L 122.078 1553.26 C 126.869 1558.69 132.557 1564.23 136.352 1570.38 L 138.518 1570.39 C 140.798 1568.89 142.439 1567.7 144.23 1565.59 L 143.274 1564.88 C 144.88 1560.07 148.928 1555.91 152.026 1551.93 C 148.002 1546.77 143.158 1542.57 138.306 1538.21 C 145.486 1541.08 151.3 1545.79 157.486 1550.34 C 166.186 1544.25 173.525 1541.67 183.789 1539.22 C 189.558 1542.37 195.083 1546.2 200.634 1549.73 C 216.037 1538.03 234.386 1528.08 252.85 1522.41 C 236.613 1532.31 221.481 1541.95 208.086 1555.65 C 218.771 1566.8 225.926 1579.64 233.293 1593.07 C 243.968 1579.35 255.962 1568.91 270.742 1559.71 z"/>
<path transform="translate(0,0)" fill="rgb(167,146,136)" d="M 2046.24 1378.69 L 2048 1378.12 L 2048 1720.04 L 2048 1936.06 L 2048 1952.1 L 2048 2013.51 L 2048 2024.6 L 2048 2043.84 L 2048 2048 L 2017.16 2048 L 1947.97 2048 L 1925.01 2048 L 1912.1 2048 L 1912.37 2046.42 L 1911.4 2046.06 L 1889.55 2046.06 L 1888.69 2045.79 L 1890.01 2043.03 C 1892.35 2042.29 1894.02 2041.82 1895.93 2040.22 C 1896.1 2039.21 1896.32 2038.29 1896.14 2037.24 C 1895.14 2031.43 1886.62 2025.41 1881.96 2022.47 C 1878.18 2020.09 1875.79 2019.49 1871.43 2020.56 C 1871.5 2018.83 1871.73 2019.67 1870.52 2018.11 L 1865.66 2020.22 L 1864.06 2019.09 C 1862.43 2013.87 1865.13 2007.74 1867.16 2002.79 C 1880 1971.43 1911.6 1955.1 1940.98 1942.65 C 1934.64 1943.09 1928.38 1943.62 1922.13 1944.83 C 1881.72 1952.66 1857.85 1977.8 1835.67 2010.49 C 1832.31 1985.64 1824.23 1964.3 1808.54 1944.6 C 1805.15 1940.35 1800.83 1937.15 1797.41 1932.92 L 1799.91 1930.77 L 1798.73 1930.2 C 1786.23 1933.93 1771.73 1943.72 1761.9 1952.23 L 1753.92 1944.77 C 1775.72 1922.39 1789.04 1914.03 1821.02 1913.2 C 1808.2 1908.91 1795.91 1907.4 1782.65 1910.57 C 1745.85 1919.39 1719 1954.14 1700.24 1984.67 C 1700.91 1965.78 1703.47 1948.18 1712.38 1931.26 C 1727.01 1903.48 1748.18 1889.19 1777.32 1879.97 C 1769 1879.04 1760.44 1879.08 1752.24 1880.87 C 1722.69 1887.32 1702.43 1911.94 1686.81 1935.99 C 1686.34 1910.68 1689.93 1889.47 1675.54 1866.78 C 1675.81 1882.36 1679.44 1897.63 1679.35 1913.31 C 1677.18 1905.61 1674.92 1897.93 1672.56 1890.29 L 1671.95 1891.13 L 1670.6 1891.13 L 1668.16 1887.74 C 1667.3 1888.35 1667.87 1888.1 1666.29 1887.92 C 1652.63 1870.15 1637.3 1857.61 1614.82 1853.51 C 1590.18 1849.02 1572.01 1860.22 1552.57 1873.49 L 1532.1 1869.93 C 1539.97 1858.51 1548.97 1850.91 1561.32 1844.7 C 1544.96 1846.22 1535.54 1851.46 1523.11 1861.77 C 1518.86 1865.29 1515.73 1868.05 1510.43 1869.78 L 1509.27 1869.06 C 1510.18 1864.99 1513.82 1861.29 1516.41 1858.1 C 1528.65 1843.01 1543.36 1830.66 1560.9 1822.17 C 1564.97 1820.2 1583.26 1814.01 1585.12 1812.04 C 1584.55 1811.71 1584.04 1811.28 1583.43 1811.05 C 1577.71 1808.89 1565.02 1811.72 1559.2 1813.27 C 1512.54 1825.74 1485.23 1869.14 1462.72 1908.32 C 1462.27 1897.72 1463.65 1886.98 1465.74 1876.61 C 1473.27 1839.34 1488.69 1815.75 1520.22 1794.71 C 1507.29 1797.76 1495.9 1802.38 1484.99 1810.08 C 1459.77 1827.87 1450.2 1852.4 1445.27 1882.02 C 1439.49 1861.49 1429.47 1846.23 1415.24 1830.56 C 1427.08 1821.38 1439.79 1813.39 1451.35 1803.85 C 1495.33 1767.57 1521.79 1730.98 1552.21 1683.75 C 1577.5 1635.88 1589.56 1601.95 1601.68 1549.25 C 1720.37 1497.47 1835.15 1438.1 1959.54 1400.51 C 1987.61 1392.03 2017.24 1383.14 2046.24 1378.69 z"/>
<path transform="translate(0,0)" fill="rgb(209,188,160)" d="M 2046.24 1378.69 L 2048 1378.12 L 2048 1720.04 C 2046.17 1710.87 2046.99 1700.11 2047 1690.73 C 2047.02 1670.13 2047.9 1649.27 2046.78 1628.71 C 2044.85 1658 2045.65 1691.25 2046.44 1720.71 C 2032.19 1715.56 2016.47 1712.42 2001.74 1708.95 C 1921.94 1690.21 1827.7 1680.07 1745.76 1676.08 C 1733.13 1675.41 1720.48 1675.06 1707.83 1675.02 C 1697.11 1674.97 1662.97 1676.77 1654.46 1674.09 C 1651.95 1673.31 1649.45 1673.36 1646.84 1673.23 L 1648.77 1674.45 C 1635.18 1678.28 1613.7 1677.88 1599.21 1679.06 C 1583.51 1680.33 1567.89 1682.51 1552.21 1683.75 C 1577.5 1635.88 1589.56 1601.95 1601.68 1549.25 C 1720.37 1497.47 1835.15 1438.1 1959.54 1400.51 C 1987.61 1392.03 2017.24 1383.14 2046.24 1378.69 z"/>
<path transform="translate(0,0)" fill="rgb(252,236,203)" d="M 2046.24 1378.69 L 2048 1378.12 L 2048 1720.04 C 2046.17 1710.87 2046.99 1700.11 2047 1690.73 C 2047.02 1670.13 2047.9 1649.27 2046.78 1628.71 C 2045.69 1545.4 2047 1462.02 2046.24 1378.69 z"/>
<path transform="translate(0,0)" fill="rgb(33,31,54)" d="M 1646.84 1673.23 C 1645.12 1672.61 1644.59 1672.79 1643.59 1671.2 C 1641.46 1667.81 1640.52 1666.6 1637.01 1664.86 C 1636.28 1664.51 1635.6 1664.07 1634.89 1663.67 L 1633.22 1662.73 L 1633.16 1661.18 C 1635.05 1659.81 1636.61 1659.87 1638.87 1659.68 C 1641.75 1656.94 1643.36 1655.27 1647.64 1655.41 C 1653.73 1655.61 1660.47 1659.78 1665.92 1662.38 C 1660.25 1665.76 1656.98 1667.66 1654.46 1674.09 C 1651.95 1673.31 1649.45 1673.36 1646.84 1673.23 z"/>
<path transform="translate(0,0)" fill="rgb(167,146,136)" d="M 2045.12 1949.58 L 2046.07 1952.97 L 2048 1952.1 L 2048 2013.51 L 2048 2024.6 L 2048 2043.84 L 2048 2048 L 2017.16 2048 L 1947.97 2048 L 1949.01 2046.24 L 1949.68 2045.83 C 1965.42 2019.38 2004.12 2002.58 2025.42 1979.73 C 2033.71 1970.84 2039.05 1959.97 2045.12 1949.58 z"/>
<path transform="translate(0,0)" fill="rgb(33,31,54)" d="M 2046.52 2012.93 C 2046.54 2017.41 2047.2 2019.98 2043.74 2023.28 C 2034.85 2031.77 2023.24 2036.99 2014.55 2045.85 C 2003.74 2046.52 1992.59 2046.03 1981.74 2045.99 L 1980.56 2044.49 C 1991.15 2039.27 2001.57 2033.58 2012.26 2028.59 C 2023.61 2023.29 2035.45 2018.79 2046.52 2012.93 z"/>
<path transform="translate(0,0)" fill="rgb(234,224,217)" d="M 2047.08 2044.13 L 2048 2043.84 L 2048 2048 L 2017.16 2048 L 1947.97 2048 L 1949.01 2046.24 L 1949.68 2045.83 C 1960.22 2045.91 1971.26 2046.66 1981.74 2045.99 C 1992.59 2046.03 2003.74 2046.52 2014.55 2045.85 L 2017.85 2046.56 C 2025.71 2045.14 2041.04 2048.66 2047.08 2044.13 z"/>
<path transform="translate(0,0)" fill="rgb(234,224,217)" d="M 2048 1952.1 L 2048 2013.51 C 2044.01 2003.67 2046.1 1966.2 2046.07 1952.97 L 2048 1952.1 z"/>
<path transform="translate(0,0)" fill="rgb(234,224,217)" d="M 2047.08 2044.13 C 2046.4 2037.78 2046.46 2030.81 2048 2024.6 L 2048 2043.84 L 2047.08 2044.13 z"/>
<path transform="translate(0,0)" fill="rgb(50,48,74)" d="M 1938.54 2031.66 C 1959.77 2002.31 1989.78 1993.32 2016.49 1971.95 C 2027.58 1963.08 2034.38 1952.1 2043.77 1941.87 C 2045.38 1943.87 2045.06 1946.15 2045.27 1948.67 L 2045.12 1949.58 C 2039.05 1959.97 2033.71 1970.84 2025.42 1979.73 C 2004.12 2002.58 1965.42 2019.38 1949.68 2045.83 L 1949.01 2046.24 L 1947.97 2048 L 1925.01 2048 L 1924.53 2046.13 C 1923.5 2039.74 1924.92 2033.61 1924.37 2027.2 C 1922.91 2010.23 1918.34 1994.68 1913.2 1978.56 C 1924.77 1994.06 1932.91 2013.28 1938.54 2031.66 z"/>
<path transform="translate(0,0)" fill="rgb(234,224,217)" d="M 1924.53 2046.13 L 1949.01 2046.24 L 1947.97 2048 L 1925.01 2048 L 1924.53 2046.13 z"/>
<path transform="translate(0,0)" fill="rgb(33,31,54)" d="M 1668.16 1887.74 C 1664.27 1875.59 1647.49 1836.32 1636.26 1830.78 C 1634.87 1830.1 1634.79 1830.15 1633.48 1829.85 C 1630.54 1833.51 1632.52 1838.41 1626.14 1838.95 C 1624.74 1839.07 1622.92 1838.58 1621.53 1838.32 C 1621.42 1837.96 1621.32 1837.6 1621.21 1837.24 C 1619.99 1833.38 1619.01 1830.62 1615.23 1828.62 C 1612.98 1827.44 1610.43 1826.92 1607.96 1826.38 L 1607.22 1825.43 C 1609.9 1818.3 1617.45 1823.12 1620.42 1811.5 C 1625.34 1810.3 1634.87 1815.64 1639.17 1818.24 C 1640.19 1818.85 1640.87 1819.57 1641.68 1820.42 C 1641.48 1823.36 1640.45 1822.08 1639.48 1824.13 C 1638.74 1825.67 1645.83 1833.34 1647.01 1834.74 C 1659.39 1849.38 1668.09 1871.76 1672.56 1890.29 L 1671.95 1891.13 L 1670.6 1891.13 L 1668.16 1887.74 z"/>
<path transform="translate(0,0)" fill="rgb(234,224,217)" d="M 2046.78 1628.71 C 2047.9 1649.27 2047.02 1670.13 2047 1690.73 C 2046.99 1700.11 2046.17 1710.87 2048 1720.04 L 2048 1936.06 L 2046.16 1936.17 C 2047.44 1906.18 2046.66 1875.83 2046.69 1845.8 C 2046.72 1804.13 2047.19 1762.38 2046.44 1720.71 C 2045.65 1691.25 2044.85 1658 2046.78 1628.71 z"/>
<path transform="translate(0,0)" fill="rgb(33,31,54)" d="M 1864.06 2019.09 C 1867.32 2017.13 1869.65 2015.85 1873.63 2016.74 C 1884.04 2019.06 1906.06 2036.42 1911.01 2045.2 C 1911.17 2045.47 1911.27 2045.77 1911.4 2046.06 L 1889.55 2046.06 L 1888.69 2045.79 L 1890.01 2043.03 C 1892.35 2042.29 1894.02 2041.82 1895.93 2040.22 C 1896.1 2039.21 1896.32 2038.29 1896.14 2037.24 C 1895.14 2031.43 1886.62 2025.41 1881.96 2022.47 C 1878.18 2020.09 1875.79 2019.49 1871.43 2020.56 C 1871.5 2018.83 1871.73 2019.67 1870.52 2018.11 L 1865.66 2020.22 L 1864.06 2019.09 z"/>
<path transform="translate(0,0)" fill="rgb(234,224,217)" d="M 2046.16 1936.17 L 2048 1936.06 L 2048 1952.1 L 2046.07 1952.97 L 2045.12 1949.58 L 2045.27 1948.67 C 2045.86 1944.58 2045.9 1940.3 2046.16 1936.17 z"/>
<path transform="translate(0,0)" fill="rgb(234,224,217)" d="M 1924.53 2046.13 L 1925.01 2048 L 1912.1 2048 L 1912.37 2046.42 L 1924.53 2046.13 z"/>
<path transform="translate(0,0)" fill="rgb(33,31,54)" d="M 1914.98 1805.12 C 1917.17 1804.87 1919.22 1804.84 1921.43 1804.9 C 1928 1809.76 1936.16 1813.19 1943.34 1817.15 C 1937.48 1819.23 1931.38 1820.64 1925.36 1822.21 C 1923.22 1824.83 1926.06 1826.96 1924.49 1830.14 L 1921.85 1830.58 C 1919.95 1830.52 1920.56 1830.48 1919.02 1830.59 C 1917.12 1830.74 1915.39 1830.88 1913.47 1830.72 C 1911.54 1830.55 1912.34 1830.8 1910.9 1828.99 C 1911.15 1827.39 1911.46 1825.96 1911.93 1824.4 C 1912.08 1823.9 1912.25 1823.41 1912.41 1822.91 C 1909.35 1820.27 1901.17 1820.08 1897.03 1818.65 L 1896.44 1817.21 C 1899.64 1813.94 1903.52 1812.51 1908.02 1811.99 C 1908.32 1811.95 1910.67 1811.72 1911.04 1811.58 C 1913.98 1810.48 1914.11 1807.77 1914.98 1805.12 z"/>
<path transform="translate(0,0)" fill="rgb(33,31,54)" d="M 1633.23 1692.49 C 1642.89 1692.21 1641.35 1698.33 1648.93 1699.67 C 1654.29 1700.61 1657.83 1701.48 1661.38 1705.95 C 1659.24 1710.73 1648.62 1707.65 1644.99 1711.41 C 1644.85 1714.09 1644.5 1715.6 1643.24 1717.98 C 1639.33 1718.06 1634.2 1718.8 1630.96 1716.38 C 1630.56 1714.94 1630.36 1714.02 1630.49 1712.5 C 1630.52 1712.11 1630.59 1711.72 1630.64 1711.32 C 1627.69 1708.52 1622.68 1708.72 1618.97 1707.19 C 1616.77 1706.29 1616.7 1706.11 1615.91 1704 C 1619.54 1698.14 1627.3 1702.34 1632.3 1699.26 C 1632.42 1696.92 1632.79 1694.78 1633.23 1692.49 z"/>
<path transform="translate(0,0)" fill="rgb(33,31,54)" d="M 1861.01 1844.53 C 1862.53 1843.57 1864.34 1842.34 1866.06 1841.8 C 1868.95 1840.89 1871.48 1842.26 1874.09 1843.39 C 1877.25 1846 1879.88 1846.66 1883.78 1847.74 L 1886 1848.37 C 1880.87 1852.43 1874.95 1858.52 1868.11 1858.73 C 1866.15 1857.92 1864.88 1857.11 1863.28 1855.76 C 1861.38 1854.15 1860.37 1854.03 1857.97 1853.43 C 1855.44 1852.8 1854.26 1852.13 1852.71 1850.07 L 1853.08 1848.09 C 1855.34 1846.96 1857.28 1846.36 1859.71 1845.77 L 1861.01 1844.53 z"/>
<path transform="translate(0,0)" fill="rgb(33,31,54)" d="M 1861.01 1844.53 C 1862.53 1843.57 1864.34 1842.34 1866.06 1841.8 C 1868.95 1840.89 1871.48 1842.26 1874.09 1843.39 C 1870.96 1845.3 1867.96 1846.47 1864.22 1845.82 C 1862.7 1845.57 1862.47 1845.29 1861.01 1844.53 z"/>
<path transform="translate(0,0)" fill="rgb(33,31,54)" d="M 1609.24 1781.9 C 1609.85 1781.91 1610.47 1781.89 1611.09 1781.92 C 1615.27 1782.1 1625.84 1786.47 1628.38 1789.6 C 1629.32 1790.75 1628.94 1790.59 1628.57 1792.21 C 1625.53 1795.08 1618.76 1795.49 1614.65 1797.29 L 1613.39 1797.86 C 1612.99 1797.96 1612.6 1798.13 1612.18 1798.18 C 1608.65 1798.65 1603.11 1794.76 1600.41 1792.44 C 1598.73 1791 1597.96 1790.61 1597.82 1788.38 C 1602.26 1785.66 1605.56 1785.9 1609.24 1781.9 z"/>
<path transform="translate(0,0)" fill="rgb(33,31,54)" d="M 1949.65 1880.12 C 1953.65 1880.48 1959.73 1882.89 1962.96 1885.27 C 1964.14 1887.76 1963.96 1887.82 1963.25 1890.52 C 1960.65 1893.92 1956.69 1895.32 1952.92 1897.13 C 1952.54 1897.15 1952.17 1897.22 1951.8 1897.2 C 1947.84 1896.96 1941.93 1893.42 1939.01 1890.76 C 1938.07 1888.3 1938.12 1888.15 1938.83 1885.6 C 1941.54 1882.33 1945.76 1881.46 1949.65 1880.12 z"/>
<path transform="translate(0,0)" fill="rgb(33,31,54)" d="M 1701.47 1830.44 C 1703.89 1831.67 1704.22 1832.52 1705.77 1834.69 C 1706.82 1834.93 1709 1835.25 1710.01 1835.84 C 1712 1837.03 1712.27 1837.7 1712.8 1839.87 C 1710.39 1841.43 1706.84 1840.59 1705.27 1841.88 C 1702.83 1843.89 1706.2 1844.94 1698.99 1848.77 C 1697.19 1847.36 1696.01 1846.48 1694.8 1844.49 C 1692.9 1841.36 1689.06 1842.42 1687.34 1839.19 C 1689.74 1836.13 1693.18 1835.42 1696.3 1833.34 C 1698.01 1832.21 1699.64 1831.36 1701.47 1830.44 z"/>
<path transform="translate(0,0)" fill="rgb(234,224,217)" d="M 1874.01 2046.06 L 1885.04 2046.09 L 1888.69 2045.79 L 1889.55 2046.06 L 1911.4 2046.06 L 1912.37 2046.42 L 1912.1 2048 L 1889.84 2048 L 3.16333 2048 L 2.84269 2046.71 C 23.7221 2044.54 46.1225 2046.05 67.1694 2046.09 L 186.524 2046.23 L 584.399 2046.22 L 1874.01 2046.06 z"/>
<path transform="translate(0,0)" fill="rgb(252,236,203)" d="M 0 1575.49 C 3.94317 1591.08 2.10574 1609.8 2.10046 1625.89 L 2.00704 1698.45 L 2.16019 1972.16 C 2.2016 1985.99 -0.105707 2036.79 2.84269 2046.71 L 3.16333 2048 L 0 2048 L 0 1575.49 z"/>
<path transform="translate(0,0)" fill="rgb(252,236,203)" d="M 122.078 1553.26 C 126.869 1558.69 132.557 1564.23 136.352 1570.38 C 124.118 1578.55 112.614 1612.85 109.247 1626.54 C 107.948 1600.28 112.414 1577.67 122.078 1553.26 z"/>
<path transform="translate(0,0)" fill="rgb(167,146,136)" d="M 1871.43 2020.56 C 1875.79 2019.49 1878.18 2020.09 1881.96 2022.47 C 1886.62 2025.41 1895.14 2031.43 1896.14 2037.24 C 1896.32 2038.29 1896.1 2039.21 1895.93 2040.22 C 1894.02 2041.82 1892.35 2042.29 1890.01 2043.03 L 1888.69 2045.79 L 1885.04 2046.09 L 1874.01 2046.06 L 1875.07 2042.17 L 1873.71 2040.35 C 1869.75 2037.98 1861.95 2038.4 1857.22 2037.87 C 1861.33 2030.45 1864.61 2025.73 1871.43 2020.56 z"/>
<path transform="translate(0,0)" fill="rgb(33,31,54)" d="M 1875.07 2042.17 C 1877.43 2040.62 1878.41 2039.46 1881.28 2039.55 C 1882.03 2040.77 1882.5 2041.7 1882.94 2043.06 C 1883.43 2044.53 1883.96 2045.06 1885.04 2046.09 L 1874.01 2046.06 L 1875.07 2042.17 z"/>
<path transform="translate(0,0)" fill="rgb(252,236,203)" d="M 0 1513.07 L 2.2165 1513.74 C 1.05336 1524.37 3.89378 1535.38 5.62792 1545.84 C 3.86381 1549.71 2.28103 1553.97 0 1557.56 L 0 1513.07 z"/>
<path transform="translate(0,0)" fill="rgb(252,236,203)" d="M 724.228 930.435 C 786.916 930.289 848.238 948.741 900.436 983.455 C 897.178 990.177 892.8 996.598 889.177 1003.17 C 875.093 1028.71 860.068 1053.51 845.205 1078.59 C 824.641 1113.29 805.526 1148.91 785.388 1183.87 C 773.109 1204.46 762.026 1225.98 750.641 1247.09 C 744.369 1258.71 738.457 1270.87 730.692 1281.58 C 727.617 1264.33 726.879 1246.28 725.257 1228.81 C 721.87 1192.51 718.825 1156.19 716.12 1119.84 L 708.174 1010.62 C 706.185 984.599 703.401 958.356 702.826 932.27 C 709.874 931.12 717.104 930.887 724.228 930.435 z"/>
<path transform="translate(0,0)" fill="rgb(252,236,203)" d="M 650.695 943.059 C 652.087 945.303 674.426 1275.78 672.629 1284.34 L 670.599 1284.75 C 661.453 1280.14 596.355 1209.28 583.454 1195.67 C 545.41 1155.34 509.496 1113.01 471.296 1072.78 C 520.407 1015.79 580.726 971.178 650.695 943.059 z"/>
<path transform="translate(0,0)" fill="rgb(252,236,203)" d="M 850.324 1503.01 C 895.32 1526.05 939.219 1551.74 983.238 1576.64 C 996.527 1584.4 1009.9 1592.01 1023.36 1599.47 C 1034.66 1605.73 1046.67 1611.62 1057.02 1619.36 C 1048.06 1636.53 1036.35 1656.12 1022.87 1669.99 C 979.655 1666.7 946.387 1683.03 913.938 1710.87 C 904.704 1718.79 896.872 1727.68 889.898 1737.62 C 884.211 1723.45 878.311 1709.36 872.2 1695.37 C 868.769 1687.45 864.311 1679.1 861.827 1670.87 C 840.105 1624.75 818.803 1579.22 792.686 1535.31 C 811.811 1524.44 830.81 1513.16 850.324 1503.01 z"/>
<path transform="translate(0,0)" fill="rgb(33,31,54)" d="M 861.827 1670.87 C 864.827 1660.42 874.326 1652.11 883.617 1646.94 C 892.31 1642.11 923.998 1631.68 933.125 1632.79 C 916.55 1642.79 895.057 1645.06 878.786 1655.62 C 873.674 1658.94 866.965 1669.94 861.827 1670.87 z"/>
<path transform="translate(0,0)" fill="rgb(252,236,203)" d="M 936.121 1009.62 C 942.814 1012.29 949.919 1020.03 955.178 1024.94 C 988.445 1055.99 1019 1093.51 1040.42 1133.73 C 1019.63 1149.32 996.461 1162.98 974.764 1177.43 C 957.729 1188.76 940.334 1202.8 922.023 1211.8 C 908.651 1218.37 893.249 1222.47 879.297 1227.97 C 855.028 1237.88 829.542 1249.77 804.448 1257.14 C 833.15 1204.63 861.281 1151.8 888.836 1098.68 L 915.209 1047.24 C 921.709 1034.58 927.918 1021.26 936.121 1009.62 z"/>
<path transform="translate(0,0)" fill="rgb(252,236,203)" d="M 442.933 1106.8 C 465.58 1131.95 485.816 1158.68 507.703 1184.39 L 566.127 1254.24 C 583.074 1274.64 600.48 1295.06 615.525 1316.93 L 608.933 1323.46 C 597.039 1316.8 584.281 1311.55 571.834 1306.01 C 540.209 1292.29 508.345 1279.76 476.403 1266.89 C 444.456 1254.01 412.881 1240.78 380.018 1230.33 C 393.748 1187.24 416.121 1143.25 442.933 1106.8 z"/>
<path transform="translate(0,0)" fill="rgb(252,236,203)" d="M 369.683 1265.6 C 411.58 1284.12 453.259 1303.13 494.714 1322.61 C 524.803 1336.47 555.155 1349.9 584.939 1364.4 C 583.689 1371.22 582.891 1378.18 581.911 1385.04 C 571.059 1385.84 560.118 1386.09 549.247 1386.63 C 511.117 1388.14 472.838 1391.72 434.79 1394.69 C 406.536 1396.89 377.549 1397.97 349.587 1402.62 C 350.283 1360.43 358.568 1306.31 369.683 1265.6 z"/>
<path transform="translate(0,0)" fill="rgb(252,236,203)" d="M 1415.22 1173.9 C 1415.45 1173.95 1415.69 1173.95 1415.9 1174.04 C 1429.21 1179.38 1466.61 1236.91 1474.26 1251.91 C 1450.39 1269.08 1425.34 1285 1401.09 1301.67 C 1373.87 1320.38 1347.29 1339.91 1320.2 1358.78 C 1308.47 1367.43 1296.85 1376.31 1284.41 1383.9 C 1291.09 1366.87 1299.88 1350.1 1307.4 1333.35 C 1327.06 1289.57 1347.04 1246.16 1365.69 1201.92 C 1381.67 1191.73 1399.04 1183.83 1415.22 1173.9 z"/>
<path transform="translate(0,0)" fill="rgb(252,236,203)" d="M 1300.07 1510.33 C 1321.62 1512.9 1343.18 1518.43 1364.4 1522.98 C 1413.29 1533.46 1461.8 1545.48 1510.63 1556.26 C 1502.44 1589.5 1489.11 1622.74 1473.55 1653.19 L 1463.71 1671.88 C 1458.3 1665.88 1452.83 1660.12 1446.97 1654.57 C 1434.37 1645.3 1423.33 1631.17 1411.91 1620.23 C 1374.3 1584.19 1335.88 1548.12 1300.07 1510.33 z"/>
<path transform="translate(0,0)" fill="rgb(167,146,136)" d="M 1446.97 1654.57 C 1456.04 1652.13 1464.34 1651.85 1473.55 1653.19 L 1463.71 1671.88 C 1458.3 1665.88 1452.83 1660.12 1446.97 1654.57 z"/>
<path transform="translate(0,0)" fill="rgb(252,236,203)" d="M 817.796 872.808 C 834.151 875.325 850.329 881.004 865.85 886.66 C 922.55 907.323 972.034 937.414 1017.79 976.694 C 1085.49 1034.82 1137.81 1119.43 1164.36 1204.34 C 1177.27 1245.65 1185.56 1294.22 1188.8 1337.33 C 1200.45 1492.28 1161.65 1637.89 1059.33 1756.98 C 1057.13 1759.42 1054.8 1762.83 1051.46 1763.46 L 1050.11 1762.2 C 1050.44 1757.7 1078.48 1722.78 1084.07 1714.32 C 1101.15 1688 1115.84 1660.21 1127.96 1631.27 C 1191.18 1481.43 1191.41 1312.44 1128.62 1162.41 C 1084.7 1054.75 1006.17 958.422 901.225 905.671 C 886.378 898.208 870.845 891.04 855.154 885.556 C 843.403 881.449 830.734 878.433 819.364 873.501 L 817.796 872.808 z"/>
<path transform="translate(0,0)" fill="rgb(252,236,203)" d="M 570.796 1420.6 L 585.117 1419.5 C 567.302 1427.79 550.465 1438.8 533.593 1448.88 C 480.693 1480.49 430.229 1516.27 377.073 1547.3 C 374.438 1548.84 372.32 1550.08 369.263 1549.89 L 367.846 1546.75 C 357.982 1512.09 353.968 1478.14 350.965 1442.31 C 384.542 1436.5 420.045 1435.65 454.024 1432.72 C 493.013 1429.35 531.833 1424.26 570.796 1420.6 z"/>
<path transform="translate(0,0)" fill="rgb(252,236,203)" d="M 949.789 1445.13 C 965.531 1451.29 984.038 1454.79 1000.49 1459.33 C 1033.38 1468.42 1066.24 1478.02 1099.38 1486.19 C 1094.9 1519.13 1086.61 1547.5 1075.46 1578.61 C 1069.09 1575.49 1063.06 1571.71 1056.98 1568.07 C 1003.76 1535.45 949.725 1504.18 894.93 1474.28 C 912.323 1462.74 931.021 1454.11 949.789 1445.13 z"/>
<path transform="translate(0,0)" fill="rgb(252,236,203)" d="M 1167.36 1710.67 C 1173.88 1690.88 1221.07 1553.14 1226.49 1546.87 C 1228.45 1544.6 1230.17 1544.17 1233.06 1544.1 C 1233.8 1544.53 1234.76 1544.71 1235.28 1545.39 C 1236.82 1547.44 1240.93 1575.24 1241.85 1579.89 C 1245.34 1597.55 1249.73 1614.96 1253.63 1632.53 C 1258.65 1655.15 1263.17 1677.78 1269.41 1700.12 C 1270.92 1707.03 1272.53 1713.92 1274.25 1720.78 C 1250.42 1715.09 1230.63 1718.36 1209.54 1731.14 C 1185.38 1745.78 1170.09 1772.94 1160.6 1798.79 L 1152.11 1784.97 L 1148.14 1778.12 C 1153.42 1755.72 1158.55 1731.99 1167.36 1710.67 z"/>
<path transform="translate(0,0)" fill="rgb(167,146,136)" d="M 1167.36 1710.67 C 1171.31 1712.11 1181.13 1707.38 1185.92 1706.66 C 1213.62 1702.49 1241.39 1699.91 1269.41 1700.12 C 1270.92 1707.03 1272.53 1713.92 1274.25 1720.78 C 1250.42 1715.09 1230.63 1718.36 1209.54 1731.14 C 1185.38 1745.78 1170.09 1772.94 1160.6 1798.79 L 1152.11 1784.97 L 1148.14 1778.12 C 1153.42 1755.72 1158.55 1731.99 1167.36 1710.67 z"/>
<path transform="translate(0,0)" fill="rgb(167,146,136)" d="M 1304.95 1684.11 C 1324.74 1658.15 1342.63 1647.54 1374.65 1641.24 C 1395.23 1663.59 1419.19 1682.95 1440.13 1705.05 C 1414.71 1734.57 1389.35 1764.5 1355.3 1784.5 C 1345.57 1776.04 1336.32 1766.81 1324.97 1760.53 C 1318.46 1735.07 1312.41 1709.31 1304.95 1684.11 z"/>
<path transform="translate(0,0)" fill="rgb(252,236,203)" d="M 1489.81 1283.66 C 1490.13 1283.79 1490.46 1283.88 1490.75 1284.06 C 1502.32 1291.18 1518.22 1365.42 1521.11 1379.92 C 1477.4 1386.35 1433.82 1397.51 1390.77 1407.33 C 1370.71 1411.91 1350.4 1415.56 1330.25 1419.74 C 1324.54 1421.15 1310.32 1426.11 1305.35 1423.82 C 1306.24 1421.37 1307.97 1420.09 1309.92 1418.47 C 1323.86 1406.96 1339.95 1397.2 1354.38 1386.15 C 1399.02 1351.32 1444.17 1317.15 1489.81 1283.66 z"/>
<path transform="translate(0,0)" fill="rgb(252,236,203)" d="M 1525.09 1415.28 C 1529.82 1422.48 1526.18 1477.34 1524.84 1488.77 C 1523.52 1499.95 1521.41 1511.04 1519.41 1522.12 C 1468.81 1507.23 1417.79 1493.81 1367.02 1479.5 C 1351 1474.66 1334.78 1470.49 1318.41 1467 C 1348.32 1460.84 1377.29 1452.09 1406.82 1444.4 C 1446.16 1434.38 1485.59 1424.67 1525.09 1415.28 z"/>
<path transform="translate(0,0)" fill="rgb(252,236,203)" d="M 608.184 1465.8 C 609.536 1466.34 609.934 1466.93 610.884 1468 C 610.848 1468.29 610.853 1468.59 610.776 1468.87 C 609.899 1472.12 587.558 1496.26 583.118 1501.54 C 569.978 1517.15 556.778 1532.8 544.124 1548.8 C 537.913 1556.66 532.35 1566.47 524.881 1573.13 C 515.027 1581.91 489.155 1594.02 476.583 1600.98 C 453.145 1613.95 430.028 1627.69 406.408 1640.3 L 400.072 1628.19 C 393.743 1615.16 387.703 1602 381.954 1588.71 C 394.361 1581.58 407.78 1575.75 420.459 1569.05 C 448.807 1554.08 476.879 1538.47 505.095 1523.23 C 539.753 1504.52 573.153 1483.92 608.184 1465.8 z"/>
<path transform="translate(0,0)" fill="rgb(252,236,203)" d="M 746.563 1559.8 L 748.598 1560.31 C 755.702 1569.64 761.069 1581.64 766.818 1591.97 C 781.891 1618.64 796.229 1645.71 809.814 1673.16 C 807.429 1670.56 805.037 1667.95 802.478 1665.52 C 791.049 1654.68 773.265 1643.75 757.015 1644.79 C 745.613 1645.52 736.203 1641.15 725.077 1639.35 C 741.301 1649.19 756.014 1658.84 769.545 1672.31 L 774.2 1677.13 C 758.355 1688.97 745.932 1701.7 734.951 1718.2 C 717.12 1714.39 698.952 1711.65 681.049 1708.03 C 683.891 1698.34 684.923 1687.25 686.636 1677.26 C 691.999 1645.97 695.822 1614.59 700.455 1583.21 C 715.027 1574.19 731.101 1567.17 746.563 1559.8 z"/>
<path transform="translate(0,0)" fill="rgb(252,236,203)" d="M 675.317 1330.29 C 687.063 1329.84 697.509 1331.92 707.336 1338.74 C 719.045 1346.93 727.035 1359.42 729.557 1373.48 C 732.507 1389.47 728.869 1405.96 719.469 1419.22 C 710.264 1432.23 697.885 1439.23 682.384 1441.89 C 670.405 1442.22 659.494 1439.43 649.586 1432.45 C 637.197 1423.59 628.966 1410.06 626.8 1394.99 C 624.571 1379.14 629.776 1363.39 639.309 1350.77 C 648.538 1338.54 660.389 1332.49 675.317 1330.29 z"/>
<path transform="translate(0,0)" fill="rgb(50,48,74)" d="M 669.215 1340.08 C 695.51 1336.18 719.987 1354.33 723.901 1380.62 C 727.816 1406.92 709.688 1431.41 683.4 1435.34 C 657.081 1439.28 632.555 1421.13 628.636 1394.81 C 624.716 1368.49 642.89 1343.97 669.215 1340.08 z"/>
<path transform="translate(0,0)" fill="rgb(252,236,203)" d="M 1475.81 1142.69 C 1484.63 1149.03 1492.94 1159.62 1499.88 1167.95 C 1575.72 1259.01 1607.15 1381.07 1596.3 1498.09 C 1585.46 1613.39 1529.63 1719.77 1440.89 1794.19 C 1440.81 1794.25 1440.74 1794.34 1440.64 1794.38 C 1440.17 1794.55 1439.69 1794.67 1439.21 1794.82 L 1438.42 1795.79 L 1437.58 1795.71 C 1438.69 1795.25 1438.14 1795.52 1439.24 1794.87 C 1438.94 1793.08 1447.55 1786.13 1449.38 1784.44 C 1461.74 1773.02 1472.94 1761.18 1483.56 1748.13 C 1539.52 1679.39 1572.59 1596.52 1582.81 1508.59 C 1592.75 1426.26 1580.83 1342.76 1548.23 1266.5 C 1532.96 1230.68 1512.64 1197.24 1487.89 1167.19 C 1484.84 1163.43 1471.45 1149.68 1471.76 1145.84 L 1475.81 1142.69 z"/>
<path transform="translate(0,0)" fill="rgb(252,236,203)" d="M 1534.96 961.046 C 1539.67 961.034 1544.35 961.088 1548.93 962.351 C 1568.45 967.747 1583.22 985.61 1592.45 1002.78 C 1600.15 1017.08 1607.12 1037.12 1601.86 1053.25 C 1599.23 1061.29 1594.49 1066.23 1586.99 1069.88 C 1581.26 1070.2 1575.82 1069.13 1570.39 1067.35 C 1550.78 1060.89 1535.34 1042.49 1526.46 1024.51 C 1519.83 1011.1 1514.26 991.391 1519.75 976.816 C 1522.57 969.31 1527.86 964.465 1534.96 961.046 z"/>
<path transform="translate(0,0)" fill="rgb(50,48,74)" d="M 1542.18 974.09 C 1546.98 974.098 1551.94 975.287 1556.33 977.184 C 1574.05 984.84 1586.92 1002 1594.13 1019.39 C 1598.37 1029.64 1602.11 1043.35 1597.4 1053.94 C 1594.72 1059.98 1590.93 1062.94 1584.93 1065.33 C 1578.96 1065.02 1572.65 1062.76 1567.28 1060.19 C 1550.12 1051.98 1536.98 1034.63 1531 1016.83 C 1527.72 1007.09 1525.71 993.414 1530.62 984.057 C 1533.4 978.757 1536.46 975.828 1542.18 974.09 z"/>
<path transform="translate(0,0)" fill="rgb(252,236,203)" d="M 1265.89 1539.67 C 1282.05 1550.11 1295.83 1564.91 1309.8 1578.09 C 1331.77 1598.81 1353.73 1619.47 1374.65 1641.24 C 1342.63 1647.54 1324.74 1658.15 1304.95 1684.11 C 1301.12 1668.12 1296.22 1652.37 1292.06 1636.45 C 1283.6 1604.1 1275.46 1571.73 1265.89 1539.67 z"/>
<path transform="translate(0,0)" fill="rgb(209,188,160)" d="M 648.61 1609.89 L 649.813 1610.04 C 651.888 1614.25 635.011 1687.31 632.938 1698.77 C 603.156 1693.07 573.305 1687.74 543.392 1682.77 L 520.211 1679.03 C 533.338 1670.74 547.819 1664.02 561.432 1656.47 C 590.27 1640.49 618.897 1624.22 648.61 1609.89 z"/>
<path transform="translate(0,0)" fill="rgb(252,236,203)" d="M 1498.19 987.867 L 1500.3 988.309 L 1501.35 990.38 C 1501.21 992.746 1501.17 994.324 1500.02 996.464 C 1498.99 998.393 1496.67 1000.34 1494.78 1001.36 C 1486.94 1005.6 1468.35 1011.71 1458.62 1015.88 C 1419.65 1032.9 1380.33 1049.11 1340.69 1064.5 L 1216.86 1113.47 C 1195.18 1121.84 1173.43 1130.76 1151.26 1137.75 L 1146.25 1125.02 C 1193.37 1109 1239.77 1090.64 1286.16 1072.64 C 1357.24 1045.41 1427.93 1017.15 1498.19 987.867 z"/>
<path transform="translate(0,0)" fill="rgb(252,236,203)" d="M 691.507 1290.31 C 700.404 1289.5 709.705 1290.29 718.475 1291.92 C 743.367 1296.56 763.741 1310.81 777.733 1331.79 C 790.63 1351.13 794.139 1373.78 789.466 1396.4 C 784.176 1422 769.323 1446.87 747.262 1461.49 C 752.648 1454.83 757.699 1448.19 761.99 1440.76 C 772.69 1417.18 774.614 1390.55 767.416 1365.68 C 760.841 1342.55 743.791 1320.61 722.536 1309.16 C 694.027 1293.81 669.783 1300.89 640.672 1309.73 C 656.441 1299.6 672.935 1293.16 691.507 1290.31 z"/>
<path transform="translate(0,0)" fill="rgb(252,236,203)" d="M 1305.64 1232.98 C 1305.97 1238.98 1251.61 1349.28 1245.23 1360.73 C 1243.15 1364.48 1242.05 1365.84 1237.85 1367.05 C 1235.1 1362.92 1236.08 1282.34 1236 1272.11 C 1258.76 1258.29 1282.79 1246.67 1305.64 1232.98 z"/>
<path transform="translate(0,0)" fill="rgb(252,236,203)" d="M 686.729 935.206 L 687.39 935.874 C 689.567 946.117 689.64 957.694 690.551 968.173 C 692.391 990.009 694.342 1011.84 696.403 1033.65 C 702.082 1089.12 707.051 1144.65 711.311 1200.24 C 713.321 1224.06 717.819 1253.13 717.477 1276.54 C 715.314 1278.41 713.731 1277.87 710.972 1277.95 C 707.079 1258.65 706.345 1237.52 704.101 1217.84 C 697.714 1161.81 692.99 1105.77 687.791 1049.64 C 686.55 1036.24 676.872 946.67 678.524 938.672 C 680.461 936.198 683.823 935.921 686.729 935.206 z"/>
<path transform="translate(0,0)" fill="rgb(167,146,136)" d="M 1249.77 1719.01 C 1254.5 1718.47 1259.4 1720.22 1263.78 1721.91 C 1276.55 1726.84 1281.31 1740 1286.46 1751.5 C 1254.85 1751.89 1227.26 1768.28 1205.47 1790.25 C 1200.82 1796.22 1196.41 1803.54 1189.13 1806.4 C 1186.38 1806.06 1186.34 1806.07 1184.42 1804.09 C 1184.55 1802.86 1184.67 1801.76 1185 1800.57 C 1195.99 1761.27 1214.15 1737.71 1249.77 1719.01 z"/>
<path transform="translate(0,0)" fill="rgb(252,236,203)" d="M 461.315 1079.1 C 472.491 1091.74 484.679 1103.63 496.069 1116.12 C 521.66 1144.2 546.772 1172.7 572.725 1200.44 C 581.756 1210.09 651.742 1282.63 654.333 1288.84 C 654.993 1290.42 654.655 1290.09 653.768 1291.81 L 649.284 1293.14 L 644.292 1294.63 C 643.78 1294.49 643.217 1294.46 642.757 1294.19 C 639.19 1292.12 621.589 1269.88 617.398 1265.21 L 511.426 1146.52 C 493.571 1126.53 472.85 1106.67 457.342 1084.9 C 457.703 1082.18 459.486 1081.07 461.315 1079.1 z"/>
<path transform="translate(0,0)" fill="rgb(252,236,203)" d="M 920.477 996.498 C 922.547 997.754 924.084 998.874 925.738 1000.65 C 925.833 1001.96 925.78 1002.97 925.19 1004.18 C 904.95 1045.68 881.516 1085.94 860.147 1126.91 C 830.179 1184.36 801.49 1243.7 767.481 1298.88 C 764.822 1297.61 762.857 1297.36 761.515 1294.63 C 764.371 1288.22 768.653 1282.16 772.094 1276 C 779.041 1263.36 785.882 1250.66 792.616 1237.91 L 883.899 1066.99 C 896.223 1043.57 909.221 1020.46 920.477 996.498 z"/>
<path transform="translate(0,0)" fill="rgb(252,236,203)" d="M 802.116 1433.72 C 803.939 1434.02 805.327 1434.44 807.043 1435.18 C 830.2 1445.18 1065.8 1581.62 1069.87 1588.09 C 1070.23 1588.66 1070.35 1589.35 1070.58 1589.98 L 1067.55 1595.42 L 1066.54 1595.53 C 1009.98 1556.71 948.6 1524.45 889.152 1490.31 C 874.019 1481.62 859.324 1472.18 844.394 1463.15 C 835.534 1457.79 806.718 1442.62 801.044 1436.56 L 802.116 1433.72 z"/>
<path transform="translate(0,0)" fill="rgb(252,236,203)" d="M 71.9688 1510.22 C 77.3968 1511.19 82.2014 1513.58 87.2035 1515.81 C 70.2867 1537.44 62.4786 1564.75 56.4333 1591.11 C 54.7414 1587.27 52.7799 1583.53 50.9399 1579.76 C 44.0349 1566.51 35.3996 1553.99 26.1761 1542.26 C 38.7414 1528.16 52.8396 1514.29 71.9688 1510.22 z"/>
<path transform="translate(0,0)" fill="rgb(252,236,203)" d="M 751.604 1493.69 C 767.573 1505.83 830.433 1628.25 842.757 1654.19 C 855.3 1680.52 866.94 1707.28 877.659 1734.4 C 866.659 1726.71 761.225 1519.48 751.604 1493.69 z"/>
<path transform="translate(0,0)" fill="rgb(167,146,136)" d="M 1563.9 1877.73 C 1570.13 1879.12 1575.89 1882.67 1581.4 1885.78 C 1600.63 1896.65 1615.79 1908.9 1628 1927.39 C 1614.14 1928.72 1599.86 1928.23 1585.9 1929.04 C 1593.41 1922.93 1602.06 1918.07 1608.43 1910.72 C 1600.83 1913.29 1593.74 1916.32 1586.51 1919.8 L 1575.81 1926.2 C 1567.72 1920.92 1560.53 1920.05 1551.15 1918.91 C 1559.69 1909.19 1569.77 1902.6 1580.32 1895.29 C 1572.25 1896.73 1563.67 1896.05 1556.06 1899.53 C 1550.28 1902.17 1544.56 1912.18 1538.7 1912.74 C 1538.82 1903.76 1557.28 1884.19 1563.9 1877.73 z"/>
<path transform="translate(0,0)" fill="rgb(252,236,203)" d="M 574.71 1391.45 C 577.526 1391.35 578.513 1390.79 580.702 1392.68 C 581.662 1395.59 581.733 1395.78 580.804 1398.69 C 580.015 1399.19 579.337 1399.94 578.436 1400.2 C 573.241 1401.68 564.707 1400.97 559.063 1401.26 C 544.221 1402.02 529.387 1402.92 514.563 1403.98 C 461.805 1408.07 409.071 1412.46 356.363 1417.16 C 353.576 1417.25 351.94 1417.68 349.461 1416.32 C 348.185 1413.84 347.747 1413.5 348.18 1410.79 C 352.68 1406.77 549.589 1393.34 574.71 1391.45 z"/>
<path transform="translate(0,0)" fill="rgb(252,236,203)" d="M 1481.71 1116.08 L 1482.06 1116.25 L 1482.17 1117.04 C 1469.87 1125.04 1456.87 1131.94 1444.16 1139.26 C 1417.89 1154.39 1391.56 1169.17 1364.92 1183.64 C 1352.24 1190.53 1339.94 1198.11 1327.26 1204.99 C 1281.95 1229.37 1236.34 1253.16 1190.43 1276.38 C 1189.08 1274.49 1189.33 1274.23 1189.19 1272.03 C 1191.16 1269.24 1193.9 1267.69 1196.83 1266.1 C 1224.02 1251.34 1253.06 1238.09 1280.61 1223.21 C 1347.39 1187.17 1413.56 1149.51 1481.71 1116.08 z"/>
<path transform="translate(0,0)" fill="rgb(252,236,203)" d="M 375.901 1236.93 C 383.016 1236.7 391.654 1241.09 398.338 1243.67 C 431.27 1256.42 463.493 1271.29 496.052 1284.99 C 512.951 1292.1 593.229 1322.9 601.82 1330.68 L 601.628 1333.47 C 597.903 1334.78 596.677 1334.78 592.994 1333.51 C 562.056 1322.8 531.607 1307.74 501.383 1295.01 C 473.886 1283.58 446.556 1271.75 419.402 1259.53 C 406.449 1253.75 392.557 1248.43 380.195 1241.54 C 377.921 1240.27 377.014 1239.25 375.901 1236.93 z"/>
<path transform="translate(0,0)" fill="rgb(167,146,136)" d="M 1602.84 1856.49 C 1604 1856.9 1605.16 1857.33 1606.31 1857.77 C 1635.43 1868.86 1646.83 1897.71 1658.78 1924.19 L 1657.91 1925.64 C 1656.1 1922.09 1654.25 1918.7 1651.59 1915.7 C 1635.06 1897.03 1592.93 1876.13 1568.24 1874.59 C 1579.18 1864.95 1588.56 1859.78 1602.84 1856.49 z"/>
<path transform="translate(0,0)" fill="rgb(252,236,203)" d="M 1291.68 1516.48 C 1299.03 1520.71 1450.9 1667.57 1458.69 1678.94 L 1457.62 1682.57 C 1455.89 1682.95 1456.48 1683 1454.92 1682.74 C 1451.75 1682.19 1422.7 1652.15 1418.68 1648.21 L 1327.9 1560.36 C 1318.11 1550.94 1298.56 1535.71 1291.84 1524.58 C 1290.32 1522.07 1291.17 1519.18 1291.68 1516.48 z"/>
<path transform="translate(0,0)" fill="rgb(252,236,203)" d="M 776.912 1680.94 C 790.383 1695.67 799.634 1715.09 807.121 1733.46 C 796.85 1730.79 786.254 1729.16 775.82 1727.24 C 772.897 1721 769.368 1715.14 765.872 1709.21 C 764.69 1707.81 763.412 1706.5 762.146 1705.18 L 760.403 1705.2 C 758.573 1710.85 764.354 1720.49 766.722 1725.57 C 756.708 1723.56 746.789 1721.43 736.888 1718.9 C 748.776 1704.84 761.757 1691.46 776.912 1680.94 z"/>
<path transform="translate(0,0)" fill="rgb(252,236,203)" d="M 1018.64 1672.51 L 1019.45 1673.39 C 1013.14 1682.74 981.405 1716.04 972.306 1721.89 C 971.976 1722.11 970.29 1723.07 970.072 1723.09 C 968.203 1723.28 960.707 1718.06 958.432 1717.18 C 955.497 1716.04 952.068 1715.48 948.992 1714.81 C 952.689 1712.88 962.576 1709.62 964.489 1706.49 L 962.205 1705.27 C 951.205 1706.12 943.02 1712.94 931.845 1714.02 C 956.689 1692.53 985.158 1674.5 1018.64 1672.51 z"/>
<path transform="translate(0,0)" fill="rgb(167,146,136)" d="M 1793.12 1937.9 C 1794.19 1938.58 1794.27 1938.57 1795.3 1939.64 C 1809.18 1954.14 1815.22 2001 1816.14 2020.95 C 1813.76 2020.15 1811.14 2019.4 1808.9 2018.29 C 1806.04 2016.88 1805.52 2014.48 1804.43 2011.75 C 1796.91 1991.46 1784.95 1974.91 1770.09 1959.41 C 1775.16 1953.45 1784.91 1948.44 1788.71 1942.28 C 1789.94 1940.29 1791.28 1939.3 1793.12 1937.9 z"/>
<path transform="translate(0,0)" fill="rgb(252,236,203)" d="M 1476.69 1259.79 C 1477.56 1260.6 1478 1261.55 1478.58 1262.56 C 1477.88 1265.24 1475.71 1266.86 1473.66 1268.56 C 1466.64 1274.39 1458.8 1279.48 1451.45 1284.91 C 1430.26 1300.55 1408.73 1315.51 1387.15 1330.61 C 1354.55 1353.43 1322.74 1377.43 1289.41 1399.19 L 1287.21 1397.99 L 1287.1 1396.06 C 1295.87 1382.87 1450.22 1278.24 1476.69 1259.79 z"/>
<path transform="translate(0,0)" fill="rgb(252,236,203)" d="M 345.858 1259.67 C 349.303 1260.37 352.451 1260.77 355.371 1262.82 C 356.558 1266.5 344.079 1314.32 342.706 1321.69 C 337.212 1351.19 335.226 1382.13 335.113 1412.1 C 332.069 1412.12 327.86 1412.72 325.398 1410.8 C 322.991 1402.64 324.904 1391.86 325.532 1383.47 C 328.694 1341.22 336.024 1300.87 345.858 1259.67 z"/>
<path transform="translate(0,0)" fill="rgb(252,236,203)" d="M 1105.3 1360.85 L 1106.29 1361.09 C 1110.15 1368.98 1107.36 1399.35 1106.82 1409.67 C 1093.29 1405.4 1079.47 1401.87 1065.79 1398.11 L 1047.21 1392.82 C 1065.22 1380.83 1086.17 1371.15 1105.3 1360.85 z"/>
<path transform="translate(0,0)" fill="rgb(252,236,203)" d="M 1312.2 1474.39 C 1330.29 1477.17 1348.68 1483.69 1366.48 1488.22 C 1399.03 1496.5 1431.45 1505.31 1463.71 1514.65 C 1480.91 1519.48 1499.23 1523.53 1515.86 1530.01 C 1517.47 1532.16 1516.77 1534.04 1516.63 1536.65 C 1493.92 1532.14 1468.08 1522.64 1445.23 1516.54 C 1401.26 1504.81 1356.55 1494.86 1313.14 1481.19 C 1311.46 1478.8 1312.09 1477.22 1312.2 1474.39 z"/>
<path transform="translate(0,0)" fill="rgb(252,236,203)" d="M 1519.39 1388.4 C 1520.36 1388.48 1521.22 1389.27 1522.03 1389.78 L 1521.5 1392.18 C 1513.67 1397.56 1335.47 1434.63 1312.04 1439.48 C 1310.22 1437.99 1310.05 1437.49 1309.19 1435.27 L 1310.18 1433.22 C 1311.39 1432.45 1312.31 1431.86 1313.69 1431.43 C 1319.86 1429.49 1327.25 1429.02 1333.7 1427.75 C 1348.13 1424.85 1362.52 1421.76 1376.87 1418.48 C 1423.94 1408.1 1471.73 1395.57 1519.39 1388.4 z"/>
<path transform="translate(0,0)" fill="rgb(252,236,203)" d="M 324.062 1437.09 C 326.661 1436.86 329.213 1436.6 331.817 1436.91 C 334.056 1437.17 333.163 1436.71 334.608 1438.51 C 336.057 1456.34 336.894 1474.27 339.479 1491.98 C 342.252 1510.98 347.036 1530.19 351.8 1548.76 C 353.117 1553.9 357.459 1564.55 354.817 1569.16 C 352.118 1569.91 350.132 1570.38 347.292 1570.3 C 339.046 1562.84 328.346 1486.6 326.608 1471.24 C 325.325 1459.9 324.725 1448.48 324.062 1437.09 z"/>
<path transform="translate(0,0)" fill="rgb(209,188,160)" d="M 1285.64 1757.26 C 1288.53 1760.23 1299.35 1807.75 1301.38 1815.7 L 1291.25 1820.14 C 1286.86 1814.06 1269.56 1794.95 1267.92 1789.93 C 1275.1 1786.82 1282.89 1784.62 1290.26 1781.93 C 1287.07 1780.9 1283.91 1779.65 1280.76 1778.51 C 1272.84 1780.39 1265.04 1782.23 1257.39 1785.04 C 1253.75 1782.18 1250.36 1779.76 1246.26 1777.61 C 1258.65 1767.27 1270.09 1761.43 1285.64 1757.26 z"/>
<path transform="translate(0,0)" fill="rgb(252,236,203)" d="M 1350.82 1211.84 C 1351.72 1221.62 1293.53 1339.37 1286.08 1355.06 C 1282.65 1362.27 1278.46 1375.29 1274.06 1381.19 C 1273.14 1382.43 1271.29 1382.06 1269.84 1382.18 C 1268.82 1380.9 1268.35 1379.96 1267.88 1378.39 C 1280.71 1347.63 1296.43 1318.08 1310.98 1288.12 C 1320.41 1268.69 1336.58 1226.04 1350.82 1211.84 z"/>
<path transform="translate(0,0)" fill="rgb(252,236,203)" d="M 1074.31 1322.22 L 1074.6 1322.15 C 1036.3 1332.62 996.539 1339.67 957.761 1348.38 C 909.442 1359.23 860.963 1371.65 812.324 1380.77 C 811.144 1378.76 811.117 1378.06 810.949 1375.8 L 812.584 1373.91 C 822.409 1369.94 835.442 1369 845.974 1366.89 L 924.918 1351.1 L 1023.96 1330.77 C 1040.22 1327.54 1057.77 1322.75 1074.31 1322.22 z"/>
<path transform="translate(0,0)" fill="rgb(252,236,203)" d="M 424.271 1098.62 C 425.729 1100.2 426.62 1101.73 427.618 1103.64 C 427.267 1109.49 411.47 1131.2 407.539 1137.94 C 390.626 1166.98 377.855 1196.93 366.362 1228.44 L 364.54 1228.97 C 362.079 1227.51 359.915 1226.92 358.785 1224.22 C 368.522 1188.97 402.342 1128.41 424.271 1098.62 z"/>
<path transform="translate(0,0)" fill="rgb(252,236,203)" d="M 877.654 1272.11 C 892.501 1261.25 995.389 1184.87 1002.25 1183.91 L 1002.77 1183.52 L 1001.83 1183.6 C 1001.53 1184.18 1001.3 1184.8 1000.94 1185.34 C 997.21 1190.97 887.31 1272.38 876.194 1278.75 C 876.095 1278.9 876.024 1279.06 875.897 1279.18 C 868.517 1286.21 803.378 1333.45 797.154 1333.95 C 800.164 1327.4 866.713 1279.86 877.654 1272.11 z"/>
<path transform="translate(0,0)" fill="rgb(252,236,203)" d="M 1218.04 1401.15 C 1227.29 1401.12 1238.27 1406.25 1245.66 1411.65 C 1259.52 1421.77 1268.3 1437.67 1270.67 1454.56 C 1273.12 1472.06 1269.02 1489.88 1258.15 1503.94 C 1246.34 1519.2 1231.93 1526.38 1212.97 1528.95 C 1210.77 1529.24 1208.56 1529.36 1206.36 1529.53 L 1205.83 1529.06 C 1218.53 1525.21 1231.74 1522.94 1242.13 1514.18 C 1255.29 1503.08 1262.22 1487.14 1263.37 1470.15 C 1264.99 1446.34 1255.12 1424.01 1234.31 1411.56 C 1229.95 1408.95 1221.97 1406.2 1218.89 1402.31 C 1218.6 1401.93 1218.32 1401.54 1218.04 1401.15 z"/>
<path transform="translate(0,0)" fill="rgb(167,146,136)" d="M 1100.64 1726.8 C 1108.2 1736.56 1112.59 1750.91 1116.74 1762.44 L 1110.04 1789.57 L 1105.84 1781.96 C 1098.79 1770.49 1090.68 1761.35 1081.46 1751.65 C 1088.27 1743.78 1094.34 1735.1 1100.64 1726.8 z"/>
<path transform="translate(0,0)" fill="rgb(252,236,203)" d="M 1256.9 1541.7 C 1259.96 1543.87 1261.13 1549.75 1262.22 1553.24 C 1268.88 1574.61 1273.7 1596.78 1279.33 1618.46 C 1291.18 1664.53 1303.42 1710.5 1316.05 1756.37 C 1314.01 1755.78 1312.36 1754.97 1310.5 1753.96 C 1305.06 1739.92 1302.14 1723.76 1298.21 1709.17 C 1288.12 1671.7 1278.71 1634.2 1269.23 1596.59 C 1265.58 1582.15 1256.56 1555.52 1256.9 1541.7 z"/>
<path transform="translate(0,0)" fill="rgb(252,236,203)" d="M 597.204 1446.82 C 599.041 1447.75 599.238 1447.89 600.277 1449.66 C 598.96 1452 597.772 1452.56 595.436 1453.91 C 582.032 1461.65 567.991 1468.6 554.402 1476.04 C 494.391 1508.92 433.488 1540.22 374.586 1575.09 L 372.859 1575.37 L 373.008 1574.11 C 382.654 1565.47 412.425 1550.39 425.692 1542.76 C 482.477 1510.1 540.513 1479.56 597.204 1446.82 z"/>
<path transform="translate(0,0)" fill="rgb(252,236,203)" d="M 606.465 949.904 L 608.351 950.14 C 608.021 950.511 561.363 974.935 555.114 979.067 C 516.255 1004.76 481.632 1038.37 451.811 1073.99 C 450.467 1072.86 449.372 1072.04 448.569 1070.44 C 448.063 1069.42 448.036 1069.56 448.468 1068.56 C 451.932 1060.57 462.387 1051.49 468.514 1045.1 C 511.592 1000.17 549.398 974.566 606.465 949.904 z"/>
<path transform="translate(0,0)" fill="rgb(252,236,203)" d="M 1276 1060.52 L 1276.8 1061.12 C 1269.56 1066.27 1253.86 1070.11 1245.21 1073.46 C 1211.07 1086.67 1177.01 1100.6 1142.5 1112.8 L 1142.05 1112.63 L 1141.77 1111.59 C 1152.5 1104.45 1165.45 1099.11 1177.07 1093.6 C 1209.48 1078.24 1239.64 1063.57 1276 1060.52 z"/>
<path transform="translate(0,0)" fill="rgb(252,236,203)" d="M 797.622 1672 C 798.453 1672.33 798.667 1672.38 799.508 1672.96 C 810.71 1680.71 838.749 1724.52 840.362 1738.3 C 838.009 1739.57 835.569 1739.11 832.946 1739.06 C 831.567 1738.75 828.537 1738.17 827.625 1736.99 C 824.321 1732.69 821.789 1724.71 819.35 1719.68 C 811.13 1702.7 802.209 1690.73 788.801 1677.47 L 797.622 1672 z"/>
<path transform="translate(0,0)" fill="rgb(209,188,160)" d="M 1396.44 1839.85 C 1397.3 1839.95 1397.44 1839.87 1398.22 1840.35 C 1406.08 1845.25 1416.61 1868.74 1419.67 1877.45 C 1412.49 1873.6 1404.76 1870.65 1397.25 1867.47 C 1386.1 1862.97 1375.06 1858.4 1363.5 1855.03 C 1374.78 1850.44 1385.62 1845.42 1396.44 1839.85 z"/>
<path transform="translate(0,0)" fill="rgb(252,236,203)" d="M 1220.51 1044.57 C 1224.05 1044.3 1227.92 1043.52 1231.32 1044.61 C 1221.56 1049.15 1196.51 1052.03 1184.45 1054.67 C 1163.3 1059.5 1142.25 1064.82 1121.34 1070.61 C 1119.38 1071.1 1117.08 1071.98 1115.08 1071.4 C 1113.85 1071.04 1113.59 1069.75 1113.03 1068.71 L 1113.84 1066.89 C 1129.23 1055.36 1198.16 1045.83 1220.51 1044.57 z"/>
<path transform="translate(0,0)" fill="rgb(252,236,203)" d="M 184.763 1585.7 C 194.073 1594.46 202.073 1606.12 209.9 1616.22 L 198.64 1630.35 C 197.945 1631.34 198.449 1630.87 196.87 1631.41 C 189.295 1622.64 183.133 1612.56 175.615 1603.61 C 178.361 1597.44 181.462 1591.59 184.763 1585.7 z"/>
<path transform="translate(0,0)" fill="rgb(252,236,203)" d="M 204.286 1559.86 C 210.94 1567.86 223.117 1591.53 222.479 1602.17 C 222.35 1604.31 221.869 1604.64 220.382 1605.98 C 217.375 1605.46 216.819 1604.31 214.719 1602.17 C 206.52 1594.07 197.903 1586.5 189.233 1578.91 C 193.247 1571.58 198.545 1565.85 204.286 1559.86 z"/>
<path transform="translate(0,0)" fill="rgb(252,236,203)" d="M 1110.29 1713.09 C 1126.82 1688.76 1139.37 1663.52 1153.24 1637.71 C 1147.24 1662.61 1139.12 1687.32 1131.96 1711.92 C 1124.69 1712.05 1117.53 1712.43 1110.29 1713.09 z"/>
<path transform="translate(0,0)" fill="rgb(252,236,203)" d="M 1246.68 1385.92 C 1248.47 1386.06 1250.03 1386.46 1251.7 1387.08 C 1269.49 1393.73 1282.7 1407.04 1290.42 1424.23 C 1298 1441.07 1299.95 1460.98 1293.42 1478.42 L 1292.76 1478.65 C 1291.18 1475.13 1293.15 1467 1292.98 1462.65 C 1292.56 1450.64 1289.48 1438.86 1283.94 1428.19 C 1280.53 1421.56 1276.29 1415.39 1271.34 1409.82 C 1266.44 1404.29 1247.91 1390.94 1246.68 1385.92 z"/>
<path transform="translate(0,0)" fill="rgb(252,236,203)" d="M 16.579 1559.52 C 19.3293 1561.71 20.8159 1565.7 22.2781 1568.83 C 26.5262 1577.91 45.6033 1625.67 42.8493 1633.36 L 40.6703 1632.55 C 30.9294 1611.94 20.3503 1592.2 8.90168 1572.49 C 11.0247 1567.88 13.8032 1563.75 16.579 1559.52 z"/>
<path transform="translate(0,0)" fill="rgb(252,236,203)" d="M 366.064 1594.93 C 366.227 1594.95 366.402 1594.92 366.552 1594.99 C 367.138 1595.25 367.83 1595.41 368.248 1595.89 C 370.411 1598.41 373.968 1611.02 375.419 1614.8 C 379.943 1626.6 385.315 1637.36 390.48 1648.82 L 389.922 1650.07 L 385.116 1650.72 L 379.994 1649.69 C 370.896 1642.03 361.024 1611 357.412 1598.81 L 366.064 1594.93 z"/>
<path transform="translate(0,0)" fill="rgb(209,188,160)" d="M 1621.33 1935.33 C 1624.49 1934.81 1627.97 1934.87 1631.18 1934.68 C 1637.11 1945.11 1642.49 1955.43 1646.28 1966.84 L 1626.22 1960.61 L 1625.07 1959.82 L 1625.14 1959.05 C 1627.02 1959.09 1628.9 1959.08 1630.78 1959.06 L 1630.58 1958.03 C 1622.5 1949.98 1610.3 1944.52 1600.38 1938.93 L 1621.33 1935.33 z"/>
<path transform="translate(0,0)" fill="rgb(252,236,203)" d="M 686.767 1588.58 L 687.831 1589.59 C 688.549 1596.31 672.358 1695.98 669.332 1706.34 L 667.41 1704.3 C 666.943 1702.03 667.023 1700.1 667.242 1697.81 C 668.27 1687.07 679.792 1597.87 681.536 1593.86 C 682.431 1591.81 685.065 1589.98 686.767 1588.58 z"/>
<path transform="translate(0,0)" fill="rgb(167,146,136)" d="M 1131.96 1711.92 C 1128.31 1724.22 1125.87 1736.9 1123.14 1749.43 C 1117.09 1740.01 1110.8 1731.17 1102.99 1723.12 L 1110.29 1713.09 C 1117.53 1712.43 1124.69 1712.05 1131.96 1711.92 z"/>
<path transform="translate(0,0)" fill="rgb(252,236,203)" d="M 513.856 1590.16 C 513.479 1591.12 513.4 1591.4 512.968 1592.25 C 511.091 1595.94 508.331 1599 505.045 1601.49 C 494.071 1609.79 425.503 1647.49 412.64 1651.42 C 412.553 1650.65 412.797 1649.7 412.904 1648.94 C 421.793 1641.79 434.16 1636.62 444.241 1631.01 C 467.82 1617.91 491.372 1605.1 513.856 1590.16 z"/>
<path transform="translate(0,0)" fill="rgb(252,236,203)" d="M 178.425 1543.98 C 185.961 1543.7 191.712 1548.37 197.874 1552.18 C 191.764 1557.37 185.823 1562.76 180.061 1568.34 C 178.666 1569.65 179.553 1569.17 177.234 1569.45 C 172.171 1565.24 167.967 1559.49 163.718 1554.46 C 168.399 1550.46 173.207 1547.23 178.425 1543.98 z"/>
<path transform="translate(0,0)" fill="rgb(167,146,136)" d="M 1529.99 1874.06 C 1536.11 1875.28 1542.38 1876.07 1548.55 1877.04 C 1535.58 1886.74 1526.38 1896.98 1517.02 1910.19 C 1513.93 1915.61 1510.68 1920.42 1506.73 1925.27 C 1511.63 1907.49 1520.6 1889.8 1529.99 1874.06 z"/>
<path transform="translate(0,0)" fill="rgb(252,236,203)" d="M 1050.42 1158.8 L 1052.02 1159.08 C 1054.88 1162.2 1056.37 1166.13 1058.13 1169.93 C 1045.11 1174.58 1032.15 1179.37 1019.24 1184.31 L 1015.07 1185.49 L 1014.53 1184.59 C 1022.17 1173.88 1038.99 1165.37 1050.42 1158.8 z"/>
<path transform="translate(0,0)" fill="rgb(252,236,203)" d="M 942.668 1718.93 C 951.625 1719.8 959.997 1722.16 968.519 1724.95 L 966.12 1727.56 C 964.789 1729.02 963.44 1730.73 961.873 1731.94 C 959.245 1733.96 957.37 1733.3 954.406 1732.82 C 945.804 1732.85 937.598 1735.03 929.264 1736.94 C 933.109 1730.46 937.44 1724.36 942.668 1718.93 z"/>
<path transform="translate(0,0)" fill="rgb(252,236,203)" d="M 159.028 1558.89 C 164.442 1563.73 169.09 1569.31 173.862 1574.76 C 169.685 1578.7 165.738 1582.9 161.728 1587.01 L 160.495 1587.79 C 156.76 1586.11 152.092 1578.79 149.386 1575.45 C 152.362 1569.71 155.431 1564.26 159.028 1558.89 z"/>
<path transform="translate(0,0)" fill="rgb(252,236,203)" d="M 1226.15 1276.58 C 1226.37 1276.78 1226.63 1276.94 1226.81 1277.18 C 1228.43 1279.23 1227.15 1356.22 1227.22 1367.51 L 1225.5 1369.04 C 1222.8 1362.72 1221.98 1296.11 1222.05 1284.03 C 1222.07 1280.13 1223.66 1279.14 1226.15 1276.58 z"/>
<path transform="translate(0,0)" fill="rgb(252,236,203)" d="M 281.462 1603.78 C 285.263 1608.66 288.466 1625.48 289.896 1631.98 C 285.855 1633.52 282.096 1635.26 278.282 1637.3 C 276.68 1638.92 275.546 1640.05 273.419 1640.93 L 272.176 1639.68 C 270.089 1629.13 277.648 1613.66 281.462 1603.78 z"/>
<path transform="translate(0,0)" fill="rgb(209,188,160)" d="M 1256.61 1795.82 C 1258.19 1795.88 1258.58 1795.64 1259.9 1796.62 C 1266.81 1801.82 1273.98 1814.98 1274.94 1823.3 C 1273.68 1826.38 1272.44 1826.39 1269.54 1827.86 C 1263.22 1822.61 1259.28 1812.36 1253.52 1806 L 1250.64 1802.8 L 1249.29 1801.31 C 1250.05 1798.89 1254.35 1797.16 1256.61 1795.82 z"/>
<path transform="translate(0,0)" fill="rgb(252,236,203)" d="M 749.97 1645.98 C 762.24 1645.44 782.9 1657.15 791.657 1665.48 C 793.35 1667.1 794.348 1668.06 794.43 1670.47 L 788.53 1673.73 L 787.03 1674.82 L 786.317 1673.58 L 787.822 1672.77 L 787.785 1671.62 C 785.98 1671.36 783.387 1671.44 781.758 1670.88 C 779.37 1670.07 773.199 1663.44 770.971 1661.59 C 764.261 1656.02 756.996 1651.15 749.97 1645.98 z"/>
<path transform="translate(0,0)" fill="rgb(252,236,203)" d="M 952.966 1740.89 C 948.433 1744.49 943.963 1748.16 939.558 1751.92 C 938.939 1752.55 938.325 1753.18 937.682 1753.78 C 931.862 1759.23 926.52 1758.27 919.097 1757.98 C 921.772 1752.41 924.699 1746.95 927.526 1741.47 C 936.007 1741.33 944.487 1741.13 952.966 1740.89 z"/>
<path transform="translate(0,0)" fill="rgb(252,236,203)" d="M 273.21 1578.7 C 277.626 1582 278.826 1590.11 280.232 1595.28 L 268.72 1605.43 C 269.567 1602.09 270.292 1599 270.496 1595.56 L 269.483 1596.28 C 267.862 1599.83 266.584 1604.42 262.87 1606.05 C 261.304 1604.3 261.209 1603.8 261.186 1601.34 C 261.095 1591.48 266.549 1585.13 273.21 1578.7 z"/>
<path transform="translate(0,0)" fill="rgb(209,188,160)" d="M 1327.7 1768.58 C 1329.12 1769.22 1330.31 1769.76 1331.56 1770.7 C 1335.39 1773.58 1348.95 1784.85 1349.46 1789.47 L 1345.84 1792.26 L 1335.51 1798.21 C 1333.12 1788.28 1330.51 1778.4 1327.7 1768.58 z"/>
<path transform="translate(0,0)" fill="rgb(252,236,203)" d="M 145.153 1582.84 C 148.355 1586.37 151.16 1591.11 153.952 1595.02 C 146.17 1602.99 140.92 1611.63 136.209 1621.67 C 136.161 1621.79 136.151 1621.93 136.065 1622.02 C 135.732 1622.36 135.337 1622.64 134.973 1622.96 L 135.736 1623 L 134.176 1624.95 L 133.845 1622.83 L 134.409 1623.49 L 134.732 1622.78 L 133.93 1622.01 C 136.48 1608.51 140.232 1595.67 145.153 1582.84 z"/>
<path transform="translate(0,0)" fill="rgb(209,188,160)" d="M 1152.11 1784.97 L 1160.6 1798.79 C 1159.89 1800.78 1159.25 1801.99 1157.86 1803.57 C 1157 1806.63 1157.3 1807.66 1154.48 1809.3 C 1150.8 1808.89 1147.43 1807.67 1143.92 1806.52 C 1145.03 1800.63 1145.71 1793.41 1148.07 1787.96 L 1152.11 1784.97 z"/>
<path transform="translate(0,0)" fill="rgb(33,31,54)" d="M 1152.11 1784.97 L 1160.6 1798.79 C 1159.89 1800.78 1159.25 1801.99 1157.86 1803.57 C 1154.75 1798.24 1151.65 1793.01 1148.07 1787.96 L 1152.11 1784.97 z"/>
<path transform="translate(0,0)" fill="rgb(252,236,203)" d="M 643.544 1491.55 C 647.986 1492.53 652.404 1494.29 656.733 1495.71 C 647.283 1502.03 637.903 1508.46 628.594 1514.99 L 618.118 1522.58 L 643.544 1491.55 z"/>
<path transform="translate(0,0)" fill="rgb(209,188,160)" d="M 1066.38 1770.7 C 1066.56 1770.88 1066.74 1771.06 1066.92 1771.24 C 1070.89 1775.35 1078.91 1782.68 1078.82 1788.63 C 1076.46 1790.08 1075.02 1789.22 1072.38 1788.77 C 1066.28 1787.65 1060.2 1786.19 1054.12 1784.89 C 1057.99 1779.96 1062.18 1775.35 1066.38 1770.7 z"/>
<path transform="translate(0,0)" fill="rgb(209,188,160)" d="M 1354.34 1860.7 C 1355.64 1860.85 1356.95 1861 1358.25 1861.23 C 1366.87 1862.73 1377.51 1870.58 1382.42 1877.73 C 1373.5 1876.16 1363.22 1873.82 1354.89 1870.25 C 1353.57 1867.48 1354.21 1863.77 1354.34 1860.7 z"/>
<path transform="translate(0,0)" fill="rgb(209,188,160)" d="M 1674.92 1969.34 C 1668.93 1958.6 1664.5 1946.87 1658.15 1936.4 C 1655.19 1931.52 1651.29 1927.26 1647.98 1922.62 C 1651.25 1923.38 1652.27 1926.55 1655.98 1927.29 L 1657.91 1925.64 L 1658.78 1924.19 C 1665.76 1938.77 1672.86 1953.11 1674.92 1969.34 z"/>
<path transform="translate(0,0)" fill="rgb(209,188,160)" d="M 1765.47 1969.6 C 1770.44 1974.11 1778.14 1991.68 1779.55 1998.11 L 1778.36 1997.64 C 1772.62 1991.84 1766.93 1987.84 1759.83 1983.98 C 1761.34 1979.04 1763.45 1974.35 1765.47 1969.6 z"/>
<path transform="translate(0,0)" fill="rgb(252,236,203)" d="M 928.551 1718.71 C 930.521 1718.9 931.912 1718.45 933.25 1720 C 927.29 1728.89 919.009 1737.11 911.699 1744.91 L 908.625 1745.45 L 907.579 1744.65 C 908.658 1735.68 922.254 1724.49 928.551 1718.71 z"/>
<path transform="translate(0,0)" fill="rgb(252,236,203)" d="M 270.393 1565.7 C 270.584 1565.78 270.793 1565.84 270.968 1565.96 C 272.871 1567.25 272.994 1567.94 273.67 1570.05 C 270.028 1576.38 259.528 1577.4 254.976 1583.37 C 254.711 1583.72 254.473 1584.08 254.217 1584.44 C 249.295 1591.24 245.746 1599.13 241.987 1606.62 L 240.821 1607.61 C 239.652 1606.06 239.928 1606.91 240.069 1604.64 C 240.888 1591.44 260.553 1574.03 270.393 1565.7 z"/>
<path transform="translate(0,0)" fill="rgb(209,188,160)" d="M 1547.42 1923.93 C 1552.18 1925.3 1561.41 1927.02 1564.3 1931.06 C 1561.9 1932.91 1559.88 1932.74 1556.91 1933.12 C 1552.54 1934.5 1546.96 1936.93 1542.46 1935.14 C 1540.95 1934.53 1541.19 1933.94 1540.74 1932.54 C 1541.84 1928.81 1544.71 1926.56 1547.42 1923.93 z"/>
<path transform="translate(0,0)" fill="rgb(167,146,136)" d="M 1243.84 1780.12 C 1244.14 1780.57 1244.46 1781 1244.74 1781.47 C 1246.76 1784.83 1249.05 1787.13 1251.87 1789.89 L 1251.09 1790.38 C 1248.05 1792.3 1243.31 1795.92 1239.81 1795.13 C 1235.84 1794.03 1231.73 1793.26 1227.71 1792.35 C 1233 1788.15 1238.37 1784.07 1243.84 1780.12 z"/>
<path transform="translate(0,0)" fill="rgb(252,236,203)" d="M 1311.94 1762.24 C 1313.31 1762.59 1314.58 1763.13 1315.89 1763.64 C 1321.81 1771.85 1326.79 1793.28 1327 1803.4 L 1325.39 1802.55 C 1318.94 1794.27 1314.94 1772.65 1311.94 1762.24 z"/>
<path transform="translate(0,0)" fill="rgb(209,188,160)" d="M 1749.2 1949.75 L 1754.4 1956.36 C 1748.8 1961.53 1744.51 1967.18 1740.01 1973.29 L 1737.92 1973.62 L 1736.59 1972.37 C 1737.24 1964.95 1745.1 1955.74 1749.2 1949.75 z"/>
<path transform="translate(0,0)" fill="rgb(252,236,203)" d="M 1045.97 1762.81 C 1047.51 1764.39 1047.51 1765.87 1047.51 1767.88 C 1044.9 1772.53 1040.55 1777.52 1036.15 1780.55 L 1033.37 1778.89 L 1033 1777.32 C 1036.27 1771.86 1041.65 1767.55 1045.97 1762.81 z"/>
<path transform="translate(0,0)" fill="rgb(252,236,203)" d="M 253.315 1612.63 C 256.428 1621.35 251.972 1630.54 249.23 1638.93 L 248.074 1637.53 C 246.391 1628.38 249.001 1620.63 253.315 1612.63 z"/>
<path transform="translate(0,0)" fill="rgb(224,191,135)" d="M 1400.03 1872.85 C 1406.59 1873.46 1413.85 1878.81 1419.38 1882.12 C 1420.65 1885.04 1421.34 1888.32 1422.19 1891.41 C 1413.59 1887.48 1408.19 1878.09 1400.03 1872.85 z"/>
<path transform="translate(0,0)" fill="rgb(209,188,160)" d="M 1238.91 1808.81 C 1243.28 1812.5 1250.09 1819.96 1251.83 1825.34 L 1250.49 1825.21 C 1246.26 1821.63 1239.92 1819.41 1236.37 1815.42 C 1234.84 1813.69 1235.25 1814.53 1235.31 1812.1 L 1238.91 1808.81 z"/>
<path transform="translate(0,0)" fill="rgb(252,236,203)" d="M 212.368 1627.71 C 212.553 1627.9 212.766 1628.08 212.923 1628.3 C 215.05 1631.28 216.577 1634.87 215.68 1638.44 L 212.601 1639.21 C 210.096 1638.63 208.736 1638.5 206.977 1636.48 C 207.513 1632.78 210.062 1630.57 212.368 1627.71 z"/>
<path transform="translate(0,0)" fill="rgb(252,236,203)" d="M 172.865 1622.55 C 175.37 1624.86 178.779 1632.55 179.41 1636.01 C 177.582 1636.38 175.792 1636.52 173.932 1636.65 L 172.168 1635.05 C 170.935 1631.01 172.192 1626.64 172.865 1622.55 z"/>
<path transform="translate(0,0)" fill="rgb(209,188,160)" d="M 1220.84 1799.9 C 1224.09 1800 1227.04 1799.85 1230 1801.42 L 1229.83 1803.25 L 1226.36 1805.91 C 1226.1 1806.02 1225.84 1806.13 1225.57 1806.22 C 1223 1807.06 1221.28 1807.1 1218.96 1805.89 C 1218.46 1802.88 1219.28 1802.43 1220.84 1799.9 z"/>
<path transform="translate(0,0)" fill="rgb(50,48,74)" d="M 312.918 528.218 C 303.238 559.371 280.749 586.43 268.972 617.057 C 267.181 621.715 263.883 629.195 265.979 633.88 C 273.594 635.169 284.131 631.024 291.566 628.959 C 353.62 611.728 413.168 579.49 466.595 543.991 C 483.195 532.961 498.94 520.68 514.931 508.796 C 520.337 504.779 525.307 500.403 531.032 496.816 L 531.679 497.03 C 491.549 535.626 447.801 570.275 401.039 600.499 C 425.136 608.23 448.464 612.226 473.721 612.414 C 459.711 620.459 439.326 610.4 427.377 614.631 C 415.775 613.416 403.849 609.563 392.487 606.783 C 375.864 615.581 359.489 625.244 342.232 632.732 C 318.54 643.013 293.721 650.538 269.842 660.337 C 267.867 677.293 265.86 693.54 259.943 709.683 C 235.858 775.389 179.54 823.053 129.361 868.834 C 107.496 888.82 85.9271 909.127 64.6617 929.749 C 50.3373 943.561 34.6519 957.088 22.2247 972.664 C 54.4749 957.82 89.0813 945.692 122.313 933.15 C 170.238 915.062 259.748 886.858 278.901 835.462 C 284.207 821.226 283.896 805.931 287.453 791.299 C 292.303 771.35 318.973 738.377 335.899 727.225 L 336.641 727.61 C 316.235 749.821 297.137 770.55 293.279 801.594 C 291.235 818.045 288.925 831.754 282.142 847.078 C 300.941 829.001 320.2 811.338 343.705 799.452 C 365.053 788.655 390.537 783.864 413.621 777.749 C 486.857 758.349 532.723 733.774 588.04 680.765 L 588.737 680.784 C 581.478 692.152 561.328 708.132 550.388 716.952 C 504.322 754.094 462.262 773.039 405.648 788.46 C 383.634 794.456 360.183 798.916 340.319 810.661 C 316.247 824.892 286.561 857.258 263.728 876.429 C 240.88 895.613 219.495 907.437 194.828 923.189 C 212.604 922.807 224.825 928.213 240.4 936.01 C 245.139 938.383 249.935 941.102 255.318 941.594 C 262.504 942.251 270.163 939.407 276.637 936.498 C 286.889 931.796 296.218 925.301 304.185 917.318 L 304.674 918.327 C 299.405 929.21 273.194 942.72 261.632 947.171 C 272.335 952.801 283.462 955.845 294.337 960.672 L 294.105 961.872 L 294.89 962.21 C 290.813 964.669 286.319 962.554 281.629 963.644 C 280.984 963.576 280.338 963.522 279.695 963.442 C 253.32 960.148 229.505 939.51 202.443 935.334 C 193.874 934.012 184.651 934.83 176.328 937.195 C 158.092 942.378 140.643 952.696 123.049 959.875 C 82.5686 976.392 41.6329 991.504 1.39267 1008.74 L 0 1009.03 L 0 931.948 L 0 930.641 C 18.1121 909.592 39.585 888.61 61.4776 871.506 C 80.4554 856.84 99.6315 842.433 119.001 828.289 C 134.132 817.126 158.813 802.136 169.727 787.006 C 176.06 778.228 179.016 765.672 180.864 755.186 C 184.241 736.286 184.02 716.917 180.214 698.099 C 173.036 662.974 156.126 636.822 173.305 601.075 L 173.92 601.535 C 172.614 606.873 170.466 611.798 169.667 617.272 C 164.757 650.923 187.293 677.851 192.892 709.727 C 196.441 729.93 193.553 749.255 190.202 769.226 C 220.876 739.951 240.517 706.985 244.571 664.195 C 245.994 649.178 246.669 633.395 253.172 619.509 C 260.807 603.208 272.391 589.292 282.832 574.766 C 293.713 559.818 303.757 544.278 312.918 528.218 z"/>
<path transform="translate(0,0)" fill="rgb(107,104,122)" d="M 0 931.948 C 4.40719 952.348 -0.382757 986.286 1.39267 1008.74 L 0 1009.03 L 0 931.948 z"/>
<path transform="translate(0,0)" fill="rgb(33,31,54)" d="M 190.745 1487.07 C 165.21 1500.36 137.779 1521.8 124.469 1548.02 C 130.49 1553.99 136.753 1559.47 143.274 1564.88 L 144.23 1565.59 C 142.439 1567.7 140.798 1568.89 138.518 1570.39 L 136.352 1570.38 C 132.557 1564.23 126.869 1558.69 122.078 1553.26 L 121.782 1551.44 L 123.052 1550.05 C 123.077 1549.76 123.096 1549.46 123.128 1549.17 C 124.968 1532.36 155.647 1508.23 168.229 1497.58 C 169.16 1496.8 170.138 1496.25 171.201 1495.67 L 170.707 1494.98 C 169.254 1495.53 167.813 1496.09 166.374 1496.68 C 164.207 1497.56 165.549 1497.05 163.304 1497.76 C 156.028 1500.04 128.714 1517.89 125.092 1524.47 C 124.77 1525.05 124.568 1525.69 124.294 1526.3 C 123.056 1529.05 121.174 1530.08 118.9 1531.92 C 111.553 1537.85 103.29 1560.33 97.547 1562.67 C 108.063 1534.58 133.722 1509.23 160.863 1497 C 170.453 1492.67 180.468 1489.34 190.745 1487.07 z"/>
<path transform="translate(0,0)" fill="rgb(33,31,54)" d="M 473.721 612.414 C 494.454 611.4 514.755 609.025 535.244 605.715 C 542.639 604.52 598.446 592.676 600.978 593.496 C 595.246 596.066 589.635 596.172 583.701 597.728 C 538.718 609.527 473.082 624.741 427.377 614.631 C 439.326 610.4 459.711 620.459 473.721 612.414 z"/>
<path transform="translate(0,0)" fill="rgb(33,31,54)" d="M 294.337 960.672 C 316.927 964.53 338.362 961.828 360.904 963.596 C 375.444 964.737 387.102 968.36 400.83 972.48 C 396.195 970.894 391.278 970.798 386.473 969.978 C 375.621 968.125 365.76 966.256 354.678 966.11 C 330.541 965.791 305.308 970.384 281.629 963.644 C 286.319 962.554 290.813 964.669 294.89 962.21 L 294.105 961.872 L 294.337 960.672 z"/>
<path transform="translate(0,0)" fill="rgb(224,191,135)" d="M 1459.59 281.414 C 1479.49 279.873 1500.61 281.604 1520.41 284.035 C 1617.78 295.991 1699.65 343.562 1759.77 420.843 C 1823.32 502.55 1842.27 596.491 1829.62 697.637 C 1877.95 703.489 1931.82 719.832 1977.29 737.002 C 1985.51 740.105 1994.55 742.73 2002.2 747.039 C 1990.38 745.699 1968.07 736.508 1955.44 732.863 C 1932.31 726.185 1908.8 721.224 1885.18 716.58 C 1859.08 711.446 1833.06 708.258 1806.61 705.46 C 1720.13 696.313 1649.82 700.613 1565.1 720.867 C 1524.78 730.212 1485.46 743.417 1447.68 760.301 C 1386.23 783.834 1324.77 823.293 1270.75 860.755 C 1249.38 875.578 1228.21 891.409 1207.62 907.305 C 1196.51 915.886 1153.77 954.377 1144.42 956.968 C 1147.62 952.186 1154.2 947.613 1158.59 943.811 C 1175.31 929.346 1194.14 916.108 1209.43 900.185 C 1153.09 841.127 1120.69 759.114 1114.24 678.405 C 1106.16 580.075 1137.71 482.593 1201.86 407.637 C 1268.41 330.213 1358.51 288.865 1459.59 281.414 z"/>
<path transform="translate(0,0)" fill="rgb(33,31,54)" d="M 1669.53 449.122 C 1670.73 448.983 1671.76 449.181 1672.95 449.337 C 1668.97 454.171 1659.96 457.2 1654.55 460.901 C 1644.21 467.985 1637.08 477.193 1629.8 487.255 C 1612.23 478.618 1597.35 475.468 1577.94 478.553 C 1575.7 479.181 1571.92 480.978 1569.87 479.994 C 1573.18 476.388 1578.55 473.108 1583.13 471.373 C 1598.57 465.518 1613.02 470.11 1627.31 476.415 C 1638.2 460.198 1651.02 453.631 1669.53 449.122 z"/>
<path transform="translate(0,0)" fill="rgb(33,31,54)" d="M 1426.57 427.949 C 1429.66 428.471 1432.79 428.886 1435.86 429.487 C 1438.34 429.972 1439.84 429.798 1441.37 432.006 C 1439.45 434.997 1435.37 436.486 1432.25 438.074 C 1431.28 438.782 1430.12 439.124 1429.01 439.571 C 1428 438.771 1427.29 438.265 1426.04 437.892 C 1425.58 437.756 1425.12 437.654 1424.66 437.526 C 1422.11 436.815 1421.21 436.861 1419.84 434.496 C 1421.13 431.282 1423.84 429.849 1426.57 427.949 z"/>
<path transform="translate(0,0)" fill="rgb(38,34,35)" d="M 1392.93 546.522 L 1393.46 547.259 C 1392.12 548.225 1391.01 548.774 1389.43 549.303 C 1380.67 552.24 1374.57 556.561 1367.3 562.123 L 1366.61 561.122 C 1366.35 558.518 1366.27 557.661 1367.79 555.328 C 1372.11 548.694 1385.68 547.104 1392.93 546.522 z"/>
<path transform="translate(0,0)" fill="rgb(33,31,54)" d="M 190.553 1428.2 C 192.193 1428.05 191.436 1427.94 193.037 1428.53 C 194.337 1429.01 195.465 1429.32 196.819 1429.59 C 198.899 1428.94 200.941 1429.68 202.979 1430.4 C 209.669 1432.76 220.184 1439.55 222.605 1446.63 C 223.441 1449.07 223.377 1450.53 222.369 1452.84 C 217.082 1454.11 212.394 1448.04 206.929 1449.43 C 206.228 1451.04 205.802 1452.3 204.415 1453.46 C 201.377 1456 198.071 1450.2 195.034 1449.84 L 190.737 1455.58 C 187.765 1454 185.179 1451.7 182.557 1449.61 C 180.414 1451.86 178.653 1454.13 175.6 1455.12 C 174.352 1453.86 173.065 1452.7 171.718 1451.54 C 168.436 1450.46 166.409 1451.62 163.322 1452.69 C 160.376 1453.71 158.098 1454.75 155.221 1453.33 C 154.682 1449.2 157.52 1444.12 159.918 1440.85 C 164.83 1434.15 172.879 1434.35 180.423 1433.42 L 180.328 1431.35 C 182.071 1429.36 187.836 1428.83 190.553 1428.2 z"/>
<path transform="translate(0,0)" fill="rgb(33,31,54)" d="M 320.357 343.165 L 321.73 343.632 C 318.82 349.038 303.002 357.596 297.299 362.912 C 288.576 371.043 281.73 380.299 275.641 390.506 C 272.459 388.058 269.072 385.653 265.605 383.619 C 250.255 374.615 233.085 374.221 216.275 378.678 C 212.848 380.017 209.198 380.89 205.659 381.89 C 209.311 379.464 212.975 376.975 216.959 375.12 C 236.333 366.1 255.844 370.13 275.079 377.103 C 276.243 374.709 277.524 372.274 278.986 370.043 C 288.195 355.994 304.029 346.191 320.357 343.165 z"/>
<path transform="translate(0,0)" fill="rgb(33,31,54)" d="M 1078.54 143.426 C 1078.42 144.736 1060.38 156.1 1057.94 158.584 C 1052.76 163.85 1050.04 169.925 1047.72 176.771 C 1045.41 174.822 1043.07 172.814 1040.46 171.264 C 1029.85 164.959 1018.8 164.989 1007.22 167.884 C 1006.18 168.308 1004.98 168.449 1003.88 168.675 L 1003.85 167.682 C 1006.54 164.562 1008.57 162.838 1012.51 161.524 C 1023.71 157.785 1034.41 160.073 1044.67 165.241 C 1045.26 164.323 1045.84 163.401 1046.45 162.504 C 1054.87 150.299 1064.4 145.986 1078.54 143.426 z"/>
<path transform="translate(0,0)" fill="rgb(33,31,54)" d="M 159.019 1283.07 C 162.335 1282.9 165.622 1282.72 168.841 1283.7 C 173.762 1285.19 178.216 1288.95 180.307 1293.67 C 181.547 1296.47 181.515 1298.57 180.401 1301.35 C 177.082 1301.93 172.847 1299.45 169.715 1298.17 C 164.825 1300.59 153.867 1300.63 148.628 1298.86 C 146.632 1296.82 146.592 1296.97 146.538 1294.13 C 149.058 1289 154.157 1285.73 159.019 1283.07 z"/>
<path transform="translate(0,0)" fill="rgb(33,31,54)" d="M 1839.43 142.928 L 1840.86 143.031 C 1840.71 144.575 1835.19 147.232 1833.5 148.256 C 1821.99 155.248 1815.96 163.932 1809.18 175.283 C 1794.57 166.808 1782.78 164.59 1766.23 168.605 L 1764.39 169.225 L 1763.51 168.511 C 1766.93 165.28 1770.79 162.887 1775.34 161.514 C 1786.99 157.992 1797.89 162.214 1808.19 167.395 C 1815.34 153.075 1825.17 148.684 1839.43 142.928 z"/>
<path transform="translate(0,0)" fill="rgb(33,31,54)" d="M 670.715 311.053 C 673.007 310.896 674.874 310.524 677.004 311.553 C 676.067 312.669 675.221 313.445 673.972 314.207 C 663.449 320.628 657.148 327.924 650.436 338.137 C 643.993 330.83 639.432 328.647 629.783 327.516 C 623.487 327.76 617.169 328.728 610.912 329.476 C 621.179 323.66 629.816 320.837 641.795 322.927 C 644.239 323.353 647.777 324.397 650.208 324.089 C 651.756 323.893 662.676 313.949 669.369 311.528 L 670.715 311.053 z"/>
<path transform="translate(0,0)" fill="rgb(33,31,54)" d="M 109.111 1337 C 110.814 1337.27 112.581 1337.49 114.229 1338.02 C 117.405 1339.06 119.992 1341.96 121.224 1344.99 C 122.154 1347.28 122.299 1350.78 120.98 1352.9 C 119.602 1355.13 118.379 1355.56 116.062 1356.17 L 112.433 1353.62 L 111.788 1353.43 C 110.882 1354.25 110.033 1355.06 109.203 1355.96 L 108.449 1356.79 C 106.55 1356.26 105.886 1355.91 104.524 1354.35 C 101.28 1350.65 102.123 1345.81 102.542 1341.32 C 104.294 1338.69 106.303 1338.1 109.111 1337 z"/>
<path transform="translate(0,0)" fill="rgb(33,31,54)" d="M 193.301 1329.63 L 195.154 1330.72 C 200.604 1328.8 206.529 1330.05 212.134 1330.7 C 214.018 1331.97 214.459 1333.87 214.738 1336.15 C 215.055 1338.73 214.41 1340.08 213.009 1342.14 C 210.152 1342.66 210.079 1342.23 207.56 1340.68 L 206.596 1339.19 C 205.442 1340.66 204.715 1342.28 202.878 1342.9 C 200.442 1343.72 197.502 1343.57 195.317 1342.09 C 193.219 1340.67 191.847 1339.2 191.297 1336.68 C 190.498 1333 191.431 1332.55 193.301 1329.63 z"/>
<path transform="translate(0,0)" fill="rgb(33,31,54)" d="M 56.9057 1429.92 C 57.3361 1429.91 57.7662 1429.88 58.1968 1429.88 C 64.6411 1429.84 68.02 1431.88 72.5746 1436.34 C 72.9715 1437.55 73.7526 1438.76 73.2798 1440.01 C 71.3027 1445.24 67.0578 1441.87 62.5748 1443.88 L 61.5792 1444.4 L 61.6512 1442.5 C 61.2939 1442.39 60.9533 1442.16 60.5792 1442.17 C 56.5786 1442.24 53.8861 1443.64 49.9792 1441.13 C 48.6762 1440.29 49.1019 1440.33 48.7629 1438.55 C 50.7374 1434.54 53.3841 1432.48 56.9057 1429.92 z"/>
<path transform="translate(0,0)" fill="rgb(33,31,54)" d="M 876.227 564.288 C 892.692 555.942 900.214 556.343 917.766 561.531 C 919.428 563.662 920.496 565.014 921.201 567.683 C 920.428 569.858 919.929 571.214 918.249 572.83 C 918.029 572.642 917.812 572.451 917.589 572.265 C 903.123 560.212 893.552 562.674 876.227 564.288 z"/>
<path transform="translate(0,0)" fill="rgb(33,31,54)" d="M 834.915 760.075 C 836.947 759.991 838.865 760.205 840.883 760.413 L 841.859 761.796 C 839.957 763.694 838.293 765.093 835.964 766.452 C 830.93 769.391 827.469 773.39 821.255 773.087 C 818.595 774.018 816.545 774.814 813.662 774.529 L 812.949 773.032 C 816.737 765.691 827.608 762.472 834.915 760.075 z"/>
<path transform="translate(0,0)" fill="rgb(33,31,54)" d="M 170.837 1407.88 L 169.233 1410.37 L 167.085 1410.09 C 166.235 1409.04 165.175 1407.86 164.531 1406.65 C 163.311 1404.34 163.353 1402.85 163.9 1400.4 C 168.013 1397.11 171.211 1398 176.268 1398.47 C 179.003 1400.68 182.788 1403.68 183.439 1407.38 C 183.653 1408.59 182.649 1409.16 181.918 1410.02 C 179.313 1410.27 176.709 1410.52 174.107 1410.8 L 170.837 1407.88 z"/>
<path transform="translate(0,0)" fill="rgb(33,31,54)" d="M 917.766 561.531 C 918.854 556.314 923.255 552.92 927.53 550.13 C 934.995 545.258 943.861 542.62 952.663 541.776 C 944.037 547.054 923.951 555.704 921.327 566.119 C 921.199 566.626 921.243 567.162 921.201 567.683 C 920.496 565.014 919.428 563.662 917.766 561.531 z"/>
<path transform="translate(0,0)" fill="rgb(33,31,54)" d="M 1890.89 592.836 C 1894.28 585.246 1899.47 579.566 1907.26 576.339 C 1910.05 575.183 1913.62 573.861 1916.52 574.774 C 1911.21 583.774 1897.98 584.558 1894.61 596.614 C 1893.5 594.86 1892.62 593.994 1890.89 592.836 z"/>
<path transform="translate(0,0)" fill="rgb(33,31,54)" d="M 1870.9 218.228 C 1872.79 217.974 1874.27 217.811 1876.17 218.085 C 1879.68 218.59 1883.15 218.467 1886.68 219.023 L 1887.45 220.292 C 1884.62 223.835 1880.33 225.583 1876.39 227.673 C 1875.53 228.037 1874.38 228.271 1873.48 228.526 C 1872.97 226.835 1873.02 227.53 1873.12 225.762 C 1873.15 225.348 1873.19 224.936 1873.23 224.522 C 1870.21 223.872 1866.98 225.921 1863.75 226.227 L 1863.25 224.664 C 1865.28 221.652 1867.88 220.158 1870.9 218.228 z"/>
<path transform="translate(0,0)" fill="rgb(33,31,54)" d="M 1139.21 279.959 C 1142.63 279.629 1145.96 280.001 1149.38 280.292 L 1150.17 283.097 L 1151.59 281.734 C 1150.12 283.537 1150.96 282.91 1148.78 283.913 C 1145.7 285.33 1142.72 286.84 1139.71 288.398 C 1137.85 289.065 1135.8 289.961 1133.86 290.336 C 1131.49 290.794 1131.01 290.903 1129.12 289.541 L 1129.67 287.385 C 1132.51 284.025 1135.44 282.189 1139.21 279.959 z"/>
<path transform="translate(0,0)" fill="rgb(33,31,54)" d="M 685.284 635.065 C 688.135 634.774 690.44 634.613 693.291 635.213 L 694.058 636.474 C 691.371 640.908 685.704 642.943 680.941 644.257 C 678.571 645.228 676.537 646.249 673.91 646.075 L 673.066 644.741 C 675.931 639.581 680.059 637.486 685.284 635.065 z"/>
<path transform="translate(0,0)" fill="rgb(33,31,54)" d="M 1780.76 367.416 C 1783.63 367.685 1786.94 368.083 1789.73 368.806 C 1792.42 369.501 1793.23 370.075 1794.7 372.388 C 1794.14 375.543 1792.55 376.996 1790.45 379.225 L 1787.18 378.55 C 1786.83 377.912 1786.44 377.169 1786 376.597 C 1783.71 373.629 1781.9 374.262 1778.43 373.828 C 1778.37 370.852 1779.27 369.937 1780.76 367.416 z"/>
<path transform="translate(0,0)" fill="rgb(33,31,54)" d="M 1894.61 596.614 C 1893.5 597.493 1892.89 597.585 1891.54 597.903 C 1886.54 596.063 1881.54 595.268 1876.52 593.732 C 1874.16 593.008 1871.74 592.594 1870.51 590.397 C 1871.45 589.938 1871.73 589.749 1872.87 589.491 C 1880.18 587.849 1884.59 589.089 1890.89 592.836 C 1892.62 593.994 1893.5 594.86 1894.61 596.614 z"/>
<path transform="translate(0,0)" fill="rgb(33,31,54)" d="M 1037.04 377.042 C 1040.29 376.9 1042.55 376.967 1045.62 378.063 L 1045.99 379.365 C 1042.77 382.497 1038.42 383.831 1034.33 385.518 C 1031.79 386.396 1030.2 387.659 1027.67 386.529 C 1027.73 386.24 1027.75 385.942 1027.85 385.663 C 1029.15 381.843 1033.77 379.01 1037.04 377.042 z"/>
</svg>