<svg viewBox="0 0 512 512"
  xmlns="http://www.w3.org/2000/svg" preserveAspectRatio="xMidYMid meet">
  <path d="M511.794,185.481c-0.474-8.496-7.262-15.275-15.759-15.738c-1.499-0.082-32.861-1.662-72.654,6.033
    c-7.92-38.789-21.218-66.657-22.302-68.885c-3.697-7.604-12.493-11.242-20.484-8.473c-1.44,0.5-31.606,11.102-65.812,33.715
    c-22.472-33.22-45.845-54.202-47.721-55.861c-6.315-5.588-15.807-5.588-22.122,0c-1.866,1.652-25.032,22.446-47.407,55.399
    c-33.922-22.298-63.689-32.76-65.111-33.253c-7.991-2.772-16.787,0.869-20.484,8.473c-1.085,2.231-14.426,30.188-22.341,69.075
    c-40.251-7.911-72.111-6.306-73.629-6.224c-8.497,0.463-15.285,7.242-15.759,15.738c-0.273,4.875-5.856,120.191,64.677,189.876
    c89.34,88.266,297.341,83.873,382.233,0C517.65,305.672,512.066,190.356,511.794,185.481z" fill="none" stroke="#FFD700" stroke-width="12"/>
</svg>