<svg version="1.1" xmlns="http://www.w3.org/2000/svg" style="display: block;" viewBox="0 0 2048 2048" width="1024" height="1024" preserveAspectRatio="none">
<path transform="translate(0,0)" fill="rgb(241,226,190)" d="M 0 0 L 2048 0 L 2048 2048 L 0 2048 L 0 0 z"/>
<path transform="translate(0,0)" fill="rgb(62,43,27)" d="M 1023.93 31.1136 C 1025.59 31.6422 1026.47 32.0929 1027.9 33.0015 C 1031.13 40.9773 1032.4 125.571 1033.38 141.768 C 1035.24 172.652 1037.52 203.414 1041.49 234.112 C 1045.57 267.281 1051.54 300.191 1059.36 332.682 C 1077.36 407.529 1097.04 465.47 1095.37 543.941 C 1117.95 515.434 1141.08 482.934 1152.13 448.016 C 1162.71 414.587 1162.42 378.91 1162.88 344.215 C 1164.33 234.415 1187.55 170.19 1260.82 86.938 C 1265.15 82.0162 1275.66 67.9037 1282.1 67.4905 L 1283.6 69.3936 C 1280.98 79.9284 1271.81 97.4042 1267.28 108.615 C 1254.21 140.969 1244.08 173.85 1239.53 208.539 C 1232.3 263.72 1240.02 313.846 1242.7 368.633 C 1244.79 411.304 1242.44 453.662 1231.07 494.998 C 1224.79 517.83 1215.75 540.521 1205.69 561.96 C 1198.73 576.805 1190.95 591.372 1184.84 606.591 C 1222.21 575.769 1255.45 557.108 1286.58 517.219 C 1320.11 474.269 1345.35 423.209 1371.2 375.409 C 1405.37 312.252 1444.4 251.572 1495.2 200.393 C 1502.24 193.302 1514.87 178.074 1523.07 173.903 C 1525.15 172.844 1525.52 172.999 1527.61 173.689 L 1528.23 175.462 C 1524.28 183.769 1517.86 190.77 1512.73 198.367 C 1507.65 205.884 1503.39 214.333 1498.9 222.251 C 1472.01 269.747 1447.65 317.028 1427.2 367.69 C 1412.98 402.928 1401.52 438.884 1391.03 475.381 C 1374.35 533.459 1360.33 591.65 1328.14 643.565 C 1362.5 628.842 1411.88 600.161 1437.15 572.523 C 1461.07 546.361 1480.17 513.244 1499.12 483.35 C 1516.57 455.822 1534.72 428.909 1558.6 406.417 C 1594.62 372.417 1637.74 346.854 1684.85 331.578 C 1692.69 328.98 1702.76 324.565 1711.01 324.829 L 1712.13 326.406 C 1711.04 333.007 1696.66 339.973 1691.45 344.229 C 1665.75 365.241 1641.85 391.248 1621.64 417.528 C 1597.18 449.336 1580.07 485.942 1562.56 521.788 C 1511.26 626.8 1482.02 663.843 1387.8 732.09 C 1446.72 728.88 1513.27 714.686 1566.67 689.471 C 1587.69 679.543 1607.7 667.173 1627.39 654.84 C 1659.87 634.5 1690.71 612.566 1724.93 595.025 C 1770.36 571.736 1819.07 558.389 1867.39 542.86 C 1872.73 541.146 1881.16 537.542 1886.33 540.186 L 1886.45 541.954 C 1881.97 547.637 1855.6 559.465 1847.22 564.102 C 1813.32 582.854 1779.75 603.064 1748.4 625.863 C 1710.03 653.768 1673.8 685.308 1639.14 717.696 C 1607.8 746.991 1578.33 777.388 1545.29 804.93 C 1533.42 814.834 1521.63 824.782 1508.4 832.868 C 1492.74 842.433 1475.29 849.961 1457.83 855.568 C 1548.27 863.596 1599.6 850.476 1678.66 805.888 C 1704.4 791.369 1729.9 775.935 1757.14 764.327 C 1818.16 738.321 1874.78 738.899 1939.48 745.468 C 1952.78 746.818 1970.86 747.064 1983.23 752.063 L 1983.53 753.869 L 1982.29 755.577 C 1972.44 759.025 1948.39 760.529 1935.86 762.897 C 1902.15 769.27 1867.27 781.327 1836.36 796.314 C 1805.46 811.297 1779.32 831.826 1751.31 851.386 C 1703.18 884.998 1646.09 924.88 1589.47 941.631 C 1556.49 951.388 1522.48 955.333 1488.43 959.248 C 1572.27 1037.76 1731.42 1004.63 1836.59 1007.73 C 1890.05 1009.3 1942.75 1018.6 1994.83 1030.04 C 1999.38 1031.04 2009.06 1032.23 2011.61 1036.21 L 2009.76 1037.96 C 2000.52 1039.91 1955.48 1037.81 1942.37 1037.86 C 1913.35 1037.96 1883.82 1040.13 1855.02 1043.63 C 1814.8 1048.67 1774.88 1055.89 1735.45 1065.27 C 1686.92 1077.21 1639.16 1092.12 1589.24 1097.59 C 1556.71 1101.16 1525.18 1099.95 1492.65 1097.67 C 1543.58 1139.89 1606.05 1159.19 1671.38 1162.46 C 1705.1 1164.15 1739.09 1163.92 1772.54 1169.03 C 1816.91 1175.82 1863.39 1193.91 1902.29 1216.24 C 1914.26 1223.11 1985.64 1269.37 1987.58 1276.58 L 1985.88 1277.8 C 1971.5 1277.08 1952.62 1266.49 1938.42 1262.06 C 1908.84 1252.83 1878.01 1244.78 1847.21 1240.97 C 1737.56 1227.38 1625.43 1263.83 1519.01 1224.83 C 1491.02 1214.58 1465.61 1199.98 1439.66 1185.55 C 1449.89 1202.75 1464.21 1218.09 1477.42 1233.08 C 1523.64 1285.54 1578.42 1324.87 1639.1 1359.22 C 1675.83 1380.02 1714.22 1399.49 1749.48 1422.7 C 1787.87 1447.97 1827.41 1482.9 1861.68 1513.93 C 1864.14 1516.16 1870.43 1521.18 1870.58 1524.45 L 1868.81 1525.61 C 1859.12 1525.18 1840.99 1511.32 1832.55 1506.12 C 1803.4 1488.2 1772.1 1472.2 1740.87 1458.24 C 1696.45 1438.38 1656.26 1422.46 1609.82 1407.79 C 1537.76 1385.02 1458.38 1369.31 1394.57 1326.92 C 1403.33 1348.63 1415.95 1371.15 1429.21 1390.38 C 1479.94 1463.93 1541.22 1472.98 1606.95 1523.46 C 1651.28 1557.5 1684.73 1603.34 1710.24 1652.63 C 1715.5 1662.8 1741.68 1714.99 1739.33 1722.41 L 1737.77 1723.06 C 1729.88 1719.83 1716.83 1700.32 1710.15 1693.08 C 1684.36 1665.16 1658.17 1637.87 1627.76 1614.92 C 1591.06 1587.21 1550.59 1570.05 1508.6 1552.05 C 1411.99 1510.63 1371.82 1473.82 1306.29 1392.19 C 1313.1 1437.8 1323.79 1485.91 1342.59 1528.16 C 1354.7 1555.36 1368.45 1582.44 1383.67 1608.05 C 1407.67 1648.46 1434.42 1687.01 1457.16 1728.21 C 1477.94 1765.87 1493.93 1805.79 1508 1846.35 C 1511.26 1855.76 1519.41 1872.88 1518.12 1882.68 L 1516.37 1882.73 C 1508.31 1876.25 1479.68 1824.08 1470.9 1810.72 C 1454 1784.85 1436.24 1759.55 1417.65 1734.87 C 1399.99 1712.03 1381.13 1690.16 1361.14 1669.33 C 1308.71 1614.48 1223.05 1536.9 1194.35 1467.81 C 1188.82 1504.46 1186.68 1541.37 1195.52 1577.75 C 1203.86 1612.1 1222.64 1640.05 1239.96 1670.23 C 1261.28 1707.35 1281.09 1747.36 1290.4 1789.37 C 1301.6 1839.89 1298 1892.15 1292.29 1943.11 C 1291.21 1952.81 1291.12 1968.96 1285.92 1977.12 C 1283.61 1977.37 1284.11 1977.25 1282.46 1975.95 C 1279.09 1960.94 1278.44 1945.04 1276.01 1929.8 C 1269.86 1891.31 1260.02 1853.86 1243.57 1818.45 C 1226.64 1782 1202.63 1750.84 1178.54 1718.96 C 1132.97 1658.64 1100.63 1599.44 1092.23 1523.12 C 1090.32 1505.75 1090.29 1488.25 1090.05 1470.8 C 1084.91 1471.6 1079.78 1472.45 1074.66 1473.38 C 1062.46 1519.68 1050.2 1565.75 1047.12 1613.77 C 1044.33 1657.39 1048.1 1700.36 1048.83 1743.88 C 1049.61 1789.36 1049.84 1834.88 1046.09 1880.24 C 1043.57 1910.67 1038.99 1940.37 1034.1 1970.48 C 1031.56 1986.15 1030.81 2009.44 1024.7 2023.27 C 1022.41 2024.99 1021.9 2024.52 1019 2024.26 C 1017.76 1993.57 1017.93 1962.85 1016.5 1932.15 C 1014.12 1883.24 1008.86 1834.51 1000.74 1786.22 C 992.548 1738.37 979.244 1691.95 969.372 1644.53 C 959.632 1598.41 953.905 1551.54 952.256 1504.43 C 933.992 1526.75 917.109 1548.3 905.047 1574.83 C 883.712 1621.75 886.205 1667.62 884.545 1717.5 C 882.936 1765.79 876.508 1812.25 855.68 1856.41 C 837.692 1894.55 813.076 1928.91 786.213 1961.21 C 780.416 1968.18 772.431 1979.78 763.821 1982.84 L 762.371 1982.05 C 765.274 1968.59 773.778 1954.56 779.049 1941.71 C 791.842 1910.5 801.479 1876.96 805.647 1843.48 C 817.396 1749.09 786.268 1651.88 814.997 1559.34 C 821.481 1538.46 829.459 1517.34 839.318 1497.81 C 847.382 1481.83 856.965 1466.49 864.18 1450.11 L 851.387 1444.33 C 760.711 1507.75 724.24 1591.52 670.312 1683.52 C 635.113 1743.57 604.815 1789.49 557.167 1840.53 C 550.704 1847.45 532.53 1869.5 525.645 1872.99 L 524.496 1871.85 C 524.794 1868.62 525.649 1866.17 527.037 1863.23 C 532.594 1851.46 540.291 1840.12 546.666 1828.73 C 563.419 1798.8 580.844 1768.04 594.988 1736.78 C 608.968 1705.88 624.188 1674.35 634.817 1642.17 C 644.149 1613.07 653.209 1583.88 661.997 1554.6 C 678.938 1496.61 691.863 1449.87 725.368 1398.52 C 666.553 1426.2 616.664 1463.61 579.878 1517.77 C 563.974 1541.19 550.261 1566.08 534.075 1589.32 C 494.007 1646.87 442.039 1683.19 378.173 1710.51 C 364.808 1716.23 349.722 1723.64 335.431 1726.18 L 333.955 1725.02 C 342.447 1714.38 357.185 1704.08 367.489 1694.76 C 390.474 1674.36 410.985 1651.34 428.602 1626.16 C 441.492 1607.75 453.369 1588.65 464.178 1568.94 C 475.025 1548.78 484.289 1527.9 494.355 1507.36 C 519.837 1455.37 548.765 1406.55 590.915 1366.27 C 614.294 1343.92 641.877 1324.13 671.084 1310.05 C 521.017 1312.21 450.669 1386.25 326.458 1448.42 C 290.728 1466.3 254.77 1478.31 216.568 1489.36 C 201.859 1493.62 175.557 1504.96 161.984 1505.71 C 160.794 1503.73 161.158 1503.94 161.58 1501.84 C 171.416 1493.39 213.535 1473.29 227.967 1464.82 C 268.187 1441.27 306.716 1414.94 343.272 1386.02 C 368.135 1366.18 391.911 1345.01 414.494 1322.61 C 464.614 1273.39 511.775 1221.75 577.138 1192.6 C 538.249 1187.24 499.012 1186.48 460.797 1197.11 C 428.327 1206.14 400.117 1223.79 370.994 1240.09 C 321.255 1267.92 269.848 1291.78 212.963 1300.08 C 173.267 1305.88 137.313 1303.44 97.9581 1298.18 C 91.8157 1297.36 81.345 1297.41 76.3179 1293.66 L 76.5369 1291.99 C 81.0394 1289.12 108.579 1285.57 116.534 1283.74 C 144.398 1277.2 171.553 1267.95 197.607 1256.1 C 227.038 1242.59 255.718 1225.97 282.497 1207.77 C 350.08 1161.84 406.339 1112.36 488.721 1094.63 C 508.781 1090.31 529.412 1088.81 549.862 1087.88 C 480.712 1033.44 397.7 1036.46 314.835 1039.68 C 283.37 1040.92 251.878 1041.32 220.393 1040.87 C 170.404 1039.82 121.54 1032.82 72.5485 1023.18 C 65.2578 1021.75 31.1118 1016.5 27.1042 1013.11 L 27.1308 1011.47 C 33.5354 1008.16 43.8991 1009.56 50.9847 1009.66 C 94.2761 1010.3 137.564 1008.19 180.589 1003.35 C 225.607 998.413 270.269 990.646 314.31 980.097 C 388.827 962.349 460.898 938.113 538.719 949.455 C 550.36 951.152 562.015 954.291 573.49 956.901 C 559.006 943.211 540.877 931.885 523.513 922.089 C 468.821 891.235 412.559 886.849 351.44 885.516 C 328.303 885.011 305.206 884.733 282.236 881.583 C 228.316 873.886 176.766 854.359 131.279 824.401 C 113.402 812.616 83.8112 791.964 70.0997 776.581 C 68.281 774.54 67.2692 773.478 67.4792 770.655 L 69.1161 769.275 C 145.616 804.728 225.877 813.588 309.074 807.081 C 348.355 804.009 387.53 798.974 426.992 801.549 C 487.022 805.465 539.861 822.784 594.105 847.864 C 582.711 825.944 565.573 807.224 548.018 790.066 C 482.045 725.584 409.208 691.73 331.473 645.512 C 298.845 626.32 267.561 604.929 237.839 581.486 C 229.005 574.46 175.704 531.972 174.824 524.264 L 175.84 523.213 C 183.717 523.449 200.23 537.459 208.285 541.703 C 240.657 559.081 273.81 574.964 307.64 589.301 C 344.7 605.304 382.532 619.458 420.995 631.711 C 505.511 658.208 602.944 675.619 669.932 737.635 C 635.109 666.733 580.252 607.603 512.156 567.57 C 466.515 540.224 422.396 516.512 387.059 475.355 C 356.203 439.418 338.096 400.311 320.148 357.123 C 316.449 348.222 308.878 335.071 309.606 325.321 L 310.818 324.361 C 317.764 329.438 329.94 348.084 336.701 355.868 C 360.972 383.814 386.5 410.631 416.624 432.362 C 453.6 459.035 494.794 476.876 536.512 494.625 C 630.277 534.519 680.57 572.153 737.858 656.614 C 737.237 638.938 736.382 621.515 732.922 604.107 C 720.341 540.804 673.256 458.791 639.312 403.611 C 629.033 386.902 617.726 370.875 607.861 353.894 C 582.254 309.814 560.639 264.631 544.084 216.38 C 540.171 204.976 531.443 187.401 532.391 175.52 L 534.065 174.652 C 540.446 178.431 550.724 199.441 555.462 207.021 C 574.429 237.364 594.637 267.426 616.371 295.859 C 640.212 327.047 665.721 358.043 692.956 386.356 C 713.441 407.496 734.108 428.459 754.955 449.243 C 798.117 492.234 830.662 524.125 853.76 582.767 C 860.053 540.668 859.343 494.218 845.655 453.63 C 832.933 415.907 808.518 381.193 789.033 346.744 C 748.631 275.316 741.408 199.758 753.688 119.757 C 755.437 108.36 756.418 96.4466 759.139 85.2484 C 759.841 82.3578 760.384 79.4539 762.991 77.8163 L 764.65 78.8526 C 768.366 91.4328 767.949 105.853 770.127 118.858 C 776.036 154.155 785.139 190.038 800.008 222.682 C 810.443 245.942 823.4 267.987 838.647 288.419 C 847.499 300.248 857.219 311.422 866.148 323.194 C 902.774 371.477 941.285 443.891 948.907 504.658 C 950.639 517.885 951.675 531.193 952.01 544.528 C 952.221 555.676 951.476 567.189 952.686 578.262 C 955.302 578.796 957.068 578.808 959.704 578.385 C 967.881 570.907 973.778 555.588 978.265 545.352 C 1015.74 459.853 999.77 370.004 999.905 280.078 C 999.953 248.418 999.577 216.394 1001.92 184.812 C 1004.44 150.805 1009.93 117.423 1014.83 83.724 C 1017.29 66.7964 1018.18 47.1058 1023.93 31.1136 z"/>
<path transform="translate(0,0)" fill="rgb(241,226,190)" d="M 995.275 586.178 C 1237.65 570.981 1446.52 754.997 1461.99 997.355 C 1477.46 1239.71 1293.68 1448.79 1051.34 1464.53 C 808.613 1480.3 599.129 1296.16 583.635 1053.42 C 568.141 810.674 752.514 601.398 995.275 586.178 z"/>
<path transform="translate(0,0)" fill="rgb(62,43,27)" d="M 1347.19 1274.58 C 1344.76 1279.1 1340.15 1283.6 1336.73 1287.5 C 1257.84 1377.67 1158.61 1431.41 1038.2 1439.23 C 936.509 1445.83 830.662 1407.67 754.371 1340.46 C 671.208 1267.19 617.053 1166.96 610.278 1055.46 C 604.42 945.006 641.939 836.63 714.837 753.438 C 778.84 681.544 862.383 630.835 958.076 615.423 C 979.406 611.988 1000.76 611.416 1022.28 610.174 C 1015.33 618.216 1012.52 624.853 1009.24 634.897 C 993.643 648.577 973.379 656.671 952.881 658.705 C 958.361 661.261 964.448 663.043 970.165 665.035 C 930.409 686.861 880.029 723.265 862.905 766.721 C 858.913 776.853 857.18 787.255 855.11 797.894 C 848.703 830.826 835.646 843.057 808.333 861.684 C 790.639 873.751 772.53 885.049 752.886 893.71 C 738.609 900.005 723.003 904.766 709.375 912.355 C 706.087 914.186 703.408 916.727 701.895 920.222 C 690.304 947.002 735.398 971.212 743.05 992.693 L 743.518 994.047 C 741.001 1000.46 738.326 1006.85 733.798 1012.16 C 727.941 1019.02 715.951 1024.56 714.294 1033.93 C 712.827 1042.23 719.277 1052.34 723.917 1058.84 C 741.556 1065.14 756.505 1073.73 772.699 1082.83 C 776.962 1085.22 781.656 1086.73 785.876 1089.2 C 779.91 1087.72 773.942 1086.06 768.361 1083.44 C 756.107 1077.7 734.809 1061.63 721.313 1064.87 C 715.796 1066.2 712.165 1070.5 709.463 1075.23 C 698.141 1095.06 719.493 1107.68 724.085 1126.02 L 724.435 1127.46 C 715.288 1150.89 691.704 1161.61 694.221 1190.6 C 698.209 1236.53 778.66 1254.2 815.835 1260.36 C 832.874 1263.18 850.445 1263.92 867.305 1267.53 C 879.047 1270.05 890.536 1274.35 901.438 1279.33 C 947.567 1300.42 981.779 1354.98 1003.34 1399.17 C 1007.24 1407.17 1012.76 1427.12 1019.84 1431.68 C 1022.03 1433.09 1023.22 1432.6 1025.51 1432.03 L 1026.21 1430.58 C 1025.61 1428.26 1024.92 1425.96 1024.01 1423.74 C 1003.99 1374.92 972.55 1315.7 928.544 1285.42 C 917.116 1277.55 903.935 1272.44 891.211 1267.1 C 912.303 1269.28 961.309 1271.84 980.765 1266.8 C 970.981 1260.13 912.104 1260.93 896.214 1259.93 C 851.45 1257.11 805.043 1251.46 762.211 1237.63 C 741.59 1230.98 715.865 1220.77 705.776 1200.05 C 691.616 1170.97 723.408 1156.32 730.74 1133.01 C 734.043 1122.51 730.188 1114.31 725.199 1105.29 C 749.977 1103.66 773.911 1099.68 798.332 1095.46 C 770.237 1075.53 764.437 1038.93 735.684 1020.7 C 743.962 1011 748.594 1002.34 751.533 989.895 C 745.159 971.555 724.237 960.075 713.846 943.738 C 709.827 937.419 707.365 931.399 709.048 923.897 C 709.427 922.211 712.048 921.043 713.513 920.159 C 725.248 913.072 739.172 909.286 751.688 903.681 C 771.723 894.708 790.976 883.446 809.448 871.628 C 832.36 856.969 852.697 840.823 860.504 813.794 C 863.369 803.872 864.803 793.587 867.1 783.529 C 878.914 731.801 933.521 696.271 975.676 670.241 C 1044.19 704.613 1059.13 760.343 1083.69 826.406 C 1090.96 845.973 1098.51 866.133 1111.17 882.927 C 1122.89 898.484 1137.2 912.45 1152.09 924.976 C 1173.17 942.709 1196.39 957.917 1210.51 982.295 C 1218.75 996.528 1225.01 1014.07 1225.16 1030.66 C 1225.5 1068.94 1185.62 1154.58 1174.18 1197.81 C 1160.46 1249.6 1157.17 1300.27 1171.14 1352.48 C 1175.3 1368.02 1180.38 1383.44 1188.5 1397.39 L 1195.5 1391.7 C 1184.5 1371.12 1178.1 1348.87 1173.91 1325.99 C 1164.26 1273.28 1174.34 1221.14 1190.67 1170.93 C 1207.84 1118.16 1244.54 1055.93 1226.04 999.145 C 1209.02 946.861 1158.22 927.755 1125.57 888.034 C 1109.68 868.707 1100.34 846.62 1091.73 823.399 C 1072.78 772.299 1056.26 715.773 1010.24 681.989 C 999.951 674.432 988.707 668.772 977.337 663.067 C 989.581 656.301 1004.82 651.344 1014.54 640.906 C 1021.96 632.936 1022.69 615.434 1032.57 611.205 C 1038.86 608.51 1046.35 611.707 1052.04 614.352 C 1066.69 621.207 1081.29 627.857 1094.79 636.856 C 1150.28 673.828 1186.32 730.885 1230.4 779.341 C 1314.19 871.472 1384.68 942.156 1347.99 1078.11 C 1337.24 1117.94 1320.78 1156.01 1309.66 1195.71 C 1298.18 1236.64 1292.67 1274.84 1301.08 1317.05 C 1303.39 1315.29 1305.7 1313.52 1307.99 1311.74 C 1283.71 1184.95 1400.37 1077.17 1356.23 943.458 C 1347.84 918.031 1335.12 893.909 1320 871.849 C 1292.81 832.202 1257.64 797.829 1226.07 761.701 C 1191.13 721.727 1160.32 678.335 1118.56 644.894 C 1106.53 635.26 1094.76 627.159 1080.62 620.965 C 1075.28 618.624 1069.09 617.274 1064.02 614.569 C 1063.52 614.304 1063.03 614.024 1062.54 613.751 C 1086.46 615.29 1110.01 618.151 1132.68 626.432 C 1179.55 649.537 1222.08 687.536 1259.59 723.31 C 1315.62 776.76 1376.59 838.911 1402.29 913.752 C 1409.67 935.691 1413.97 958.55 1415.05 981.672 C 1420 1070 1374.61 1139.44 1352.83 1221.44 C 1349.24 1234.94 1344.66 1252.45 1347.64 1266.44 C 1346.96 1268.98 1347.07 1267.19 1347.57 1268.76 C 1348.17 1270.59 1347.52 1272.73 1347.19 1274.58 z"/>
<path transform="translate(0,0)" fill="rgb(241,226,190)" d="M 1130.88 1007.08 C 1138.53 996.211 1151.27 989.845 1164.13 987.555 C 1176.4 985.369 1191.76 985.861 1202.33 992.996 C 1210.56 998.552 1215.35 1007.88 1216.99 1017.5 C 1220.38 1037.43 1211.26 1057.93 1199.56 1073.58 C 1190.82 1085.28 1180.15 1095.86 1167.94 1103.92 C 1156.2 1111.69 1142.99 1116.58 1130.94 1123.75 C 1109.85 1136.31 1091.26 1159.19 1094.8 1185.17 C 1096.27 1195.96 1101.2 1206.38 1109.96 1213.1 C 1114.67 1216.71 1120.55 1219.35 1126.59 1218.49 C 1131.19 1217.84 1136.85 1214.65 1139.54 1210.82 C 1141.97 1207.35 1143.19 1201.6 1146.63 1199.25 C 1149.08 1202.83 1148.46 1206.97 1147.68 1211.1 C 1146.72 1216.21 1144.14 1220.67 1139.61 1223.42 C 1133.15 1227.34 1124.04 1227.02 1117 1225.03 C 1106.12 1221.96 1096.98 1213.62 1091.83 1203.68 C 1085.03 1190.56 1084.95 1173.9 1089.62 1160.02 C 1094.27 1146.21 1103.4 1136.15 1113.87 1126.41 C 1097.13 1136.68 1083.53 1148.88 1078.84 1168.88 C 1075.38 1183.65 1077.63 1199.62 1085.86 1212.47 C 1092.62 1223.02 1103.83 1231.16 1116.12 1233.81 C 1125.71 1235.88 1137.19 1234.47 1145.35 1228.78 C 1151.22 1224.68 1154.76 1218.51 1155.81 1211.47 C 1157.74 1198.62 1152.47 1183.3 1144.66 1173.19 C 1140.13 1167.34 1125.36 1159.18 1124.28 1153.55 C 1125.4 1152.18 1125.07 1151.89 1126.61 1151.89 C 1133.8 1151.91 1146.5 1163.21 1150.93 1168.44 C 1161.25 1180.85 1166.21 1196.86 1164.68 1212.94 C 1163.39 1225.6 1158.26 1238.65 1148.06 1246.69 C 1136.91 1255.5 1120.32 1258.5 1106.4 1256.33 C 1089.78 1253.75 1074.96 1243.63 1065.31 1230.04 C 1054.01 1214.13 1050.53 1195.07 1053.91 1175.99 C 1056.99 1158.66 1065.77 1144.95 1080.37 1135.08 C 1090.71 1128.08 1102.37 1124.18 1114.08 1120.13 C 1145.5 1109.29 1171.27 1097.44 1192.05 1070.34 C 1200.17 1059.74 1207.86 1046.87 1210.52 1033.62 C 1212.55 1023.55 1211.21 1012.89 1205.27 1004.33 C 1200.28 997.136 1192.67 992.95 1184.13 991.559 C 1169.51 989.181 1152.48 993.773 1140.64 1002.64 C 1137.72 1004.83 1135.17 1007.45 1132.64 1010.08 C 1126.46 1020.02 1130.82 1032.09 1128.86 1043.33 C 1128.43 1044.34 1128.02 1045.35 1127.55 1046.34 C 1123.41 1055.05 1115.46 1056.69 1107 1059.66 C 1099.83 1068.29 1118.06 1078.61 1115.5 1090.07 C 1114.75 1093.44 1112.35 1097.76 1109.25 1099.42 C 1106.97 1100.65 1103.35 1100.74 1100.94 1099.91 C 1098.36 1099.01 1096.39 1096.98 1095.39 1094.46 C 1094.09 1091.21 1094.26 1086.53 1096.14 1083.53 C 1097.85 1080.82 1100.38 1080.03 1103.3 1079.38 C 1105.46 1078.89 1107.3 1078.39 1109.36 1077.57 L 1109.33 1077.56 C 1105.18 1074.3 1099.24 1070.73 1098.47 1065.11 C 1096.79 1052.82 1114.46 1054.43 1122.05 1044.13 L 1122.75 1043.16 C 1127.83 1030.39 1121.81 1019.18 1130.88 1007.08 z"/>
<path transform="translate(0,0)" fill="rgb(62,43,27)" d="M 1103.78 1083.52 C 1105.19 1083.72 1107.15 1083.82 1108.44 1084.39 C 1110.78 1085.43 1111.03 1086.18 1111.81 1088.38 C 1111.19 1091.46 1109.84 1092.81 1107.76 1095 L 1102.96 1094.97 C 1100.47 1093.37 1100.41 1093.45 1099.57 1090.63 C 1100.16 1087.28 1101.54 1085.89 1103.78 1083.52 z"/>
<path transform="translate(0,0)" fill="rgb(241,226,190)" d="M 1025.67 630.586 C 1037.99 634.897 1049.78 640.591 1060.82 647.559 C 1119.65 683.977 1132.49 743.111 1171.36 794.747 C 1189.01 818.177 1209.39 838.902 1230.02 859.676 C 1247.96 877.733 1266.5 895.12 1280.28 916.735 C 1291.68 934.612 1299.53 954.715 1305.19 975.084 C 1333.42 1076.78 1266.96 1148.94 1256.8 1244.81 C 1254.08 1270.16 1255.53 1295.78 1261.1 1320.65 C 1262.85 1328.38 1266.91 1336.22 1267.9 1344.01 C 1268.25 1346.78 1265.7 1348.58 1264.03 1350.48 L 1261.73 1349.3 C 1254.39 1336.38 1251.4 1316.25 1249.51 1301.58 C 1242.99 1250.86 1253.35 1204.19 1270.34 1156.73 C 1289.31 1103.76 1310.29 1062.78 1303.03 1003.75 C 1299.43 974.56 1288.26 945.526 1272.67 920.675 C 1259.5 899.667 1242.19 883.223 1224.87 865.784 C 1204.79 845.555 1184.93 825.528 1167.64 802.805 C 1158.03 790.177 1148.97 776.766 1141.15 762.961 C 1124.82 734.145 1111.43 704.291 1088.38 679.89 C 1076.17 666.962 1062.84 656.259 1046.95 648.213 C 1039.55 644.465 1030.77 641.239 1024.24 636.145 C 1023.62 633.489 1024.49 632.9 1025.67 630.586 z"/>
<path transform="translate(0,0)" fill="rgb(241,226,190)" d="M 1004.55 649.74 C 1005.09 649.787 1005.62 649.823 1006.15 649.88 C 1014.97 650.812 1024.01 656.288 1031.07 661.436 C 1090.83 704.975 1102.74 794.261 1143 853.368 C 1164.15 884.423 1195.3 904.811 1218.91 933.524 C 1284.88 1013.75 1239.59 1109.42 1217.11 1196.11 C 1210.45 1221.02 1206.51 1246.57 1205.35 1272.33 C 1204.28 1297.03 1206.54 1323.29 1213.08 1347.18 C 1214.71 1353.16 1224.07 1373 1223.36 1376.73 C 1223.06 1378.28 1220.7 1379.58 1219.5 1380.54 C 1212.82 1376.91 1208.73 1359.8 1206.44 1352.49 C 1179.32 1265.75 1212.33 1190.28 1233.47 1107.62 C 1241.35 1076.8 1247.31 1047.18 1244.68 1015.11 C 1241.39 975.049 1221.88 943.507 1192.59 916.747 C 1173.94 899.709 1155.12 884.786 1140.56 863.719 C 1104.56 811.615 1091.86 748.512 1054.75 697.25 C 1046.56 685.937 1037.46 675.207 1025.86 667.243 C 1022.3 664.796 1002.11 654.494 1001.25 652.617 L 1004.55 649.74 z"/>
<path transform="translate(0,0)" fill="rgb(241,226,190)" d="M 899.519 770.355 C 899.785 770.343 900.051 770.327 900.317 770.321 C 940.374 769.257 979.184 784.305 1008.06 812.093 C 1033.34 836.899 1041.51 858.257 1041.87 893.125 L 1033.6 878.04 C 1029.03 869.76 1023.71 861.916 1017.71 854.607 C 982.573 812.667 928.259 809.14 877.613 804.802 C 878.063 796.417 877.642 783.96 882.922 777.069 C 887.109 771.605 893.167 771.079 899.519 770.355 z"/>
<path transform="translate(0,0)" fill="rgb(241,226,190)" d="M 877.577 890.036 L 875.607 890.314 C 876.449 887.139 894.107 857.903 897.424 851.816 C 894.306 865.379 891.427 879.456 886.113 892.348 L 885.139 892.885 L 881.335 889.294 C 881.266 890.984 881.069 891.679 880.242 893.229 C 879.997 893.689 879.722 894.131 879.461 894.582 L 880.133 896.245 C 882.552 897.841 883.247 897.643 886.195 897.662 C 913.956 916.532 941.417 918.882 974.02 919.015 C 943.957 935.004 901.86 935.916 869.735 926.449 C 848.069 920.065 834.613 907.916 823.897 888.248 C 839.61 895.911 853.234 895.635 870.188 894.853 C 869.023 897.134 868.643 897.298 869.202 899.752 C 871.335 901.24 872.277 901.551 874.879 901.534 C 876.952 899.415 874.601 894.947 877.577 890.036 z"/>
<path transform="translate(0,0)" fill="rgb(241,226,190)" d="M 1159.52 1026.27 C 1163.32 1026.4 1166.69 1026.78 1170.02 1028.77 C 1173.38 1030.78 1175.82 1033.65 1176.75 1037.49 C 1179.4 1048.48 1174.76 1060.81 1168.79 1069.95 C 1162.28 1079.93 1154.22 1088.35 1141.91 1090.43 C 1139.74 1090.8 1139.36 1091.05 1137.56 1089.67 C 1139.1 1084.23 1150.49 1082.19 1155.33 1078.26 C 1162.96 1069.48 1170.45 1058.36 1169.84 1046.21 C 1169.64 1042.11 1168.11 1036.7 1164.62 1034.15 C 1162.49 1032.59 1160.3 1031.89 1157.68 1032.63 C 1154.19 1033.62 1151.63 1036.34 1149.71 1039.26 C 1150.95 1042.11 1154.48 1042.06 1157.05 1043.83 C 1158.43 1044.78 1157.92 1044.46 1158.21 1046.51 L 1156.58 1047.75 C 1153.9 1047.82 1151.77 1047.46 1149.24 1046.5 C 1146.06 1045.3 1145.13 1043.34 1143.79 1040.47 C 1143.69 1038.74 1143.59 1037.36 1144.43 1035.76 C 1147.37 1030.15 1153.74 1027.56 1159.52 1026.27 z"/>
<path transform="translate(0,0)" fill="rgb(241,226,190)" d="M 1169.95 1007.11 C 1175.72 1006.77 1182.43 1008.5 1187.06 1012.02 C 1192.15 1015.88 1194.25 1021.96 1194.81 1028.12 C 1195.7 1037.89 1192.79 1051.92 1186.16 1059.47 C 1184.63 1061.22 1185.45 1060.81 1183.38 1060.95 L 1183.12 1057.29 C 1186.84 1048.21 1190.37 1038.41 1188.41 1028.46 C 1187.27 1022.65 1184.18 1017.49 1179.03 1014.41 C 1170.83 1009.5 1162.91 1011.59 1154.39 1013.94 C 1159.55 1011.15 1164.3 1008.84 1169.95 1007.11 z"/>
<path transform="translate(0,0)" fill="rgb(241,226,190)" d="M 757.445 957.104 C 759.241 956.991 761.015 956.905 762.816 956.981 C 770.297 957.296 777.254 960.916 782.084 966.631 C 785.068 970.163 787.531 975.173 786.552 979.913 C 786.057 982.307 784.67 984.153 782.706 985.525 C 777.374 989.25 769.473 987.846 763.441 986.988 L 763.372 986.51 C 764.79 983.663 776.92 985.406 780.678 981.832 C 781.153 979.248 780.668 977.622 779.457 975.273 C 774.506 965.669 761.921 963.424 752.576 960.45 L 752.61 959.204 L 757.445 957.104 z"/>
<path transform="translate(0,0)" fill="rgb(62,43,27)" d="M 1149.1 628.799 C 1160.05 629.544 1173.02 637.359 1183.11 641.942 C 1242.1 668.715 1287.69 700.231 1330.43 749.074 C 1402.65 831.552 1439.4 939.199 1432.7 1048.62 C 1428.3 1114.52 1408.29 1178.43 1374.32 1235.06 C 1366.29 1248.72 1357.95 1262.87 1347.19 1274.58 C 1347.52 1272.73 1348.17 1270.59 1347.57 1268.76 C 1347.07 1267.19 1346.96 1268.98 1347.64 1266.44 C 1356.38 1255.29 1360.24 1221.17 1365.29 1205.61 C 1393.35 1119.13 1433.17 1060.37 1422.25 964.047 C 1412.38 876.921 1356.42 810.234 1298.12 749.442 C 1273.11 723.363 1247.81 697.981 1219.3 675.642 C 1206.08 665.31 1192.32 655.689 1178.08 646.817 C 1168.83 641.169 1158.14 636.189 1149.76 629.357 C 1149.54 629.175 1149.32 628.985 1149.1 628.799 z"/>
<path transform="translate(0,0)" fill="rgb(241,226,190)" d="M 331.315 363.576 C 341.418 369.882 353.11 386.969 362.095 396.081 C 381.378 415.634 402.043 433.237 424.936 448.438 C 459.619 471.466 496.709 486.962 534.622 503.788 C 576.024 522.163 620.395 543.138 654.84 572.757 C 672.138 587.631 687.424 605.064 701.839 622.704 C 716.434 640.563 730.069 658.611 741.552 678.664 C 731.944 686.152 723.136 694.755 714.167 702.99 C 683.819 646.47 636.669 595.674 583.447 559.96 C 563.572 546.624 542.549 535.466 521.462 524.211 C 490.333 507.596 457.799 492.101 429.091 471.475 C 407.724 456.124 388.266 436.249 371.172 416.265 C 364.336 408.273 358.273 398.502 350.556 391.445 L 350.251 392.507 C 414.286 492.328 484.703 502.098 574.561 561.887 C 631.135 599.529 675.269 649.516 709.786 707.807 C 700.179 718.156 690.452 728.394 680.607 738.519 C 636.984 656.901 592.053 602.951 510.708 556.237 C 474.318 535.34 437.821 515.217 407.99 485.089 C 372.899 449.648 351.766 408.34 331.315 363.576 z"/>
<path transform="translate(0,0)" fill="rgb(241,226,190)" d="M 603.143 1194.15 C 607.13 1196.27 619.882 1226.05 622.91 1231.89 C 572.595 1248.98 528.597 1274.86 488.046 1309.31 C 474.109 1321.16 461.367 1334.31 447.853 1346.61 C 423.21 1369.05 396.963 1391.24 369.805 1410.59 C 342.243 1430.24 312.994 1445.23 281.785 1458.15 C 263.257 1465.82 244.377 1474.48 224.481 1477.81 L 224.444 1477.22 C 251.219 1467.54 279.19 1452.51 304.287 1438.96 C 313.86 1433.25 324.242 1428.83 332.865 1421.65 L 332.886 1419.66 C 328.557 1418.67 318.456 1426.78 314.628 1429.25 C 290.909 1444.54 264.886 1457.37 238.897 1468.31 C 251.067 1458.54 266.437 1450.9 279.605 1442.37 C 304.783 1426.05 329.85 1408.27 353.314 1389.56 C 404.502 1348.77 447.817 1299.8 497.169 1256.95 C 513.435 1242.83 529.495 1228.54 548.003 1217.34 C 565.596 1206.71 583.473 1199.75 603.143 1194.15 z"/>
<path transform="translate(0,0)" fill="rgb(72,44,8)" d="M 449.338 1316.57 C 450.326 1318.63 451.445 1321.12 450.502 1323.36 C 448.943 1327.05 445.206 1328.6 441.787 1330.17 C 440.37 1328.68 440.383 1328.9 439.791 1326.67 C 441.67 1322.51 445.957 1319.55 449.338 1316.57 z"/>
<path transform="translate(0,0)" fill="rgb(72,44,8)" d="M 589.236 1220.67 C 591.469 1221.1 591.905 1221.12 593.559 1222.63 L 593.233 1223.94 C 590.413 1226.57 586.859 1227.66 583.33 1229.03 C 581.905 1229.29 581.377 1229.09 580.016 1228.7 L 580.341 1226.71 C 583.037 1223.74 585.64 1222.4 589.236 1220.67 z"/>
<path transform="translate(0,0)" fill="rgb(72,44,8)" d="M 406.136 1358.68 C 408.052 1359.92 408.062 1359.77 408.559 1361.98 C 406.824 1365.43 403.16 1367.82 400.221 1370.24 C 398.198 1369.32 398.054 1369.75 397.167 1367.55 C 398.679 1364.09 403.268 1361.12 406.136 1358.68 z"/>
<path transform="translate(0,0)" fill="rgb(72,44,8)" d="M 417.57 1347.52 C 419.075 1348.43 419.688 1349.15 420.616 1350.64 C 419.234 1354.18 416.069 1355.91 413.139 1358.26 L 410.936 1357.67 L 410.082 1356.08 C 411.36 1352.41 414.755 1350.04 417.57 1347.52 z"/>
<path transform="translate(0,0)" fill="rgb(72,44,8)" d="M 369.653 1388.66 C 371.202 1390.07 371.303 1390.44 371.913 1392.46 C 370.411 1395.71 366.399 1397.67 363.497 1399.6 C 362.196 1399.66 362.94 1399.79 361.471 1398.58 C 361.518 1398.22 361.529 1397.85 361.613 1397.49 C 362.583 1393.35 366.403 1390.95 369.653 1388.66 z"/>
<path transform="translate(0,0)" fill="rgb(72,44,8)" d="M 588.429 1209.84 C 589.844 1209.95 590.205 1210.26 591.365 1211.02 L 591.053 1212.47 C 588.346 1215.03 585.72 1216.18 582.306 1217.62 L 579.618 1216.29 L 579.039 1214.53 C 581.236 1211.99 585.314 1211 588.429 1209.84 z"/>
<path transform="translate(0,0)" fill="rgb(72,44,8)" d="M 599.233 1205.19 C 602.199 1204.92 604.856 1204.33 607.564 1205.87 L 607.838 1207.87 L 605.783 1210.43 C 602.71 1210.98 600.078 1211.65 597.29 1209.92 C 597.23 1207.3 597.567 1207.26 599.233 1205.19 z"/>
<path transform="translate(0,0)" fill="rgb(72,44,8)" d="M 425.353 1339.54 C 427.075 1340.12 427.259 1340.63 428.442 1341.94 C 428.708 1345 426.881 1347.07 425.29 1349.51 C 423.836 1348.27 422.762 1346.98 421.596 1345.47 C 422.128 1342.45 423.299 1341.74 425.353 1339.54 z"/>
<path transform="translate(0,0)" fill="rgb(241,226,190)" d="M 1443.89 864.704 C 1522.82 870.766 1583.11 866.96 1655.09 829.969 C 1677.77 818.31 1699.37 804.522 1721.93 792.576 C 1749.93 777.745 1777.88 763.656 1809.12 756.814 C 1849.52 747.963 1887.14 752.413 1927.76 753.598 C 1921.22 755.614 1915.01 755.783 1908.2 755.966 C 1906.58 757.12 1904.87 758.224 1903.34 759.487 C 1896.55 761.14 1888.25 762.407 1881.23 762.697 C 1852.7 768.44 1825.79 775.28 1799.06 787.037 L 1798.85 785.587 C 1800.85 784.645 1802.64 784.044 1804.13 782.365 L 1800.96 781.31 C 1773.88 792.124 1749 807.896 1723.87 822.516 C 1626.51 879.154 1573.86 909.514 1456.7 904.455 L 1443.89 864.704 z"/>
<path transform="translate(0,0)" fill="rgb(72,44,8)" d="M 1877.23 759.341 C 1887.49 757.589 1897.84 756.831 1908.2 755.966 C 1906.58 757.12 1904.87 758.224 1903.34 759.487 C 1896.55 761.14 1888.25 762.407 1881.23 762.697 C 1852.7 768.44 1825.79 775.28 1799.06 787.037 L 1798.85 785.587 C 1800.85 784.645 1802.64 784.044 1804.13 782.365 L 1800.96 781.31 C 1824.77 770.152 1851.41 763.832 1877.23 759.341 z"/>
<path transform="translate(0,0)" fill="rgb(241,226,190)" d="M 479.05 1609.36 L 479.628 1608.65 C 503.517 1578.65 520.802 1542.4 539.586 1509.08 C 579.191 1438.83 640.925 1388.21 711.899 1351.58 C 722.15 1360.01 731.348 1369.99 742.136 1377.68 C 725.725 1388.56 707.931 1397 690.64 1406.35 C 664.872 1420.27 639.485 1437.12 618.415 1457.54 C 587.155 1487.84 564.589 1523.4 542.156 1560.38 C 497.542 1633.93 452.318 1666.4 376.31 1702.67 C 385.058 1695.15 394.83 1688.87 404.328 1682.35 L 401.951 1680.85 C 429.392 1659.68 452.455 1636.41 473.619 1608.94 C 473.556 1609.49 473.507 1610.05 473.43 1610.6 C 473.179 1612.41 472.808 1613.59 472.075 1615.23 L 470.89 1614.45 L 471.495 1616.98 L 470.333 1615.98 L 470.68 1617.72 C 471.731 1616.28 470.701 1617.85 471.536 1615.94 C 472.513 1613.7 475.797 1610.18 478.176 1609.48 C 478.458 1609.4 478.759 1609.4 479.05 1609.36 z"/>
<path transform="translate(0,0)" fill="rgb(72,44,8)" d="M 473.619 1608.94 C 473.556 1609.49 473.507 1610.05 473.43 1610.6 C 473.179 1612.41 472.808 1613.59 472.075 1615.23 L 470.89 1614.45 L 471.495 1616.98 L 470.333 1615.98 L 470.68 1617.72 C 471.731 1616.28 470.701 1617.85 471.536 1615.94 C 472.513 1613.7 475.797 1610.18 478.176 1609.48 C 478.458 1609.4 478.759 1609.4 479.05 1609.36 C 459.89 1637.76 432.065 1662.45 404.328 1682.35 L 401.951 1680.85 C 429.392 1659.68 452.455 1636.41 473.619 1608.94 z"/>
<path transform="translate(0,0)" fill="rgb(241,226,190)" d="M 922.402 1466.81 C 933.186 1468.21 943.948 1469.79 954.683 1471.53 L 952.7 1488.72 C 931.831 1514.98 909.857 1540.31 896.251 1571.39 C 878.932 1610.95 876.17 1651.49 875.921 1693.96 C 875.347 1791.73 861.425 1845.62 803.186 1926.12 C 799.522 1931.38 795.683 1936.4 791.65 1941.38 L 790.188 1941.74 L 789.56 1943.36 L 789.517 1943.06 L 790.224 1942.84 L 789.996 1941.94 L 789.544 1943.34 L 791.048 1941.94 L 790.548 1940.91 C 814.641 1901.79 835.187 1857.44 842.551 1811.78 C 847.68 1779.98 847.057 1746.95 846.252 1714.85 C 845.611 1689.32 844.496 1663.55 846.454 1638.05 C 851.797 1568.48 879.659 1519.84 922.402 1466.81 z"/>
<path transform="translate(0,0)" fill="rgb(241,226,190)" d="M 95.3324 787.541 C 164.628 817.495 239.229 821.3 313.432 815.795 C 341.991 813.676 370.654 809.76 399.306 809.62 C 458.679 809.33 516.553 823.449 570.716 847.168 C 582.842 852.479 595.42 857.834 606.743 864.719 L 602.383 876.237 C 599.31 884.516 596.321 892.827 593.419 901.167 C 537.803 870.526 485.78 845.641 421.063 841.472 C 391.634 839.576 362.07 841.671 332.626 842.028 C 298.164 842.447 263.136 840.428 229.098 834.873 C 201.31 830.339 171.895 822.78 145.85 812.217 C 134.106 807.455 122.706 800.583 110.966 796.296 L 110.135 797.462 C 105.177 794.204 100.121 791.043 95.3324 787.541 z"/>
<path transform="translate(0,0)" fill="rgb(241,226,190)" d="M 91.2431 1017.92 C 115.271 1016.24 139.382 1015.78 163.406 1013.91 C 197.451 1011.26 231.325 1006.75 264.878 1000.4 C 354.454 984.152 442.855 945.598 535.544 958.073 C 550.496 960.085 564.875 963.828 579.387 967.811 L 576.94 979.278 C 571.825 977.586 567.038 976.033 561.597 976.512 L 560.546 978.046 C 565.09 979.674 572.408 981.085 575.95 984.065 C 575.766 986.922 575.833 987.464 574.173 989.747 C 565.96 992.565 545.34 978.298 540.816 984.942 C 551.334 989.338 563.356 991.593 574.301 994.935 C 573.967 999.573 573.757 1004.26 573.279 1008.88 C 555.38 1004.16 537.741 998.913 519.377 996.228 C 422.733 982.095 332.979 1021.37 238.09 1029.32 C 204.069 1032.17 170.017 1029.17 136.264 1024.75 C 143.533 1024.02 150.685 1023.57 157.99 1023.46 L 159.113 1021.3 C 136.834 1022.68 113.254 1022.24 91.2431 1017.92 z"/>
<path transform="translate(0,0)" fill="rgb(72,44,8)" d="M 401.055 981.311 C 406.847 982.924 425.629 978.94 432.61 978.401 C 450.287 977.036 529.427 974.458 539.716 985.035 L 538.718 984.998 C 528.199 984.531 517.691 982.777 507.168 981.978 C 481.747 980.046 455.05 979.457 429.65 981.91 C 393.218 985.428 357.858 995.246 322.141 1002.78 C 268.162 1014.16 213.204 1022.52 157.99 1023.46 L 159.113 1021.3 C 214.128 1020.19 270.111 1010.49 323.859 999.19 C 349.539 993.788 375.04 988.476 399.812 979.721 L 401.055 981.311 z"/>
<path transform="translate(0,0)" fill="rgb(72,44,8)" d="M 399.812 979.721 C 433.742 968.874 466.3 965.128 501.783 964.767 C 498.958 967.871 497.978 968.846 493.553 969.076 C 473.166 970.135 418.236 972.141 401.055 981.311 L 399.812 979.721 z"/>
<path transform="translate(0,0)" fill="rgb(72,44,8)" d="M 502.467 964.997 C 512.756 964.915 552.171 967.693 559.476 973.931 C 560.382 974.704 560.924 975.568 561.597 976.512 L 560.546 978.046 C 548.842 973.871 533.516 970.323 521.101 969.1 C 515.149 968.514 508.612 971.279 502.996 968.382 L 502.467 964.997 z"/>
<path transform="translate(0,0)" fill="rgb(241,226,190)" d="M 1336.74 1342.2 C 1343.82 1349.97 1351.79 1368.08 1357.86 1377.9 C 1377.25 1409.64 1401.7 1437.99 1430.23 1461.85 C 1453.48 1481.66 1478.94 1498.72 1506.09 1512.69 C 1524.41 1522 1543.47 1529.8 1561.71 1539.27 C 1611.76 1565.26 1651.79 1598.41 1685.05 1643.97 C 1691.64 1653.01 1698.78 1662.07 1704.33 1671.8 L 1703.84 1672.18 C 1698.86 1667.46 1694.07 1662.59 1689.29 1657.67 C 1665.9 1634.42 1641.23 1611.73 1613.45 1593.77 C 1577.5 1570.51 1538.04 1554.48 1499.07 1537.21 C 1432.21 1507.57 1394.79 1480.59 1346.11 1425.48 C 1331.27 1408.68 1316.15 1391.14 1303.64 1372.51 C 1314.9 1362.66 1325.94 1352.56 1336.74 1342.2 z"/>
<path transform="translate(0,0)" fill="rgb(241,226,190)" d="M 1656.48 352.457 L 1657.65 351.048 C 1659.38 351.978 1660.04 352.628 1661.33 354.046 C 1647.25 365.077 1632.23 375.913 1619.42 388.399 C 1614.33 393.364 1601.3 408.716 1596.85 411.106 L 1596.81 408.517 C 1598.2 407.091 1601.39 404.492 1601.45 402.566 C 1592.47 409.742 1582.33 428.064 1574.36 431.902 C 1564.05 439.527 1529.43 504.083 1519.96 519.835 C 1477.88 589.823 1444.1 625.068 1376.62 669.927 C 1362.36 679.403 1348.22 689.177 1333.53 697.956 C 1324.26 689.653 1314.86 681.493 1305.33 673.477 C 1310.33 666.731 1316.02 660.361 1321.37 653.89 C 1339.26 650.626 1356.25 639.528 1372.04 630.812 C 1397.9 616.54 1422.29 600.506 1442.67 578.875 C 1456.83 563.851 1468.39 546.315 1479.87 529.223 C 1519.88 469.647 1550.38 413.162 1614.31 374.584 C 1627.72 366.49 1641.72 357.79 1656.48 352.457 z"/>
<path transform="translate(0,0)" fill="rgb(72,44,8)" d="M 1656.48 352.457 L 1657.65 351.048 C 1659.38 351.978 1660.04 352.628 1661.33 354.046 C 1647.25 365.077 1632.23 375.913 1619.42 388.399 C 1614.33 393.364 1601.3 408.716 1596.85 411.106 L 1596.81 408.517 C 1598.2 407.091 1601.39 404.492 1601.45 402.566 C 1592.47 409.742 1582.33 428.064 1574.36 431.902 C 1585.06 412.432 1613.25 385.812 1631.18 371.569 C 1638.88 365.453 1647.91 360.327 1655.13 353.716 L 1656.48 352.457 z"/>
<path transform="translate(0,0)" fill="rgb(241,226,190)" d="M 110.135 797.462 C 121.804 803.169 132.66 809.869 144.709 815.003 C 205.761 841.018 272.55 849.248 338.438 848.728 C 375.01 848.44 411.603 846.392 447.881 852.437 C 499.044 860.962 546.669 882.617 591.805 907.354 C 588.694 919.286 585.77 931.266 583.035 943.29 C 582.31 946.245 582.3 948.32 580.074 950.455 C 571.312 944.634 563.402 937.567 554.888 931.38 C 532.857 915.239 508.461 902.606 482.565 893.929 C 418.986 873.315 363.37 880.446 298.964 874.529 C 252.712 870.279 207.941 855.886 166.647 834.896 C 148.835 825.842 123.49 811.879 110.135 797.462 z"/>
<path transform="translate(0,0)" fill="rgb(241,226,190)" d="M 1454.89 1138.23 C 1495.99 1162.09 1528.94 1181.08 1575.99 1192.69 C 1638.93 1208.22 1703.58 1203.07 1767.64 1208.07 C 1804.28 1210.93 1839.52 1218.41 1874.44 1229.87 C 1888.63 1234.53 1905.83 1239.18 1918.6 1246.88 L 1904.95 1243.63 C 1826.69 1222.28 1754.61 1230.05 1675 1233.39 C 1639.22 1234.89 1603.51 1236.07 1568.08 1229.6 C 1540.44 1224.55 1513.74 1214.57 1488.57 1202.21 C 1473.15 1194.63 1455.67 1186.3 1442.45 1175.3 C 1446.81 1163 1451.09 1150.72 1454.89 1138.23 z"/>
<path transform="translate(0,0)" fill="rgb(241,226,190)" d="M 372.917 1701.49 C 409.511 1666.54 438.18 1631.4 463.855 1587.58 C 478.206 1563.09 489.53 1537.04 502.335 1511.74 C 537.934 1441.42 576.552 1377.84 645.065 1334.87 C 655.971 1328.02 667.106 1321.24 678.886 1316.01 L 706.51 1346.95 C 636.406 1384.26 578.392 1432.06 536.938 1500.53 C 524.896 1520.43 514.718 1541.38 503.287 1561.62 C 494.142 1577.81 483.746 1593.35 473.619 1608.94 C 452.455 1636.41 429.392 1659.68 401.951 1680.85 C 392.196 1687.63 382.978 1695.15 372.917 1701.49 z"/>
<path transform="translate(0,0)" fill="rgb(241,226,190)" d="M 1661.33 354.046 C 1663.61 352.535 1665.25 351.092 1668.02 350.732 C 1662.67 358.293 1655.02 365.114 1648.8 372.061 C 1631.64 391.239 1613.75 411.175 1600.1 433.084 C 1591.63 446.694 1582.91 460.497 1575.39 474.653 C 1560.77 502.207 1548.19 530.882 1533.73 558.536 C 1493.93 634.635 1440.61 691.565 1365.78 734.151 C 1357.08 722.986 1347.76 712.328 1337.84 702.229 C 1423.71 645.912 1463.4 623.814 1519.22 533.711 C 1533.18 511.168 1545.08 487.38 1558.99 464.775 C 1566.23 452.997 1574.01 441.564 1582.32 430.511 C 1587.08 424.107 1592.58 417.81 1596.85 411.106 C 1601.3 408.716 1614.33 393.364 1619.42 388.399 C 1632.23 375.913 1647.25 365.077 1661.33 354.046 z"/>
<path transform="translate(0,0)" fill="rgb(241,226,190)" d="M 759.302 136.273 C 758.945 132.121 758.065 127.784 759.62 123.823 L 761.052 122.94 C 764.594 125.832 764.913 129.532 765.301 133.92 C 765.429 135.374 765.386 136.27 764.927 137.64 C 763.602 143.971 765.189 149.561 764.775 155.768 L 767.519 178.995 L 766.056 178.015 C 764.893 174.298 764.662 171.356 764.697 167.472 C 763.602 169.581 763.684 173.118 764.252 175.404 C 764.585 176.745 764.784 176.947 765.399 177.983 C 764.887 179.769 764.365 181.553 763.834 183.334 C 770.061 238.082 791.349 276.362 819.463 322.111 C 877.873 417.158 907.816 476.863 899.871 591.169 C 886.588 595.469 873.389 599.765 860.429 604.973 C 868.926 557.477 870.601 501.184 855.737 455.053 C 845.962 424.719 828.683 396.364 812.362 369.209 C 780.922 316.904 759.686 264.728 756.603 202.969 C 755.627 183.417 754.943 155.23 759.302 136.273 z"/>
<path transform="translate(0,0)" fill="rgb(72,44,8)" d="M 759.302 136.273 C 758.945 132.121 758.065 127.784 759.62 123.823 L 761.052 122.94 C 764.594 125.832 764.913 129.532 765.301 133.92 C 765.429 135.374 765.386 136.27 764.927 137.64 C 763.602 143.971 765.189 149.561 764.775 155.768 L 767.519 178.995 L 766.056 178.015 C 764.893 174.298 764.662 171.356 764.697 167.472 C 763.602 169.581 763.684 173.118 764.252 175.404 C 764.585 176.745 764.784 176.947 765.399 177.983 C 764.887 179.769 764.365 181.553 763.834 183.334 C 762.657 177.071 762.28 170.477 761.587 164.131 C 760.791 155.112 761.414 145.028 759.302 136.273 z"/>
<path transform="translate(0,0)" fill="rgb(241,226,190)" d="M 1220.8 1427.15 C 1225.27 1424.82 1229.71 1422.36 1234.26 1420.22 C 1252.56 1485.87 1295.6 1542.27 1340.53 1592.28 C 1358.36 1612.13 1377.17 1631.24 1393.95 1652.01 C 1435.09 1702.94 1470.12 1763.1 1490.84 1825.28 C 1480.2 1806.69 1471.44 1786.97 1460.89 1768.28 C 1445.32 1740.69 1426.71 1715.02 1407.33 1690.04 C 1398.67 1678.88 1389.75 1666.17 1378.74 1657.2 C 1365.94 1647.33 1356.79 1633.37 1344.16 1623.31 C 1345.19 1631.28 1370.86 1653 1377.86 1659.74 C 1405.46 1686.28 1451.99 1752.76 1468.05 1786.96 C 1469.68 1790.43 1472.43 1794.33 1472.49 1798.18 C 1461.99 1777.53 1445.05 1755.09 1430.84 1736.59 C 1399.85 1696.23 1365.6 1659.85 1330.26 1623.33 C 1274.44 1565.66 1222.94 1516.34 1192.18 1440.37 C 1201.6 1435.57 1211.67 1432.62 1220.8 1427.15 z"/>
<path transform="translate(0,0)" fill="rgb(72,44,8)" d="M 1238.22 1468.84 L 1235.49 1469.82 C 1233.25 1468.38 1232.23 1466.71 1230.9 1464.48 C 1226.76 1457.55 1216.44 1440.79 1218.5 1432.83 L 1220.18 1432.39 L 1222.25 1434.39 C 1224.4 1445.5 1231.43 1459.77 1238.22 1468.84 z"/>
<path transform="translate(0,0)" fill="rgb(241,226,190)" d="M 536.232 1142.43 C 553.269 1141.6 571.124 1142.08 588.047 1144.22 L 601.264 1187.46 C 555.961 1178.67 509.611 1174.78 464.303 1186.19 C 432.517 1194.19 403.592 1211.2 375.066 1226.83 C 323.628 1255.02 273.421 1280.87 214.969 1290.69 C 189.228 1294.06 163.538 1295.78 137.643 1292.92 C 219.182 1285.5 286.73 1247.45 355.381 1205.75 C 381.012 1190.18 406.125 1173.34 434.156 1162.32 C 467.116 1149.37 501.041 1144.1 536.232 1142.43 z"/>
<path transform="translate(0,0)" fill="rgb(241,226,190)" d="M 1252.71 119.834 C 1252.12 128.937 1242.02 150.777 1239.01 161.645 C 1232.33 185.785 1229.36 211.723 1227.66 236.659 C 1225.06 274.79 1229.82 312.642 1232.66 350.601 C 1239.95 447.87 1222.94 516.229 1175.5 600.864 L 1149.61 592.912 L 1134.42 588.71 C 1141.21 576.081 1150.17 564.342 1157.48 551.955 C 1178.67 516.543 1193.75 477.816 1202.08 437.399 C 1210.5 396.562 1206.32 355.317 1204.16 314.117 C 1200.85 245.987 1217.74 178.399 1252.71 119.834 z"/>
<path transform="translate(0,0)" fill="rgb(241,226,190)" d="M 1465.38 1090.04 C 1500.09 1116.25 1536.43 1141.48 1578.1 1155.28 C 1647.92 1178.4 1701.09 1167.21 1769.49 1177.67 C 1805.42 1183.16 1840.49 1197.12 1873.27 1212.5 C 1892.46 1221.51 1928.07 1240.51 1943.89 1254.19 L 1943.39 1254.83 L 1939.73 1253.99 C 1927.3 1249.28 1915.57 1242.51 1903.24 1237.43 C 1866.79 1222.35 1828.77 1211.41 1789.88 1204.84 C 1757.11 1199.58 1723.16 1199.78 1690.05 1198.81 C 1598.41 1196.13 1534.1 1183.64 1456.75 1131.5 C 1460.4 1117.88 1462.8 1103.9 1465.38 1090.04 z"/>
<path transform="translate(0,0)" fill="rgb(241,226,190)" d="M 1253.74 108.841 C 1254.16 109.294 1254.27 109.957 1254.5 110.531 C 1245.99 122.399 1239.23 135.723 1232.89 148.857 C 1208.87 198.636 1196.36 251.656 1197.43 307.023 C 1198.16 344.984 1202.38 382.442 1197.32 420.344 C 1189.24 480.793 1161.98 537.588 1127.75 587.368 C 1120.56 585.166 1113.11 583.664 1105.78 581.969 L 1094.04 580.091 C 1094.84 573.83 1094.87 567.489 1095.08 561.186 C 1118.67 528.09 1146.6 493.303 1159.79 454.413 C 1170.48 422.92 1171.07 390.173 1171.53 357.321 C 1171.87 332.267 1171.89 307.057 1174.94 282.151 C 1182.89 217.414 1213.31 159.21 1253.74 108.841 z"/>
<path transform="translate(0,0)" fill="rgb(241,226,190)" d="M 1145.02 1458.32 C 1157.81 1453.77 1170.86 1449.65 1183.51 1444.74 L 1188.38 1455.46 C 1181.58 1489.48 1177.38 1526.81 1183.04 1561.22 C 1190.89 1608.92 1215.67 1646.21 1238.75 1687.36 C 1267.67 1738.95 1284.84 1788.87 1288.4 1848.28 C 1289.51 1866.79 1289.98 1902.16 1285.33 1919.03 C 1283.99 1917.78 1284.25 1917.36 1283.97 1915.62 C 1283.04 1911.46 1279.95 1908.35 1280.22 1904.15 C 1284.03 1883.79 1270.3 1829.31 1263.68 1806.91 L 1265.3 1806.86 C 1266.51 1809.63 1267.8 1812.46 1268.3 1815.46 C 1268.38 1815.91 1268.38 1816.37 1268.41 1816.82 C 1269.88 1806.07 1253.83 1777.49 1252.5 1763.94 C 1243.19 1736.67 1217.56 1700.82 1201.57 1676.41 C 1168.07 1625.27 1148.88 1577.03 1144.04 1515.91 C 1142.54 1496.96 1142.07 1477.15 1145.02 1458.32 z"/>
<path transform="translate(0,0)" fill="rgb(72,44,8)" d="M 1252.5 1763.94 C 1273.89 1808.62 1285.61 1866.05 1283.97 1915.62 C 1283.04 1911.46 1279.95 1908.35 1280.22 1904.15 C 1284.03 1883.79 1270.3 1829.31 1263.68 1806.91 L 1265.3 1806.86 C 1266.51 1809.63 1267.8 1812.46 1268.3 1815.46 C 1268.38 1815.91 1268.38 1816.37 1268.41 1816.82 C 1269.88 1806.07 1253.83 1777.49 1252.5 1763.94 z"/>
<path transform="translate(0,0)" fill="rgb(241,226,190)" d="M 1369.05 1305.82 C 1374.08 1309.92 1403.54 1367.02 1409.94 1377.49 C 1420.52 1394.78 1432.6 1411.98 1446.44 1426.81 C 1483.1 1466.11 1529.61 1482.59 1573.18 1510.91 C 1624.03 1543.96 1656.1 1579.97 1687.35 1631.79 C 1692.95 1641.06 1701.94 1653.95 1704.16 1664.35 C 1700.57 1661.62 1698.1 1656.4 1695.71 1652.57 C 1665.25 1601.72 1612.61 1559.29 1560.78 1531.95 C 1535.87 1518.81 1509.8 1507.93 1485.53 1493.54 C 1423.13 1456.72 1373.23 1402 1342.29 1336.49 C 1351.82 1326.78 1360.54 1316.42 1369.05 1305.82 z"/>
<path transform="translate(0,0)" fill="rgb(241,226,190)" d="M 873.644 1453.57 C 887.592 1456.38 900.814 1462.13 914.969 1464.78 C 872.413 1519.48 844.083 1572.92 839.859 1643.93 C 838.456 1667.53 839.567 1691.31 840.355 1714.92 C 841.571 1751.41 841.836 1788.46 834.887 1824.47 C 829.377 1853.02 818.313 1880.03 806.33 1906.38 C 801.664 1915.38 796.759 1924.98 790.581 1933.03 C 823.792 1855.37 818.362 1780.57 813.456 1698.43 C 811.105 1659.07 809.444 1620.93 818.231 1582.08 C 824.459 1554.54 835.134 1525.61 847.935 1500.4 C 855.987 1484.54 865.474 1469.4 873.644 1453.57 z"/>
<path transform="translate(0,0)" fill="rgb(241,226,190)" d="M 555.739 1096.45 C 563.402 1096.13 570.916 1096.49 578.568 1096.96 C 579.984 1110.56 583.198 1124.15 586.366 1137.44 C 547.315 1135.78 509.775 1134.66 471.303 1143.47 C 419.406 1155.35 380.282 1183.32 335.863 1210.37 C 276.297 1246.64 224.076 1274.14 155.209 1288.28 C 144.511 1290.17 134.982 1291.63 124.094 1290.84 C 138.872 1285.42 154.722 1282.48 169.656 1277.29 C 201.898 1266.08 232.11 1249.29 261.39 1231.91 C 280.249 1220.71 298.15 1207.54 316.15 1195.02 C 398.652 1137.62 451.205 1100.2 555.739 1096.45 z"/>
<path transform="translate(0,0)" fill="rgb(241,226,190)" d="M 1098.82 1469.91 C 1112.01 1467.51 1125.11 1463.55 1138.08 1460.12 C 1131.01 1526.96 1145.4 1594.32 1179.18 1652.43 C 1194.95 1679.25 1213.56 1704.36 1229.46 1731.12 C 1243.77 1755.2 1254.7 1780.43 1263.68 1806.91 C 1270.3 1829.31 1284.03 1883.79 1280.22 1904.15 C 1269.97 1858.71 1259.31 1824.26 1235.88 1783.56 C 1219.1 1754.4 1196.83 1728.7 1176.82 1701.78 C 1122.81 1629.1 1099.6 1560 1098.82 1469.91 z"/>
<path transform="translate(0,0)" fill="rgb(241,226,190)" d="M 1903.34 759.487 L 1908.32 760.255 C 1907.64 761.71 1907.29 761.468 1905.77 762.009 C 1898.53 764.581 1890.86 766.077 1883.51 768.409 C 1860.12 775.835 1837.5 784.431 1815.91 796.226 C 1789.64 810.588 1765.75 829.751 1741.14 846.797 C 1669 896.765 1614.2 932.263 1525.53 945.583 C 1506.35 948.465 1486.23 950.805 1466.84 951.076 C 1464.55 937.815 1462.2 924.456 1458.68 911.456 C 1483.84 911.368 1509.01 911.742 1534.03 908.723 C 1638.47 896.123 1709.49 833.168 1799.06 787.037 C 1825.79 775.28 1852.7 768.44 1881.23 762.697 C 1888.25 762.407 1896.55 761.14 1903.34 759.487 z"/>
<path transform="translate(0,0)" fill="rgb(241,226,190)" d="M 558.382 231.645 C 567.022 238.321 578.351 257.508 585.061 266.867 C 602.158 290.71 618.964 315.384 637.856 337.852 C 666.353 371.08 695.964 403.336 726.639 434.564 C 756.117 464.138 786.707 491.051 811.595 524.914 C 830.003 549.96 843.338 579.005 853.252 608.357 L 842.362 613.141 C 837.335 593.738 829.456 575.386 819.794 557.847 C 815.081 549.293 784.773 503.246 777.77 501.225 C 777.815 503.97 778.183 504.958 779.78 507.188 C 785.385 515.015 792.029 522.194 797.794 529.937 C 811.63 548.521 822.222 568.648 831.216 589.947 C 833.658 595.731 837.178 602.028 838.313 608.235 C 838.903 611.46 838.304 613.09 836.452 615.694 C 833.98 616.708 833.917 617.272 831.246 616.432 C 827.035 609.409 825.028 600.085 822.031 592.375 C 807.812 557.148 785.989 523.907 762.367 494.252 C 758.222 489.049 754.127 482.941 748.914 478.782 L 747.869 479.255 C 749.62 485.638 770.772 509.677 775.799 517.278 C 797.492 550.082 816.425 582.736 827.976 620.563 C 823.86 622.658 819.798 624.877 815.714 627.035 C 796.551 555.963 753.019 499.852 702.804 447.617 C 679.04 422.896 655.125 399.424 634.018 372.294 C 601.264 330.193 577.286 281.246 558.382 231.645 z"/>
<path transform="translate(0,0)" fill="rgb(241,226,190)" d="M 749.176 1383.83 C 760.38 1391.68 771.674 1399.4 783.057 1406.99 C 772.351 1416.57 761.778 1426.1 753.025 1437.57 C 712.135 1491.11 695.353 1576.88 673.152 1640.1 C 652.661 1698.45 619.35 1761.73 575.661 1806 C 589.576 1784.45 603.771 1762.73 616.349 1740.37 C 621.826 1730.64 626.878 1717.59 632.356 1708.94 L 636.398 1702.42 C 635.022 1701.42 634.436 1701.17 632.86 1700.71 L 631.054 1702.32 C 622.643 1730.47 580.541 1798.47 561.438 1820.43 C 588.51 1768.66 616.248 1717.1 636.908 1662.31 C 648.182 1632.42 657.485 1601.77 666.472 1571.13 C 685.364 1506.71 703.344 1435.04 749.176 1383.83 z"/>
<path transform="translate(0,0)" fill="rgb(72,44,8)" d="M 697.032 1506.57 L 701.531 1507.25 C 702.708 1510.33 700.719 1513.55 699.612 1516.61 C 697.405 1516.64 697.58 1516.33 695.937 1515.05 C 695.12 1511.91 696.109 1509.55 697.032 1506.57 z"/>
<path transform="translate(0,0)" fill="rgb(72,44,8)" d="M 733.078 1429.29 C 734.811 1430.15 735.941 1431.12 737.337 1432.45 C 737.519 1435.65 736.364 1436.67 734.722 1439.36 C 732.393 1439.19 732.517 1439.17 730.937 1437.43 C 730.644 1434.32 731.869 1432.06 733.078 1429.29 z"/>
<path transform="translate(0,0)" fill="rgb(72,44,8)" d="M 694.358 1518.53 C 695.78 1519.51 696.246 1520.16 697.208 1521.55 C 697.561 1525.19 696.141 1527.62 694.61 1530.85 C 693.587 1529.83 692.656 1528.66 691.705 1527.57 C 691.44 1523.64 692.672 1522.03 694.358 1518.53 z"/>
<path transform="translate(0,0)" fill="rgb(72,44,8)" d="M 706.216 1485.4 C 707.364 1486.02 708.328 1486.9 709.347 1487.71 C 709.883 1491.16 708.87 1492.74 707.65 1495.96 C 706.328 1495.14 705.075 1494.23 703.803 1493.33 C 703.265 1490.01 704.746 1488.37 706.216 1485.4 z"/>
<path transform="translate(0,0)" fill="rgb(241,226,190)" d="M 963.064 1472.84 C 975.871 1473.8 988.549 1475.43 1001.39 1476.19 C 997.171 1496.89 996.362 1518.13 996.53 1539.2 C 997.101 1575.36 1000.86 1611.39 1007.78 1646.88 C 1017.3 1696.32 1030.82 1745.49 1036.71 1795.54 C 1041.41 1835.41 1040.4 1880.63 1032.69 1920.11 C 1031.27 1905.37 1033.19 1829.83 1027.43 1822.93 L 1025.1 1823.13 L 1024.02 1824.73 C 1024.34 1827.48 1025.06 1829.11 1026.43 1831.55 C 1026.61 1831.87 1027.92 1834.05 1028.01 1834.53 C 1028.46 1836.82 1026.83 1838.21 1025.62 1839.95 L 1026.39 1841.37 C 1027.73 1844.39 1028.95 1847.21 1028 1850.51 C 1026.82 1854.6 1029.88 1890.79 1030.02 1899.05 C 1030.34 1918.34 1030.1 1938.13 1026.94 1957.18 C 1024.57 1938.89 1025.21 1919.66 1023.84 1901.2 C 1021.01 1864.05 1016.61 1827.04 1010.67 1790.26 C 1001.58 1734.92 985.909 1681.46 975.176 1626.51 C 969.567 1597.75 965.795 1568.67 963.885 1539.43 C 962.233 1517.34 961.176 1494.94 963.064 1472.84 z"/>
<path transform="translate(0,0)" fill="rgb(72,44,8)" d="M 977.578 1534.23 C 980.193 1534.75 981.313 1535.07 983.192 1537 C 984.348 1540 983.724 1542.4 983.199 1545.45 C 980.575 1545.13 979.958 1545.07 977.838 1543.54 C 976.379 1540.41 977.128 1537.51 977.578 1534.23 z"/>
<path transform="translate(0,0)" fill="rgb(72,44,8)" d="M 978.893 1477.01 C 980.512 1478.19 981.899 1479.54 983.341 1480.93 C 984.033 1484.35 983.424 1485.42 982.338 1488.66 C 980.082 1487.62 979.081 1486.64 977.522 1484.72 C 976.81 1481.52 977.638 1479.86 978.893 1477.01 z"/>
<path transform="translate(0,0)" fill="rgb(72,44,8)" d="M 978.11 1549.31 C 980.158 1549.54 981.409 1549.84 983.213 1550.85 C 984.546 1554.15 983.81 1556.26 983.347 1559.75 C 981.774 1559.25 980.631 1558.57 979.216 1557.74 C 977.416 1555 977.914 1552.41 978.11 1549.31 z"/>
<path transform="translate(0,0)" fill="rgb(72,44,8)" d="M 982.942 1575.34 L 984.893 1576.71 C 986.952 1580.88 986.039 1585.04 985.225 1589.42 C 983.91 1587.52 981.611 1584.7 981.029 1582.45 C 980.276 1579.55 981.68 1577.74 982.942 1575.34 z"/>
<path transform="translate(0,0)" fill="rgb(72,44,8)" d="M 977.72 1522.79 C 979.31 1521.51 981.612 1521.66 983.022 1523.13 C 984.432 1524.61 984.482 1526.91 983.137 1528.44 C 982.157 1529.56 980.631 1530.03 979.192 1529.66 C 977.754 1529.28 976.65 1528.13 976.338 1526.68 C 976.027 1525.22 976.561 1523.72 977.72 1522.79 z"/>
<path transform="translate(0,0)" fill="rgb(72,44,8)" d="M 981.81 1561.36 C 983.652 1562.74 984.815 1563.45 985.221 1565.94 C 985.657 1568.61 984.377 1570.41 982.855 1572.39 C 981.015 1570.8 980.113 1569.66 979.06 1567.46 C 979.425 1564.43 980.062 1563.77 981.81 1561.36 z"/>
<path transform="translate(0,0)" fill="rgb(72,44,8)" d="M 984.93 1606.25 C 987.23 1606.76 987.462 1606.69 988.969 1608.46 C 989.801 1611.89 989.18 1614.43 988.45 1617.84 C 987.297 1617.3 986.354 1616.87 985.603 1615.78 C 983.642 1612.92 984.371 1609.41 984.93 1606.25 z"/>
<path transform="translate(0,0)" fill="rgb(241,226,190)" d="M 1016.34 130.711 C 1017.35 119.614 1019.33 108.638 1021.14 97.6492 C 1024.64 159.889 1027.79 222.511 1039.19 283.915 C 1048.84 335.902 1065.78 386.279 1076.09 438.052 C 1082.56 470.902 1085.72 504.319 1085.52 537.801 C 1085.54 551.193 1085.86 565.048 1084.49 578.384 C 1080.28 578 1074.02 578.176 1070.47 575.834 L 1069.13 575.314 C 1069.42 572.917 1069.35 574.009 1069.4 572.043 L 1068.37 572.019 L 1067.98 574.123 L 1067.26 573.709 C 1066.45 574.617 1065.48 575.347 1064.54 576.128 C 1058.82 576.914 1052.92 575.839 1047.2 575.214 C 1072.12 484.776 1025.82 364.273 1014.04 273.15 C 1007.97 226.199 1010.15 177.553 1016.34 130.711 z"/>
<path transform="translate(0,0)" fill="rgb(72,44,8)" d="M 1067.26 573.709 C 1067.92 569.093 1066.01 564.305 1066.77 559.946 C 1067.31 556.844 1068.48 556.413 1070.86 554.638 C 1071.06 561.713 1071.29 568.786 1070.47 575.834 L 1069.13 575.314 C 1069.42 572.917 1069.35 574.009 1069.4 572.043 L 1068.37 572.019 L 1067.98 574.123 L 1067.26 573.709 z"/>
<path transform="translate(0,0)" fill="rgb(241,226,190)" d="M 764.775 155.768 C 765.189 149.561 763.602 143.971 764.927 137.64 C 772.069 176.437 784.458 217.053 803.694 251.624 C 821.644 283.886 846.28 311.008 867.575 340.91 C 915.142 407.703 952.882 497.444 941.96 581.006 C 930.25 583.552 918.477 585.929 906.903 589.044 C 907.89 566.502 909.199 543.786 907.437 521.253 C 901.56 446.096 863.483 379.508 824.335 316.886 C 796.051 271.64 774.29 233.171 767.519 178.995 L 764.775 155.768 z"/>
<path transform="translate(0,0)" fill="rgb(241,226,190)" d="M 1400.96 1260.66 C 1408.9 1265.61 1415.81 1275.34 1423.23 1281.6 C 1441.84 1297.29 1463.57 1310.45 1485.38 1321.09 C 1505.87 1331.08 1527.04 1340.71 1548.48 1348.51 C 1588.29 1363 1629.43 1373.75 1668.53 1390.28 C 1702.76 1404.75 1734.14 1423.68 1764.47 1445.01 C 1781.61 1457.06 1800.44 1470.26 1815.56 1484.75 C 1813.07 1485.58 1801.15 1475.92 1798.63 1474.1 C 1741.63 1433.03 1686.48 1407.98 1620.05 1385.67 C 1581.75 1372.8 1543.23 1362 1506.22 1345.46 C 1488.58 1337.58 1471.55 1328.16 1454.92 1318.36 C 1446.15 1313.2 1436.12 1303.12 1426.54 1300.61 L 1425.06 1301.85 L 1425.18 1304.39 C 1427.49 1306.58 1428.58 1306.6 1431.67 1307.17 C 1433.63 1307.54 1434.83 1307.54 1436.39 1308.86 C 1437.75 1310.02 1437.37 1312.32 1437.48 1314.02 L 1439.5 1315.13 C 1449.91 1314.51 1445.66 1319.44 1452.62 1322.13 L 1455.06 1320.97 L 1457.17 1321.92 C 1458.31 1323.71 1459.41 1325.76 1461.31 1326.82 C 1485.67 1340.21 1510.89 1351.96 1536.81 1362 C 1564.37 1372.54 1593.19 1380.3 1621.23 1389.51 C 1681.19 1409.21 1745.22 1435.59 1795.42 1474.51 C 1779.97 1467.62 1765.01 1459.29 1749.8 1451.86 C 1729.44 1441.91 1708.04 1432.7 1686.78 1424.83 C 1661.36 1415.41 1635.64 1406.08 1609.72 1398.11 C 1539.1 1376.39 1427.5 1350.33 1375.82 1297.36 L 1383.01 1287.96 C 1415.5 1314 1445.82 1332.23 1484.42 1347.8 C 1491.89 1350.81 1500.04 1354.93 1507.91 1356.39 L 1507.92 1355.43 C 1497.61 1348.86 1478.6 1342.37 1466.56 1336.78 C 1436.24 1322.69 1410.98 1305.85 1385.24 1284.52 C 1390.72 1276.75 1395.77 1268.63 1400.96 1260.66 z"/>
<path transform="translate(0,0)" fill="rgb(72,44,8)" d="M 1414.74 1291.03 C 1416.95 1292.32 1419.32 1293.57 1421.19 1295.33 C 1423.34 1297.34 1423.29 1297.57 1423.34 1300.36 C 1422.7 1300.49 1422.07 1300.68 1421.42 1300.73 C 1418.82 1300.94 1418.09 1300.02 1416.24 1298.46 C 1415.18 1295.76 1414.87 1293.93 1414.74 1291.03 z"/>
<path transform="translate(0,0)" fill="rgb(241,226,190)" d="M 231.033 565.423 C 252.842 574.676 274.159 584.929 295.883 594.36 C 325.511 607.129 355.568 618.882 386 629.597 C 424.838 643.217 464.45 654.364 503.793 666.421 C 542.073 678.153 580.312 689.845 615.318 709.785 C 635.15 721.082 652.74 734.974 670.366 749.374 C 667.657 753.319 664.791 757.17 661.995 761.055 C 629.083 724.512 578.852 699.803 531.936 687.06 L 530.485 688.37 L 528.39 688.839 C 533.491 692.018 539.361 693.309 544.62 696.09 L 543.915 698.703 C 553.591 704.645 565.081 708.969 575.235 714.27 C 607.875 731.311 627.713 748.815 651.718 776.5 L 644.47 787.271 C 573.572 697.918 452.662 689.572 355.389 645.983 C 310.43 625.836 269.477 595.857 231.033 565.423 z"/>
<path transform="translate(0,0)" fill="rgb(72,44,8)" d="M 543.915 698.703 C 463.609 666.661 383.736 651.332 305.583 611.381 C 288.003 602.394 270.019 592.618 254.283 580.585 C 255.126 580.216 294.709 603.375 299.102 605.699 C 370.547 643.499 454.397 665.069 531.936 687.06 L 530.485 688.37 L 528.39 688.839 C 533.491 692.018 539.361 693.309 544.62 696.09 L 543.915 698.703 z"/>
<path transform="translate(0,0)" fill="rgb(241,226,190)" d="M 1799.06 580.131 L 1799.59 581.188 C 1742.6 616.135 1690.64 657.019 1641.68 702.495 C 1601.01 740.274 1562.94 780.297 1518.56 814.004 C 1506.44 823.207 1455.35 852.54 1440.17 850.506 C 1437.23 848.726 1436.92 847.278 1435.39 844.264 L 1427.95 829.451 C 1448.45 824.107 1469.25 817.258 1488.28 807.943 C 1572.01 766.958 1637.11 683.511 1712.74 628.222 C 1739.81 608.434 1768.32 593.393 1799.06 580.131 z"/>
<path transform="translate(0,0)" fill="rgb(241,226,190)" d="M 1480.7 235.041 C 1480.13 239.771 1450.41 292.204 1445.4 302.705 C 1424.95 345.153 1407.64 389.045 1393.62 434.026 C 1380.84 476.278 1369.88 518.839 1355.42 560.588 C 1349.09 578.861 1342.69 597.158 1333.75 614.357 C 1323.97 633.178 1310.08 650.439 1297.49 667.461 C 1293.96 664.802 1290.46 662.092 1287.01 659.334 C 1293.33 651.85 1304.36 644.081 1307.41 634.708 C 1299.72 637.571 1290.64 651.696 1285.56 658.483 L 1276.19 651.818 C 1286.89 642.724 1296.48 630.917 1305.13 619.844 C 1353.57 557.844 1359.06 500.497 1383.26 429.399 C 1400.19 379.648 1419.39 333.121 1445.9 287.64 C 1454.58 272.76 1469.05 247.121 1480.7 235.041 z"/>
<path transform="translate(0,0)" fill="rgb(241,226,190)" d="M 1813.45 568.906 L 1816 569.077 C 1813.49 573.689 1800.13 577.555 1795.27 579.556 C 1770.72 589.52 1747.21 601.867 1725.08 616.42 C 1673.95 649.985 1630.54 694.603 1584.8 734.877 C 1557.48 758.933 1530.37 781.565 1498.02 798.743 C 1475.54 810.678 1451.75 818.641 1427.67 826.56 L 1426.03 825.609 C 1423.53 819.847 1420.39 814.524 1417.23 809.107 C 1508.65 794.167 1562.54 740.489 1627.72 680.396 C 1648.57 661.172 1669.68 641.783 1692.95 625.474 C 1729.74 599.681 1771.49 583.963 1813.45 568.906 z"/>
<path transform="translate(0,0)" fill="rgb(241,226,190)" d="M 1860.1 1027.42 C 1885.68 1024.99 1918.74 1026.36 1944.27 1028.78 C 1929.19 1031.75 1911.76 1030.2 1896.31 1030.98 C 1870.46 1032.24 1844.72 1035.03 1819.2 1039.32 C 1794.02 1043.49 1768.68 1047.94 1743.86 1053.86 C 1665.66 1072.51 1613.81 1091.26 1531.75 1089.96 C 1508.61 1089.46 1487.32 1085.62 1465.79 1077.05 C 1466.43 1071.56 1466.99 1066.06 1467.46 1060.56 C 1556.93 1092.85 1638.22 1065.8 1726.22 1047 C 1770.56 1037.53 1814.85 1030.45 1860.1 1027.42 z"/>
<path transform="translate(0,0)" fill="rgb(241,226,190)" d="M 1831.59 1018.44 C 1857.51 1016.88 1883.97 1020.42 1909.77 1022.8 C 1899.63 1026.14 1871.28 1024.33 1858.67 1024.92 C 1842.27 1025.75 1825.9 1027.18 1809.6 1029.22 C 1779.4 1033.42 1749.37 1038.83 1719.6 1045.43 C 1656.45 1059.72 1594.3 1077.32 1528.88 1070.72 C 1508.43 1068.24 1487.31 1063.73 1468.16 1056.17 C 1468.09 1050.56 1468.39 1045.22 1469.04 1039.65 C 1603.61 1085.23 1701.36 1023.51 1831.59 1018.44 z"/>
<path transform="translate(0,0)" fill="rgb(241,226,190)" d="M 1476.69 235.005 C 1475.8 240.516 1458 263.478 1453.74 270.113 C 1439.67 292.066 1426.26 315.632 1415.38 339.306 C 1397.41 378.769 1382.16 419.412 1369.72 460.952 C 1357.39 500.719 1348.11 542.079 1327.97 578.837 C 1323.05 587.808 1317.81 596.746 1312.01 605.17 C 1306.64 612.959 1280.64 646.966 1272.26 649.405 L 1267.48 646.731 C 1265.27 645.09 1263.77 644.687 1263.08 641.917 C 1270.62 630.023 1282.49 619.796 1291.44 608.811 C 1305.62 591.414 1317.57 568.953 1327.06 548.638 C 1341.13 518.523 1350.1 486.263 1360.17 454.671 C 1388.25 366.518 1413.37 304.464 1476.69 235.005 z"/>
<path transform="translate(0,0)" fill="rgb(241,226,190)" d="M 530.485 688.37 C 577.244 699.057 625.818 731.925 660.475 763.648 C 658.089 767.283 655.763 770.975 653.268 774.536 C 630.551 740.525 583.073 710.173 544.62 696.09 C 539.361 693.309 533.491 692.018 528.39 688.839 L 530.485 688.37 z"/>
<path transform="translate(0,0)" fill="rgb(62,43,27)" d="M 1868.93 1854.25 L 1872.46 1855.58 C 1876.76 1860.23 1900.76 1928.96 1902.79 1938.57 C 1905.18 1949.89 1904.21 1962.31 1897.45 1972.06 C 1891.16 1981.13 1882.55 1984.31 1872.2 1986.11 C 1868.22 1986.01 1864.69 1985.57 1860.9 1984.3 C 1852.01 1981.34 1844.86 1976.37 1840.79 1967.73 C 1837.53 1960.64 1836.31 1952.8 1837.26 1945.06 C 1839.28 1927.17 1849.48 1907.58 1855.83 1890.71 C 1860.39 1878.62 1864.3 1866.31 1868.93 1854.25 z"/>
<path transform="translate(0,0)" fill="rgb(241,226,190)" d="M 1857.62 1924.88 C 1858.87 1927.18 1851.16 1949.63 1858.25 1966.26 C 1859.03 1968.09 1858.95 1967.1 1858.52 1969.08 L 1856.75 1968.43 C 1856.13 1967.86 1855.51 1967.27 1854.91 1966.67 C 1849.63 1961.42 1846.98 1955.06 1847.08 1947.58 C 1847.2 1939.02 1851.52 1930.69 1857.62 1924.88 z"/>
<path transform="translate(0,0)" fill="rgb(62,43,27)" d="M 184.439 73.4532 C 185.88 74.2686 186.366 74.796 187 76.4226 C 188.935 81.3845 189.458 88.0482 190.315 93.2987 C 193.214 111.055 194.706 132.336 201.546 148.884 C 208.161 164.886 229.248 161.003 242.425 167.137 C 243.718 167.739 243.21 167.306 243.78 168.911 C 236.559 175.068 216.452 171.109 205.929 181.765 C 191.388 196.487 194.003 279.944 184.274 291.201 C 181.638 283.346 181.112 274.399 180.032 266.185 C 177.191 244.579 174.34 204.377 167.213 185.547 C 161.667 170.892 135.481 174.998 123.529 169.513 C 125.973 165.226 153.848 161.021 160.553 157.595 C 175.163 150.128 178.887 90.6244 184.439 73.4532 z"/>
<path transform="translate(0,0)" fill="rgb(62,43,27)" d="M 1868.14 140.5 C 1874.32 146.785 1873.88 186.372 1878.74 199.386 C 1895.2 203.579 1912.5 202.662 1929 207.022 C 1913.24 212.239 1895.7 211.096 1879.51 214.919 C 1873.56 228.735 1873.62 246.506 1871.97 261.412 C 1871.55 265.227 1871.54 270.096 1870.15 273.618 C 1869.47 275.346 1869.13 275.081 1867.54 275.808 C 1864.4 259.113 1866.57 240.356 1861.95 224.209 C 1860.74 219.962 1858.93 216.001 1854.96 213.687 C 1851.88 211.892 1827.16 210.115 1821.86 209.364 C 1819.27 208.995 1815.15 208.978 1812.97 207.479 C 1812.71 207.303 1812.51 207.058 1812.29 206.848 L 1812.51 207.726 L 1811.91 207.116 C 1819.62 200.788 1848.02 203.189 1860.57 196.711 C 1866.2 185.062 1864.68 155.761 1868.14 140.5 z"/>
<path transform="translate(0,0)" fill="rgb(62,43,27)" d="M 143.021 1810.59 C 148.099 1815.34 149.742 1861.2 152.249 1871.9 C 160.199 1874.38 186.625 1876.28 190.873 1880.26 C 185.782 1886.57 158.541 1884.5 154.194 1888.93 C 145.104 1898.2 151.375 1938.98 142.199 1948.22 C 136.264 1932.26 141.795 1908.09 135.175 1893.15 C 131.114 1883.98 102.043 1885.24 92.6635 1882.04 L 92.0829 1880.73 C 103.564 1873.89 118.93 1878.74 130.54 1872.7 C 140.999 1867.25 138.838 1823.8 143.021 1810.59 z"/>
<path transform="translate(0,0)" fill="rgb(62,43,27)" d="M 1651.2 1863.74 C 1656.76 1861.22 1663.32 1863.66 1665.87 1869.21 C 1668.42 1874.76 1666 1881.33 1660.47 1883.91 C 1654.89 1886.5 1648.27 1884.07 1645.7 1878.48 C 1643.14 1872.89 1645.6 1866.28 1651.2 1863.74 z"/>
<path transform="translate(0,0)" fill="rgb(62,43,27)" d="M 1892.74 1693.8 C 1898.4 1692.18 1904.34 1695.34 1906.15 1700.95 C 1907.96 1706.56 1905 1712.6 1899.45 1714.6 C 1895.7 1715.95 1891.5 1715.15 1888.51 1712.51 C 1885.52 1709.86 1884.2 1705.8 1885.08 1701.9 C 1885.97 1698.01 1888.9 1694.9 1892.74 1693.8 z"/>
<path transform="translate(0,0)" fill="rgb(62,43,27)" d="M 1576.01 58.9299 C 1579.83 59.2204 1584.1 60.3028 1586.6 63.4724 C 1588.63 66.0447 1589.49 68.8512 1588.92 72.0749 C 1588.01 77.1952 1585.04 79.4512 1580.93 82.2261 C 1579.74 82.1828 1578.67 82.1873 1577.49 81.9293 C 1574.03 81.1755 1571.04 78.6242 1569.42 75.5228 C 1567.85 72.5258 1567.72 69.3004 1568.76 66.1242 C 1570.04 62.2385 1572.54 60.7595 1576.01 58.9299 z"/>
<path transform="translate(0,0)" fill="rgb(62,43,27)" d="M 133.519 375.04 C 135.019 374.883 136.517 374.708 138.027 374.691 C 141.614 374.65 145.265 375.531 147.687 378.402 C 149.403 380.436 150.277 382.41 149.928 385.123 C 149.358 389.561 146.462 392.237 143.192 394.923 C 142.827 394.957 142.462 395.004 142.096 395.027 C 137.582 395.307 133.696 394.866 130.282 391.599 C 128.301 389.703 127.248 387.288 127.434 384.509 C 127.729 380.128 130.498 377.787 133.519 375.04 z"/>
<path transform="translate(0,0)" fill="rgb(62,43,27)" d="M 293.934 1890.55 C 299.738 1889.64 305.192 1893.58 306.157 1899.38 C 307.121 1905.17 303.238 1910.66 297.451 1911.68 C 291.586 1912.72 286.003 1908.77 285.025 1902.89 C 284.046 1897.02 288.049 1891.47 293.934 1890.55 z"/>
<path transform="translate(0,0)" fill="rgb(62,43,27)" d="M 415.175 99.6231 C 420.884 98.1013 426.74 101.522 428.218 107.242 C 429.697 112.962 426.232 118.792 420.501 120.228 C 414.83 121.648 409.076 118.228 407.613 112.568 C 406.15 106.909 409.526 101.129 415.175 99.6231 z"/>
<path transform="translate(0,0)" fill="rgb(62,43,27)" d="M 1851.76 416.616 C 1857.43 415.63 1862.82 419.394 1863.86 425.047 C 1864.89 430.7 1861.17 436.128 1855.53 437.208 C 1849.81 438.301 1844.31 434.529 1843.26 428.809 C 1842.22 423.089 1846.04 417.613 1851.76 416.616 z"/>
<path transform="translate(0,0)" fill="rgb(62,43,27)" d="M 229.328 1648.65 C 232.767 1647.11 236.772 1647.54 239.799 1649.79 C 242.827 1652.03 244.403 1655.74 243.92 1659.48 C 243.438 1663.22 240.972 1666.41 237.474 1667.81 C 232.213 1669.92 226.229 1667.44 224.011 1662.22 C 221.793 1657.01 224.157 1650.97 229.328 1648.65 z"/>
</svg>